%TF.GenerationSoftware,KiCad,Pcbnew,(6.0.1-0)*%
%TF.CreationDate,2023-01-05T00:44:51-08:00*%
%TF.ProjectId,DigitalClock,44696769-7461-46c4-936c-6f636b2e6b69,rev?*%
%TF.SameCoordinates,Original*%
%TF.FileFunction,Legend,Top*%
%TF.FilePolarity,Positive*%
%FSLAX46Y46*%
G04 Gerber Fmt 4.6, Leading zero omitted, Abs format (unit mm)*
G04 Created by KiCad (PCBNEW (6.0.1-0)) date 2023-01-05 00:44:51*
%MOMM*%
%LPD*%
G01*
G04 APERTURE LIST*
%ADD10C,0.150000*%
%ADD11C,0.254000*%
%ADD12C,0.120000*%
G04 APERTURE END LIST*
D10*
X97678400Y-117494100D02*
X97678400Y-85794900D01*
X62077600Y-93472000D02*
G75*
G03*
X62077600Y-93472000I-1268990J0D01*
G01*
X142494000Y-77546200D02*
G75*
G03*
X142494000Y-77546200I-1268990J0D01*
G01*
X134874000Y-75006200D02*
G75*
G03*
X134874000Y-75006200I-1268990J0D01*
G01*
X60426600Y-55651400D02*
G75*
G03*
X60426600Y-55651400I-1268990J0D01*
G01*
X107594400Y-74930000D02*
G75*
G03*
X107594400Y-74930000I-1268990J0D01*
G01*
X239664400Y-117494100D02*
X36489800Y-117494100D01*
X128727200Y-77495400D02*
G75*
G03*
X128727200Y-77495400I-1268990J0D01*
G01*
X207467200Y-74828400D02*
G75*
G03*
X207467200Y-74828400I-1268990J0D01*
G01*
X215087200Y-77368400D02*
G75*
G03*
X215087200Y-77368400I-1268990J0D01*
G01*
X104343200Y-99085400D02*
G75*
G03*
X104343200Y-99085400I-1268990J0D01*
G01*
X192252600Y-50444400D02*
G75*
G03*
X192252600Y-50444400I-1268990J0D01*
G01*
X60848400Y-141090700D02*
X60848400Y-117494100D01*
X230987600Y-74853800D02*
G75*
G03*
X230987600Y-74853800I-1268990J0D01*
G01*
X93954600Y-74879200D02*
G75*
G03*
X93954600Y-74879200I-1268990J0D01*
G01*
X48133000Y-55651400D02*
G75*
G03*
X48133000Y-55651400I-1268990J0D01*
G01*
X195910200Y-74853800D02*
G75*
G03*
X195910200Y-74853800I-1268990J0D01*
G01*
X203530200Y-77368400D02*
G75*
G03*
X203530200Y-77368400I-1268990J0D01*
G01*
X219278200Y-74853800D02*
G75*
G03*
X219278200Y-74853800I-1268990J0D01*
G01*
X145684400Y-141090700D02*
X145684400Y-39541500D01*
X226923600Y-77419200D02*
G75*
G03*
X226923600Y-77419200I-1268990J0D01*
G01*
X97678400Y-85794900D02*
X239639000Y-85871100D01*
X91109800Y-119659400D02*
G75*
G03*
X91109800Y-119659400I-1268990J0D01*
G01*
X115265200Y-77470000D02*
G75*
G03*
X115265200Y-77470000I-1268990J0D01*
G01*
X73025000Y-55626000D02*
G75*
G03*
X73025000Y-55626000I-1268990J0D01*
G01*
X121107200Y-75006200D02*
G75*
G03*
X121107200Y-75006200I-1268990J0D01*
G01*
X101574600Y-77444600D02*
G75*
G03*
X101574600Y-77444600I-1268990J0D01*
G01*
X52832000Y-53086000D02*
G75*
G03*
X52832000Y-53086000I-1268990J0D01*
G01*
X238607600Y-77419200D02*
G75*
G03*
X238607600Y-77419200I-1268990J0D01*
G01*
X65379600Y-53086000D02*
G75*
G03*
X65379600Y-53086000I-1268990J0D01*
G01*
X85191600Y-103886000D02*
G75*
G03*
X85191600Y-103886000I-1268990J0D01*
G01*
X74564400Y-117494100D02*
X74564400Y-39643100D01*
X40480865Y-53111400D02*
G75*
G03*
X40480865Y-53111400I-1268990J0D01*
G01*
X81294457Y-45146980D02*
X81961123Y-46146980D01*
X81961123Y-45146980D02*
X81294457Y-46146980D01*
X82532552Y-45146980D02*
X82723028Y-45146980D01*
X82818266Y-45194600D01*
X82913504Y-45289838D01*
X82961123Y-45480314D01*
X82961123Y-45813647D01*
X82913504Y-46004123D01*
X82818266Y-46099361D01*
X82723028Y-46146980D01*
X82532552Y-46146980D01*
X82437314Y-46099361D01*
X82342076Y-46004123D01*
X82294457Y-45813647D01*
X82294457Y-45480314D01*
X82342076Y-45289838D01*
X82437314Y-45194600D01*
X82532552Y-45146980D01*
X83961123Y-46146980D02*
X83627790Y-45670790D01*
X83389695Y-46146980D02*
X83389695Y-45146980D01*
X83770647Y-45146980D01*
X83865885Y-45194600D01*
X83913504Y-45242219D01*
X83961123Y-45337457D01*
X83961123Y-45480314D01*
X83913504Y-45575552D01*
X83865885Y-45623171D01*
X83770647Y-45670790D01*
X83389695Y-45670790D01*
X232214895Y-45378666D02*
X232691085Y-45378666D01*
X232119657Y-45664380D02*
X232452990Y-44664380D01*
X232786323Y-45664380D01*
X233119657Y-45664380D02*
X233119657Y-44664380D01*
X233691085Y-45664380D01*
X233691085Y-44664380D01*
X234167276Y-45664380D02*
X234167276Y-44664380D01*
X234405371Y-44664380D01*
X234548228Y-44712000D01*
X234643466Y-44807238D01*
X234691085Y-44902476D01*
X234738704Y-45092952D01*
X234738704Y-45235809D01*
X234691085Y-45426285D01*
X234643466Y-45521523D01*
X234548228Y-45616761D01*
X234405371Y-45664380D01*
X234167276Y-45664380D01*
X220581695Y-45607266D02*
X221057885Y-45607266D01*
X220486457Y-45892980D02*
X220819790Y-44892980D01*
X221153123Y-45892980D01*
X221486457Y-45892980D02*
X221486457Y-44892980D01*
X222057885Y-45892980D01*
X222057885Y-44892980D01*
X222534076Y-45892980D02*
X222534076Y-44892980D01*
X222772171Y-44892980D01*
X222915028Y-44940600D01*
X223010266Y-45035838D01*
X223057885Y-45131076D01*
X223105504Y-45321552D01*
X223105504Y-45464409D01*
X223057885Y-45654885D01*
X223010266Y-45750123D01*
X222915028Y-45845361D01*
X222772171Y-45892980D01*
X222534076Y-45892980D01*
D11*
X234745266Y-133816623D02*
X234745266Y-132546623D01*
X235229076Y-132546623D01*
X235350028Y-132607100D01*
X235410504Y-132667576D01*
X235470980Y-132788528D01*
X235470980Y-132969957D01*
X235410504Y-133090909D01*
X235350028Y-133151385D01*
X235229076Y-133211861D01*
X234745266Y-133211861D01*
X236015266Y-133816623D02*
X236015266Y-132546623D01*
X236438600Y-133453766D01*
X236861933Y-132546623D01*
X236861933Y-133816623D01*
D10*
X136975885Y-72013771D02*
X136642552Y-72013771D01*
X136642552Y-72537580D02*
X136642552Y-71537580D01*
X137118742Y-71537580D01*
X137833028Y-72013771D02*
X137499695Y-72013771D01*
X137499695Y-72537580D02*
X137499695Y-71537580D01*
X137975885Y-71537580D01*
D11*
X147959838Y-114895085D02*
X148141266Y-114955561D01*
X148201742Y-115016038D01*
X148262219Y-115136990D01*
X148262219Y-115318419D01*
X148201742Y-115439371D01*
X148141266Y-115499847D01*
X148020314Y-115560323D01*
X147536504Y-115560323D01*
X147536504Y-114290323D01*
X147959838Y-114290323D01*
X148080790Y-114350800D01*
X148141266Y-114411276D01*
X148201742Y-114532228D01*
X148201742Y-114653180D01*
X148141266Y-114774133D01*
X148080790Y-114834609D01*
X147959838Y-114895085D01*
X147536504Y-114895085D01*
X148987933Y-115560323D02*
X148866980Y-115499847D01*
X148806504Y-115439371D01*
X148746028Y-115318419D01*
X148746028Y-114955561D01*
X148806504Y-114834609D01*
X148866980Y-114774133D01*
X148987933Y-114713657D01*
X149169361Y-114713657D01*
X149290314Y-114774133D01*
X149350790Y-114834609D01*
X149411266Y-114955561D01*
X149411266Y-115318419D01*
X149350790Y-115439371D01*
X149290314Y-115499847D01*
X149169361Y-115560323D01*
X148987933Y-115560323D01*
X150499838Y-115560323D02*
X150499838Y-114895085D01*
X150439361Y-114774133D01*
X150318409Y-114713657D01*
X150076504Y-114713657D01*
X149955552Y-114774133D01*
X150499838Y-115499847D02*
X150378885Y-115560323D01*
X150076504Y-115560323D01*
X149955552Y-115499847D01*
X149895076Y-115378895D01*
X149895076Y-115257942D01*
X149955552Y-115136990D01*
X150076504Y-115076514D01*
X150378885Y-115076514D01*
X150499838Y-115016038D01*
X151104599Y-115560323D02*
X151104599Y-114713657D01*
X151104599Y-114955561D02*
X151165076Y-114834609D01*
X151225552Y-114774133D01*
X151346504Y-114713657D01*
X151467457Y-114713657D01*
X152435076Y-115560323D02*
X152435076Y-114290323D01*
X152435076Y-115499847D02*
X152314123Y-115560323D01*
X152072219Y-115560323D01*
X151951266Y-115499847D01*
X151890790Y-115439371D01*
X151830314Y-115318419D01*
X151830314Y-114955561D01*
X151890790Y-114834609D01*
X151951266Y-114774133D01*
X152072219Y-114713657D01*
X152314123Y-114713657D01*
X152435076Y-114774133D01*
X154007457Y-115560323D02*
X154007457Y-114290323D01*
X154309838Y-114290323D01*
X154491266Y-114350800D01*
X154612219Y-114471752D01*
X154672695Y-114592704D01*
X154733171Y-114834609D01*
X154733171Y-115016038D01*
X154672695Y-115257942D01*
X154612219Y-115378895D01*
X154491266Y-115499847D01*
X154309838Y-115560323D01*
X154007457Y-115560323D01*
X155761266Y-115499847D02*
X155640314Y-115560323D01*
X155398409Y-115560323D01*
X155277457Y-115499847D01*
X155216980Y-115378895D01*
X155216980Y-114895085D01*
X155277457Y-114774133D01*
X155398409Y-114713657D01*
X155640314Y-114713657D01*
X155761266Y-114774133D01*
X155821742Y-114895085D01*
X155821742Y-115016038D01*
X155216980Y-115136990D01*
X156305552Y-115499847D02*
X156426504Y-115560323D01*
X156668409Y-115560323D01*
X156789361Y-115499847D01*
X156849838Y-115378895D01*
X156849838Y-115318419D01*
X156789361Y-115197466D01*
X156668409Y-115136990D01*
X156486980Y-115136990D01*
X156366028Y-115076514D01*
X156305552Y-114955561D01*
X156305552Y-114895085D01*
X156366028Y-114774133D01*
X156486980Y-114713657D01*
X156668409Y-114713657D01*
X156789361Y-114774133D01*
X157394123Y-115560323D02*
X157394123Y-114713657D01*
X157394123Y-114290323D02*
X157333647Y-114350800D01*
X157394123Y-114411276D01*
X157454599Y-114350800D01*
X157394123Y-114290323D01*
X157394123Y-114411276D01*
X158543171Y-114713657D02*
X158543171Y-115741752D01*
X158482695Y-115862704D01*
X158422219Y-115923180D01*
X158301266Y-115983657D01*
X158119838Y-115983657D01*
X157998885Y-115923180D01*
X158543171Y-115499847D02*
X158422219Y-115560323D01*
X158180314Y-115560323D01*
X158059361Y-115499847D01*
X157998885Y-115439371D01*
X157938409Y-115318419D01*
X157938409Y-114955561D01*
X157998885Y-114834609D01*
X158059361Y-114774133D01*
X158180314Y-114713657D01*
X158422219Y-114713657D01*
X158543171Y-114774133D01*
X159147933Y-114713657D02*
X159147933Y-115560323D01*
X159147933Y-114834609D02*
X159208409Y-114774133D01*
X159329361Y-114713657D01*
X159510790Y-114713657D01*
X159631742Y-114774133D01*
X159692219Y-114895085D01*
X159692219Y-115560323D01*
X161264599Y-115560323D02*
X161264599Y-114290323D01*
X161264599Y-114774133D02*
X161385552Y-114713657D01*
X161627457Y-114713657D01*
X161748409Y-114774133D01*
X161808885Y-114834609D01*
X161869361Y-114955561D01*
X161869361Y-115318419D01*
X161808885Y-115439371D01*
X161748409Y-115499847D01*
X161627457Y-115560323D01*
X161385552Y-115560323D01*
X161264599Y-115499847D01*
X162292695Y-114713657D02*
X162595076Y-115560323D01*
X162897457Y-114713657D02*
X162595076Y-115560323D01*
X162474123Y-115862704D01*
X162413647Y-115923180D01*
X162292695Y-115983657D01*
X165074600Y-115439371D02*
X165014123Y-115499847D01*
X164832695Y-115560323D01*
X164711742Y-115560323D01*
X164530314Y-115499847D01*
X164409361Y-115378895D01*
X164348885Y-115257942D01*
X164288409Y-115016038D01*
X164288409Y-114834609D01*
X164348885Y-114592704D01*
X164409361Y-114471752D01*
X164530314Y-114350800D01*
X164711742Y-114290323D01*
X164832695Y-114290323D01*
X165014123Y-114350800D01*
X165074600Y-114411276D01*
X165800314Y-115560323D02*
X165679361Y-115499847D01*
X165618885Y-115439371D01*
X165558409Y-115318419D01*
X165558409Y-114955561D01*
X165618885Y-114834609D01*
X165679361Y-114774133D01*
X165800314Y-114713657D01*
X165981742Y-114713657D01*
X166102695Y-114774133D01*
X166163171Y-114834609D01*
X166223647Y-114955561D01*
X166223647Y-115318419D01*
X166163171Y-115439371D01*
X166102695Y-115499847D01*
X165981742Y-115560323D01*
X165800314Y-115560323D01*
X166949361Y-115560323D02*
X166828409Y-115499847D01*
X166767933Y-115439371D01*
X166707457Y-115318419D01*
X166707457Y-114955561D01*
X166767933Y-114834609D01*
X166828409Y-114774133D01*
X166949361Y-114713657D01*
X167130790Y-114713657D01*
X167251742Y-114774133D01*
X167312219Y-114834609D01*
X167372695Y-114955561D01*
X167372695Y-115318419D01*
X167312219Y-115439371D01*
X167251742Y-115499847D01*
X167130790Y-115560323D01*
X166949361Y-115560323D01*
X167916980Y-114713657D02*
X167916980Y-115983657D01*
X167916980Y-114774133D02*
X168037933Y-114713657D01*
X168279838Y-114713657D01*
X168400790Y-114774133D01*
X168461266Y-114834609D01*
X168521742Y-114955561D01*
X168521742Y-115318419D01*
X168461266Y-115439371D01*
X168400790Y-115499847D01*
X168279838Y-115560323D01*
X168037933Y-115560323D01*
X167916980Y-115499847D01*
X169549838Y-115499847D02*
X169428885Y-115560323D01*
X169186980Y-115560323D01*
X169066028Y-115499847D01*
X169005552Y-115378895D01*
X169005552Y-114895085D01*
X169066028Y-114774133D01*
X169186980Y-114713657D01*
X169428885Y-114713657D01*
X169549838Y-114774133D01*
X169610314Y-114895085D01*
X169610314Y-115016038D01*
X169005552Y-115136990D01*
X170154600Y-115560323D02*
X170154600Y-114713657D01*
X170154600Y-114955561D02*
X170215076Y-114834609D01*
X170275552Y-114774133D01*
X170396504Y-114713657D01*
X170517457Y-114713657D01*
X172634123Y-115439371D02*
X172573647Y-115499847D01*
X172392219Y-115560323D01*
X172271266Y-115560323D01*
X172089838Y-115499847D01*
X171968885Y-115378895D01*
X171908409Y-115257942D01*
X171847933Y-115016038D01*
X171847933Y-114834609D01*
X171908409Y-114592704D01*
X171968885Y-114471752D01*
X172089838Y-114350800D01*
X172271266Y-114290323D01*
X172392219Y-114290323D01*
X172573647Y-114350800D01*
X172634123Y-114411276D01*
X173359838Y-115560323D02*
X173238885Y-115499847D01*
X173178409Y-115439371D01*
X173117933Y-115318419D01*
X173117933Y-114955561D01*
X173178409Y-114834609D01*
X173238885Y-114774133D01*
X173359838Y-114713657D01*
X173541266Y-114713657D01*
X173662219Y-114774133D01*
X173722695Y-114834609D01*
X173783171Y-114955561D01*
X173783171Y-115318419D01*
X173722695Y-115439371D01*
X173662219Y-115499847D01*
X173541266Y-115560323D01*
X173359838Y-115560323D01*
X174508885Y-115560323D02*
X174387933Y-115499847D01*
X174327457Y-115378895D01*
X174327457Y-114290323D01*
X175174123Y-115560323D02*
X175053171Y-115499847D01*
X174992695Y-115378895D01*
X174992695Y-114290323D01*
X175657933Y-115560323D02*
X175657933Y-114713657D01*
X175657933Y-114290323D02*
X175597457Y-114350800D01*
X175657933Y-114411276D01*
X175718409Y-114350800D01*
X175657933Y-114290323D01*
X175657933Y-114411276D01*
X176746504Y-115499847D02*
X176625552Y-115560323D01*
X176383647Y-115560323D01*
X176262695Y-115499847D01*
X176202219Y-115378895D01*
X176202219Y-114895085D01*
X176262695Y-114774133D01*
X176383647Y-114713657D01*
X176625552Y-114713657D01*
X176746504Y-114774133D01*
X176806980Y-114895085D01*
X176806980Y-115016038D01*
X176202219Y-115136990D01*
X177351266Y-115560323D02*
X177351266Y-114713657D01*
X177351266Y-114955561D02*
X177411742Y-114834609D01*
X177472219Y-114774133D01*
X177593171Y-114713657D01*
X177714123Y-114713657D01*
D10*
X66479895Y-109945466D02*
X66956085Y-109945466D01*
X66384657Y-110231180D02*
X66717990Y-109231180D01*
X67051323Y-110231180D01*
X67384657Y-110231180D02*
X67384657Y-109231180D01*
X67956085Y-110231180D01*
X67956085Y-109231180D01*
X68432276Y-110231180D02*
X68432276Y-109231180D01*
X68670371Y-109231180D01*
X68813228Y-109278800D01*
X68908466Y-109374038D01*
X68956085Y-109469276D01*
X69003704Y-109659752D01*
X69003704Y-109802609D01*
X68956085Y-109993085D01*
X68908466Y-110088323D01*
X68813228Y-110183561D01*
X68670371Y-110231180D01*
X68432276Y-110231180D01*
X151220657Y-44765980D02*
X151887323Y-45765980D01*
X151887323Y-44765980D02*
X151220657Y-45765980D01*
X152458752Y-44765980D02*
X152649228Y-44765980D01*
X152744466Y-44813600D01*
X152839704Y-44908838D01*
X152887323Y-45099314D01*
X152887323Y-45432647D01*
X152839704Y-45623123D01*
X152744466Y-45718361D01*
X152649228Y-45765980D01*
X152458752Y-45765980D01*
X152363514Y-45718361D01*
X152268276Y-45623123D01*
X152220657Y-45432647D01*
X152220657Y-45099314D01*
X152268276Y-44908838D01*
X152363514Y-44813600D01*
X152458752Y-44765980D01*
X153887323Y-45765980D02*
X153553990Y-45289790D01*
X153315895Y-45765980D02*
X153315895Y-44765980D01*
X153696847Y-44765980D01*
X153792085Y-44813600D01*
X153839704Y-44861219D01*
X153887323Y-44956457D01*
X153887323Y-45099314D01*
X153839704Y-45194552D01*
X153792085Y-45242171D01*
X153696847Y-45289790D01*
X153315895Y-45289790D01*
D11*
X147558276Y-113299723D02*
X147558276Y-112029723D01*
X147860657Y-112029723D01*
X148042085Y-112090200D01*
X148163038Y-112211152D01*
X148223514Y-112332104D01*
X148283990Y-112574009D01*
X148283990Y-112755438D01*
X148223514Y-112997342D01*
X148163038Y-113118295D01*
X148042085Y-113239247D01*
X147860657Y-113299723D01*
X147558276Y-113299723D01*
X148828276Y-113299723D02*
X148828276Y-112453057D01*
X148828276Y-112029723D02*
X148767800Y-112090200D01*
X148828276Y-112150676D01*
X148888752Y-112090200D01*
X148828276Y-112029723D01*
X148828276Y-112150676D01*
X149977323Y-112453057D02*
X149977323Y-113481152D01*
X149916847Y-113602104D01*
X149856371Y-113662580D01*
X149735419Y-113723057D01*
X149553990Y-113723057D01*
X149433038Y-113662580D01*
X149977323Y-113239247D02*
X149856371Y-113299723D01*
X149614466Y-113299723D01*
X149493514Y-113239247D01*
X149433038Y-113178771D01*
X149372561Y-113057819D01*
X149372561Y-112694961D01*
X149433038Y-112574009D01*
X149493514Y-112513533D01*
X149614466Y-112453057D01*
X149856371Y-112453057D01*
X149977323Y-112513533D01*
X150582085Y-113299723D02*
X150582085Y-112453057D01*
X150582085Y-112029723D02*
X150521609Y-112090200D01*
X150582085Y-112150676D01*
X150642561Y-112090200D01*
X150582085Y-112029723D01*
X150582085Y-112150676D01*
X151005419Y-112453057D02*
X151489228Y-112453057D01*
X151186847Y-112029723D02*
X151186847Y-113118295D01*
X151247323Y-113239247D01*
X151368276Y-113299723D01*
X151489228Y-113299723D01*
X152456847Y-113299723D02*
X152456847Y-112634485D01*
X152396371Y-112513533D01*
X152275419Y-112453057D01*
X152033514Y-112453057D01*
X151912561Y-112513533D01*
X152456847Y-113239247D02*
X152335895Y-113299723D01*
X152033514Y-113299723D01*
X151912561Y-113239247D01*
X151852085Y-113118295D01*
X151852085Y-112997342D01*
X151912561Y-112876390D01*
X152033514Y-112815914D01*
X152335895Y-112815914D01*
X152456847Y-112755438D01*
X153243038Y-113299723D02*
X153122085Y-113239247D01*
X153061609Y-113118295D01*
X153061609Y-112029723D01*
X155420180Y-113178771D02*
X155359704Y-113239247D01*
X155178276Y-113299723D01*
X155057323Y-113299723D01*
X154875895Y-113239247D01*
X154754942Y-113118295D01*
X154694466Y-112997342D01*
X154633990Y-112755438D01*
X154633990Y-112574009D01*
X154694466Y-112332104D01*
X154754942Y-112211152D01*
X154875895Y-112090200D01*
X155057323Y-112029723D01*
X155178276Y-112029723D01*
X155359704Y-112090200D01*
X155420180Y-112150676D01*
X156145895Y-113299723D02*
X156024942Y-113239247D01*
X155964466Y-113118295D01*
X155964466Y-112029723D01*
X156811133Y-113299723D02*
X156690180Y-113239247D01*
X156629704Y-113178771D01*
X156569228Y-113057819D01*
X156569228Y-112694961D01*
X156629704Y-112574009D01*
X156690180Y-112513533D01*
X156811133Y-112453057D01*
X156992561Y-112453057D01*
X157113514Y-112513533D01*
X157173990Y-112574009D01*
X157234466Y-112694961D01*
X157234466Y-113057819D01*
X157173990Y-113178771D01*
X157113514Y-113239247D01*
X156992561Y-113299723D01*
X156811133Y-113299723D01*
X158323038Y-113239247D02*
X158202085Y-113299723D01*
X157960180Y-113299723D01*
X157839228Y-113239247D01*
X157778752Y-113178771D01*
X157718276Y-113057819D01*
X157718276Y-112694961D01*
X157778752Y-112574009D01*
X157839228Y-112513533D01*
X157960180Y-112453057D01*
X158202085Y-112453057D01*
X158323038Y-112513533D01*
X158867323Y-113299723D02*
X158867323Y-112029723D01*
X158988276Y-112815914D02*
X159351133Y-113299723D01*
X159351133Y-112453057D02*
X158867323Y-112936866D01*
X160863038Y-113299723D02*
X160863038Y-112029723D01*
X161346847Y-112029723D01*
X161467799Y-112090200D01*
X161528276Y-112150676D01*
X161588752Y-112271628D01*
X161588752Y-112453057D01*
X161528276Y-112574009D01*
X161467799Y-112634485D01*
X161346847Y-112694961D01*
X160863038Y-112694961D01*
X162858752Y-113178771D02*
X162798276Y-113239247D01*
X162616847Y-113299723D01*
X162495895Y-113299723D01*
X162314466Y-113239247D01*
X162193514Y-113118295D01*
X162133038Y-112997342D01*
X162072561Y-112755438D01*
X162072561Y-112574009D01*
X162133038Y-112332104D01*
X162193514Y-112211152D01*
X162314466Y-112090200D01*
X162495895Y-112029723D01*
X162616847Y-112029723D01*
X162798276Y-112090200D01*
X162858752Y-112150676D01*
X163826371Y-112634485D02*
X164007799Y-112694961D01*
X164068276Y-112755438D01*
X164128752Y-112876390D01*
X164128752Y-113057819D01*
X164068276Y-113178771D01*
X164007799Y-113239247D01*
X163886847Y-113299723D01*
X163403038Y-113299723D01*
X163403038Y-112029723D01*
X163826371Y-112029723D01*
X163947323Y-112090200D01*
X164007799Y-112150676D01*
X164068276Y-112271628D01*
X164068276Y-112392580D01*
X164007799Y-112513533D01*
X163947323Y-112574009D01*
X163826371Y-112634485D01*
X163403038Y-112634485D01*
X165519704Y-112453057D02*
X165822085Y-113299723D01*
X166124466Y-112453057D01*
X167273514Y-113299723D02*
X166547800Y-113299723D01*
X166910657Y-113299723D02*
X166910657Y-112029723D01*
X166789704Y-112211152D01*
X166668752Y-112332104D01*
X166547800Y-112392580D01*
X167817800Y-113178771D02*
X167878276Y-113239247D01*
X167817800Y-113299723D01*
X167757323Y-113239247D01*
X167817800Y-113178771D01*
X167817800Y-113299723D01*
X168664466Y-112029723D02*
X168785419Y-112029723D01*
X168906371Y-112090200D01*
X168966847Y-112150676D01*
X169027323Y-112271628D01*
X169087800Y-112513533D01*
X169087800Y-112815914D01*
X169027323Y-113057819D01*
X168966847Y-113178771D01*
X168906371Y-113239247D01*
X168785419Y-113299723D01*
X168664466Y-113299723D01*
X168543514Y-113239247D01*
X168483038Y-113178771D01*
X168422561Y-113057819D01*
X168362085Y-112815914D01*
X168362085Y-112513533D01*
X168422561Y-112271628D01*
X168483038Y-112150676D01*
X168543514Y-112090200D01*
X168664466Y-112029723D01*
D10*
X136050495Y-45658066D02*
X136526685Y-45658066D01*
X135955257Y-45943780D02*
X136288590Y-44943780D01*
X136621923Y-45943780D01*
X136955257Y-45943780D02*
X136955257Y-44943780D01*
X137526685Y-45943780D01*
X137526685Y-44943780D01*
X138002876Y-45943780D02*
X138002876Y-44943780D01*
X138240971Y-44943780D01*
X138383828Y-44991400D01*
X138479066Y-45086638D01*
X138526685Y-45181876D01*
X138574304Y-45372352D01*
X138574304Y-45515209D01*
X138526685Y-45705685D01*
X138479066Y-45800923D01*
X138383828Y-45896161D01*
X138240971Y-45943780D01*
X138002876Y-45943780D01*
X67811685Y-44784971D02*
X67478352Y-44784971D01*
X67478352Y-45308780D02*
X67478352Y-44308780D01*
X67954542Y-44308780D01*
X68668828Y-44784971D02*
X68335495Y-44784971D01*
X68335495Y-45308780D02*
X68335495Y-44308780D01*
X68811685Y-44308780D01*
X122156695Y-45607266D02*
X122632885Y-45607266D01*
X122061457Y-45892980D02*
X122394790Y-44892980D01*
X122728123Y-45892980D01*
X123061457Y-45892980D02*
X123061457Y-44892980D01*
X123632885Y-45892980D01*
X123632885Y-44892980D01*
X124109076Y-45892980D02*
X124109076Y-44892980D01*
X124347171Y-44892980D01*
X124490028Y-44940600D01*
X124585266Y-45035838D01*
X124632885Y-45131076D01*
X124680504Y-45321552D01*
X124680504Y-45464409D01*
X124632885Y-45654885D01*
X124585266Y-45750123D01*
X124490028Y-45845361D01*
X124347171Y-45892980D01*
X124109076Y-45892980D01*
X66835495Y-66943266D02*
X67311685Y-66943266D01*
X66740257Y-67228980D02*
X67073590Y-66228980D01*
X67406923Y-67228980D01*
X67740257Y-67228980D02*
X67740257Y-66228980D01*
X68311685Y-67228980D01*
X68311685Y-66228980D01*
X68787876Y-67228980D02*
X68787876Y-66228980D01*
X69025971Y-66228980D01*
X69168828Y-66276600D01*
X69264066Y-66371838D01*
X69311685Y-66467076D01*
X69359304Y-66657552D01*
X69359304Y-66800409D01*
X69311685Y-66990885D01*
X69264066Y-67086123D01*
X69168828Y-67181361D01*
X69025971Y-67228980D01*
X68787876Y-67228980D01*
X49309495Y-89701666D02*
X49785685Y-89701666D01*
X49214257Y-89987380D02*
X49547590Y-88987380D01*
X49880923Y-89987380D01*
X50214257Y-89987380D02*
X50214257Y-88987380D01*
X50785685Y-89987380D01*
X50785685Y-88987380D01*
X51261876Y-89987380D02*
X51261876Y-88987380D01*
X51499971Y-88987380D01*
X51642828Y-89035000D01*
X51738066Y-89130238D01*
X51785685Y-89225476D01*
X51833304Y-89415952D01*
X51833304Y-89558809D01*
X51785685Y-89749285D01*
X51738066Y-89844523D01*
X51642828Y-89939761D01*
X51499971Y-89987380D01*
X51261876Y-89987380D01*
X152215885Y-71988371D02*
X151882552Y-71988371D01*
X151882552Y-72512180D02*
X151882552Y-71512180D01*
X152358742Y-71512180D01*
X153073028Y-71988371D02*
X152739695Y-71988371D01*
X152739695Y-72512180D02*
X152739695Y-71512180D01*
X153215885Y-71512180D01*
X41746657Y-109231180D02*
X42413323Y-110231180D01*
X42413323Y-109231180D02*
X41746657Y-110231180D01*
X42984752Y-109231180D02*
X43175228Y-109231180D01*
X43270466Y-109278800D01*
X43365704Y-109374038D01*
X43413323Y-109564514D01*
X43413323Y-109897847D01*
X43365704Y-110088323D01*
X43270466Y-110183561D01*
X43175228Y-110231180D01*
X42984752Y-110231180D01*
X42889514Y-110183561D01*
X42794276Y-110088323D01*
X42746657Y-109897847D01*
X42746657Y-109564514D01*
X42794276Y-109374038D01*
X42889514Y-109278800D01*
X42984752Y-109231180D01*
X44413323Y-110231180D02*
X44079990Y-109754990D01*
X43841895Y-110231180D02*
X43841895Y-109231180D01*
X44222847Y-109231180D01*
X44318085Y-109278800D01*
X44365704Y-109326419D01*
X44413323Y-109421657D01*
X44413323Y-109564514D01*
X44365704Y-109659752D01*
X44318085Y-109707371D01*
X44222847Y-109754990D01*
X43841895Y-109754990D01*
X42691085Y-44861171D02*
X42357752Y-44861171D01*
X42357752Y-45384980D02*
X42357752Y-44384980D01*
X42833942Y-44384980D01*
X43548228Y-44861171D02*
X43214895Y-44861171D01*
X43214895Y-45384980D02*
X43214895Y-44384980D01*
X43691085Y-44384980D01*
X197112095Y-45556466D02*
X197588285Y-45556466D01*
X197016857Y-45842180D02*
X197350190Y-44842180D01*
X197683523Y-45842180D01*
X198016857Y-45842180D02*
X198016857Y-44842180D01*
X198588285Y-45842180D01*
X198588285Y-44842180D01*
X199064476Y-45842180D02*
X199064476Y-44842180D01*
X199302571Y-44842180D01*
X199445428Y-44889800D01*
X199540666Y-44985038D01*
X199588285Y-45080276D01*
X199635904Y-45270752D01*
X199635904Y-45413609D01*
X199588285Y-45604085D01*
X199540666Y-45699323D01*
X199445428Y-45794561D01*
X199302571Y-45842180D01*
X199064476Y-45842180D01*
X123488485Y-71912171D02*
X123155152Y-71912171D01*
X123155152Y-72435980D02*
X123155152Y-71435980D01*
X123631342Y-71435980D01*
X124345628Y-71912171D02*
X124012295Y-71912171D01*
X124012295Y-72435980D02*
X124012295Y-71435980D01*
X124488485Y-71435980D01*
X131052961Y-107529380D02*
X131243438Y-107529380D01*
X131338676Y-107577000D01*
X131433914Y-107672238D01*
X131481533Y-107862714D01*
X131481533Y-108196047D01*
X131433914Y-108386523D01*
X131338676Y-108481761D01*
X131243438Y-108529380D01*
X131052961Y-108529380D01*
X130957723Y-108481761D01*
X130862485Y-108386523D01*
X130814866Y-108196047D01*
X130814866Y-107862714D01*
X130862485Y-107672238D01*
X130957723Y-107577000D01*
X131052961Y-107529380D01*
X132481533Y-108529380D02*
X132148200Y-108053190D01*
X131910104Y-108529380D02*
X131910104Y-107529380D01*
X132291057Y-107529380D01*
X132386295Y-107577000D01*
X132433914Y-107624619D01*
X132481533Y-107719857D01*
X132481533Y-107862714D01*
X132433914Y-107957952D01*
X132386295Y-108005571D01*
X132291057Y-108053190D01*
X131910104Y-108053190D01*
X233216485Y-71378771D02*
X232883152Y-71378771D01*
X232883152Y-71902580D02*
X232883152Y-70902580D01*
X233359342Y-70902580D01*
X234073628Y-71378771D02*
X233740295Y-71378771D01*
X233740295Y-71902580D02*
X233740295Y-70902580D01*
X234216485Y-70902580D01*
X174664761Y-44816780D02*
X174855238Y-44816780D01*
X174950476Y-44864400D01*
X175045714Y-44959638D01*
X175093333Y-45150114D01*
X175093333Y-45483447D01*
X175045714Y-45673923D01*
X174950476Y-45769161D01*
X174855238Y-45816780D01*
X174664761Y-45816780D01*
X174569523Y-45769161D01*
X174474285Y-45673923D01*
X174426666Y-45483447D01*
X174426666Y-45150114D01*
X174474285Y-44959638D01*
X174569523Y-44864400D01*
X174664761Y-44816780D01*
X176093333Y-45816780D02*
X175760000Y-45340590D01*
X175521904Y-45816780D02*
X175521904Y-44816780D01*
X175902857Y-44816780D01*
X175998095Y-44864400D01*
X176045714Y-44912019D01*
X176093333Y-45007257D01*
X176093333Y-45150114D01*
X176045714Y-45245352D01*
X175998095Y-45292971D01*
X175902857Y-45340590D01*
X175521904Y-45340590D01*
X41619657Y-66178180D02*
X42286323Y-67178180D01*
X42286323Y-66178180D02*
X41619657Y-67178180D01*
X42857752Y-66178180D02*
X43048228Y-66178180D01*
X43143466Y-66225800D01*
X43238704Y-66321038D01*
X43286323Y-66511514D01*
X43286323Y-66844847D01*
X43238704Y-67035323D01*
X43143466Y-67130561D01*
X43048228Y-67178180D01*
X42857752Y-67178180D01*
X42762514Y-67130561D01*
X42667276Y-67035323D01*
X42619657Y-66844847D01*
X42619657Y-66511514D01*
X42667276Y-66321038D01*
X42762514Y-66225800D01*
X42857752Y-66178180D01*
X44286323Y-67178180D02*
X43952990Y-66701990D01*
X43714895Y-67178180D02*
X43714895Y-66178180D01*
X44095847Y-66178180D01*
X44191085Y-66225800D01*
X44238704Y-66273419D01*
X44286323Y-66368657D01*
X44286323Y-66511514D01*
X44238704Y-66606752D01*
X44191085Y-66654371D01*
X44095847Y-66701990D01*
X43714895Y-66701990D01*
X86683885Y-107675371D02*
X86350552Y-107675371D01*
X86350552Y-108199180D02*
X86350552Y-107199180D01*
X86826742Y-107199180D01*
X87541028Y-107675371D02*
X87207695Y-107675371D01*
X87207695Y-108199180D02*
X87207695Y-107199180D01*
X87683885Y-107199180D01*
X104706895Y-107786466D02*
X105183085Y-107786466D01*
X104611657Y-108072180D02*
X104944990Y-107072180D01*
X105278323Y-108072180D01*
X105611657Y-108072180D02*
X105611657Y-107072180D01*
X106183085Y-108072180D01*
X106183085Y-107072180D01*
X106659276Y-108072180D02*
X106659276Y-107072180D01*
X106897371Y-107072180D01*
X107040228Y-107119800D01*
X107135466Y-107215038D01*
X107183085Y-107310276D01*
X107230704Y-107500752D01*
X107230704Y-107643609D01*
X107183085Y-107834085D01*
X107135466Y-107929323D01*
X107040228Y-108024561D01*
X106897371Y-108072180D01*
X106659276Y-108072180D01*
X95080295Y-45708866D02*
X95556485Y-45708866D01*
X94985057Y-45994580D02*
X95318390Y-44994580D01*
X95651723Y-45994580D01*
X95985057Y-45994580D02*
X95985057Y-44994580D01*
X96556485Y-45994580D01*
X96556485Y-44994580D01*
X97032676Y-45994580D02*
X97032676Y-44994580D01*
X97270771Y-44994580D01*
X97413628Y-45042200D01*
X97508866Y-45137438D01*
X97556485Y-45232676D01*
X97604104Y-45423152D01*
X97604104Y-45566009D01*
X97556485Y-45756485D01*
X97508866Y-45851723D01*
X97413628Y-45946961D01*
X97270771Y-45994580D01*
X97032676Y-45994580D01*
X197859685Y-71581971D02*
X197526352Y-71581971D01*
X197526352Y-72105780D02*
X197526352Y-71105780D01*
X198002542Y-71105780D01*
X198716828Y-71581971D02*
X198383495Y-71581971D01*
X198383495Y-72105780D02*
X198383495Y-71105780D01*
X198859685Y-71105780D01*
D11*
X42817142Y-129300514D02*
X43784761Y-129300514D01*
X43300952Y-129784323D02*
X43300952Y-128816704D01*
X44450000Y-129784323D02*
X44691904Y-129784323D01*
X44812857Y-129723847D01*
X44873333Y-129663371D01*
X44994285Y-129481942D01*
X45054761Y-129240038D01*
X45054761Y-128756228D01*
X44994285Y-128635276D01*
X44933809Y-128574800D01*
X44812857Y-128514323D01*
X44570952Y-128514323D01*
X44450000Y-128574800D01*
X44389523Y-128635276D01*
X44329047Y-128756228D01*
X44329047Y-129058609D01*
X44389523Y-129179561D01*
X44450000Y-129240038D01*
X44570952Y-129300514D01*
X44812857Y-129300514D01*
X44933809Y-129240038D01*
X44994285Y-129179561D01*
X45054761Y-129058609D01*
X45417619Y-128514323D02*
X45840952Y-129784323D01*
X46264285Y-128514323D01*
D10*
X105098885Y-95127771D02*
X104765552Y-95127771D01*
X104765552Y-95651580D02*
X104765552Y-94651580D01*
X105241742Y-94651580D01*
X105956028Y-95127771D02*
X105622695Y-95127771D01*
X105622695Y-95651580D02*
X105622695Y-94651580D01*
X106098885Y-94651580D01*
X109594685Y-71937571D02*
X109261352Y-71937571D01*
X109261352Y-72461380D02*
X109261352Y-71461380D01*
X109737542Y-71461380D01*
X110451828Y-71937571D02*
X110118495Y-71937571D01*
X110118495Y-72461380D02*
X110118495Y-71461380D01*
X110594685Y-71461380D01*
X209437361Y-44842180D02*
X209627838Y-44842180D01*
X209723076Y-44889800D01*
X209818314Y-44985038D01*
X209865933Y-45175514D01*
X209865933Y-45508847D01*
X209818314Y-45699323D01*
X209723076Y-45794561D01*
X209627838Y-45842180D01*
X209437361Y-45842180D01*
X209342123Y-45794561D01*
X209246885Y-45699323D01*
X209199266Y-45508847D01*
X209199266Y-45175514D01*
X209246885Y-44985038D01*
X209342123Y-44889800D01*
X209437361Y-44842180D01*
X210865933Y-45842180D02*
X210532600Y-45365990D01*
X210294504Y-45842180D02*
X210294504Y-44842180D01*
X210675457Y-44842180D01*
X210770695Y-44889800D01*
X210818314Y-44937419D01*
X210865933Y-45032657D01*
X210865933Y-45175514D01*
X210818314Y-45270752D01*
X210770695Y-45318371D01*
X210675457Y-45365990D01*
X210294504Y-45365990D01*
X162771295Y-72429666D02*
X163247485Y-72429666D01*
X162676057Y-72715380D02*
X163009390Y-71715380D01*
X163342723Y-72715380D01*
X163676057Y-72715380D02*
X163676057Y-71715380D01*
X164247485Y-72715380D01*
X164247485Y-71715380D01*
X164723676Y-72715380D02*
X164723676Y-71715380D01*
X164961771Y-71715380D01*
X165104628Y-71763000D01*
X165199866Y-71858238D01*
X165247485Y-71953476D01*
X165295104Y-72143952D01*
X165295104Y-72286809D01*
X165247485Y-72477285D01*
X165199866Y-72572523D01*
X165104628Y-72667761D01*
X164961771Y-72715380D01*
X164723676Y-72715380D01*
X55010085Y-44835771D02*
X54676752Y-44835771D01*
X54676752Y-45359580D02*
X54676752Y-44359580D01*
X55152942Y-44359580D01*
X55867228Y-44835771D02*
X55533895Y-44835771D01*
X55533895Y-45359580D02*
X55533895Y-44359580D01*
X56010085Y-44359580D01*
X174226695Y-72505866D02*
X174702885Y-72505866D01*
X174131457Y-72791580D02*
X174464790Y-71791580D01*
X174798123Y-72791580D01*
X175131457Y-72791580D02*
X175131457Y-71791580D01*
X175702885Y-72791580D01*
X175702885Y-71791580D01*
X176179076Y-72791580D02*
X176179076Y-71791580D01*
X176417171Y-71791580D01*
X176560028Y-71839200D01*
X176655266Y-71934438D01*
X176702885Y-72029676D01*
X176750504Y-72220152D01*
X176750504Y-72363009D01*
X176702885Y-72553485D01*
X176655266Y-72648723D01*
X176560028Y-72743961D01*
X176417171Y-72791580D01*
X176179076Y-72791580D01*
X108821695Y-45607266D02*
X109297885Y-45607266D01*
X108726457Y-45892980D02*
X109059790Y-44892980D01*
X109393123Y-45892980D01*
X109726457Y-45892980D02*
X109726457Y-44892980D01*
X110297885Y-45892980D01*
X110297885Y-44892980D01*
X110774076Y-45892980D02*
X110774076Y-44892980D01*
X111012171Y-44892980D01*
X111155028Y-44940600D01*
X111250266Y-45035838D01*
X111297885Y-45131076D01*
X111345504Y-45321552D01*
X111345504Y-45464409D01*
X111297885Y-45654885D01*
X111250266Y-45750123D01*
X111155028Y-45845361D01*
X111012171Y-45892980D01*
X110774076Y-45892980D01*
X130457723Y-96083380D02*
X130457723Y-95083380D01*
X131029152Y-96083380D01*
X131029152Y-95083380D01*
X131695819Y-95083380D02*
X131886295Y-95083380D01*
X131981533Y-95131000D01*
X132076771Y-95226238D01*
X132124390Y-95416714D01*
X132124390Y-95750047D01*
X132076771Y-95940523D01*
X131981533Y-96035761D01*
X131886295Y-96083380D01*
X131695819Y-96083380D01*
X131600580Y-96035761D01*
X131505342Y-95940523D01*
X131457723Y-95750047D01*
X131457723Y-95416714D01*
X131505342Y-95226238D01*
X131600580Y-95131000D01*
X131695819Y-95083380D01*
X132410104Y-95083380D02*
X132981533Y-95083380D01*
X132695819Y-96083380D02*
X132695819Y-95083380D01*
X55289485Y-66705171D02*
X54956152Y-66705171D01*
X54956152Y-67228980D02*
X54956152Y-66228980D01*
X55432342Y-66228980D01*
X56146628Y-66705171D02*
X55813295Y-66705171D01*
X55813295Y-67228980D02*
X55813295Y-66228980D01*
X56289485Y-66228980D01*
X185936095Y-45683466D02*
X186412285Y-45683466D01*
X185840857Y-45969180D02*
X186174190Y-44969180D01*
X186507523Y-45969180D01*
X186840857Y-45969180D02*
X186840857Y-44969180D01*
X187412285Y-45969180D01*
X187412285Y-44969180D01*
X187888476Y-45969180D02*
X187888476Y-44969180D01*
X188126571Y-44969180D01*
X188269428Y-45016800D01*
X188364666Y-45112038D01*
X188412285Y-45207276D01*
X188459904Y-45397752D01*
X188459904Y-45540609D01*
X188412285Y-45731085D01*
X188364666Y-45826323D01*
X188269428Y-45921561D01*
X188126571Y-45969180D01*
X187888476Y-45969180D01*
X82569085Y-123296371D02*
X82235752Y-123296371D01*
X82235752Y-123820180D02*
X82235752Y-122820180D01*
X82711942Y-122820180D01*
X83426228Y-123296371D02*
X83092895Y-123296371D01*
X83092895Y-123820180D02*
X83092895Y-122820180D01*
X83569085Y-122820180D01*
X81116657Y-71461380D02*
X81783323Y-72461380D01*
X81783323Y-71461380D02*
X81116657Y-72461380D01*
X82354752Y-71461380D02*
X82545228Y-71461380D01*
X82640466Y-71509000D01*
X82735704Y-71604238D01*
X82783323Y-71794714D01*
X82783323Y-72128047D01*
X82735704Y-72318523D01*
X82640466Y-72413761D01*
X82545228Y-72461380D01*
X82354752Y-72461380D01*
X82259514Y-72413761D01*
X82164276Y-72318523D01*
X82116657Y-72128047D01*
X82116657Y-71794714D01*
X82164276Y-71604238D01*
X82259514Y-71509000D01*
X82354752Y-71461380D01*
X83783323Y-72461380D02*
X83449990Y-71985190D01*
X83211895Y-72461380D02*
X83211895Y-71461380D01*
X83592847Y-71461380D01*
X83688085Y-71509000D01*
X83735704Y-71556619D01*
X83783323Y-71651857D01*
X83783323Y-71794714D01*
X83735704Y-71889952D01*
X83688085Y-71937571D01*
X83592847Y-71985190D01*
X83211895Y-71985190D01*
X221481685Y-71505771D02*
X221148352Y-71505771D01*
X221148352Y-72029580D02*
X221148352Y-71029580D01*
X221624542Y-71029580D01*
X222338828Y-71505771D02*
X222005495Y-71505771D01*
X222005495Y-72029580D02*
X222005495Y-71029580D01*
X222481685Y-71029580D01*
X85352095Y-95670666D02*
X85828285Y-95670666D01*
X85256857Y-95956380D02*
X85590190Y-94956380D01*
X85923523Y-95956380D01*
X86256857Y-95956380D02*
X86256857Y-94956380D01*
X86828285Y-95956380D01*
X86828285Y-94956380D01*
X87304476Y-95956380D02*
X87304476Y-94956380D01*
X87542571Y-94956380D01*
X87685428Y-95004000D01*
X87780666Y-95099238D01*
X87828285Y-95194476D01*
X87875904Y-95384952D01*
X87875904Y-95527809D01*
X87828285Y-95718285D01*
X87780666Y-95813523D01*
X87685428Y-95908761D01*
X87542571Y-95956380D01*
X87304476Y-95956380D01*
X162498257Y-44816780D02*
X163164923Y-45816780D01*
X163164923Y-44816780D02*
X162498257Y-45816780D01*
X163736352Y-44816780D02*
X163926828Y-44816780D01*
X164022066Y-44864400D01*
X164117304Y-44959638D01*
X164164923Y-45150114D01*
X164164923Y-45483447D01*
X164117304Y-45673923D01*
X164022066Y-45769161D01*
X163926828Y-45816780D01*
X163736352Y-45816780D01*
X163641114Y-45769161D01*
X163545876Y-45673923D01*
X163498257Y-45483447D01*
X163498257Y-45150114D01*
X163545876Y-44959638D01*
X163641114Y-44864400D01*
X163736352Y-44816780D01*
X165164923Y-45816780D02*
X164831590Y-45340590D01*
X164593495Y-45816780D02*
X164593495Y-44816780D01*
X164974447Y-44816780D01*
X165069685Y-44864400D01*
X165117304Y-44912019D01*
X165164923Y-45007257D01*
X165164923Y-45150114D01*
X165117304Y-45245352D01*
X165069685Y-45292971D01*
X164974447Y-45340590D01*
X164593495Y-45340590D01*
X96208885Y-71988371D02*
X95875552Y-71988371D01*
X95875552Y-72512180D02*
X95875552Y-71512180D01*
X96351742Y-71512180D01*
X97066028Y-71988371D02*
X96732695Y-71988371D01*
X96732695Y-72512180D02*
X96732695Y-71512180D01*
X97208885Y-71512180D01*
X54592695Y-109945466D02*
X55068885Y-109945466D01*
X54497457Y-110231180D02*
X54830790Y-109231180D01*
X55164123Y-110231180D01*
X55497457Y-110231180D02*
X55497457Y-109231180D01*
X56068885Y-110231180D01*
X56068885Y-109231180D01*
X56545076Y-110231180D02*
X56545076Y-109231180D01*
X56783171Y-109231180D01*
X56926028Y-109278800D01*
X57021266Y-109374038D01*
X57068885Y-109469276D01*
X57116504Y-109659752D01*
X57116504Y-109802609D01*
X57068885Y-109993085D01*
X57021266Y-110088323D01*
X56926028Y-110183561D01*
X56783171Y-110231180D01*
X56545076Y-110231180D01*
D11*
X173645285Y-121158000D02*
X173645285Y-122125619D01*
X173161476Y-121641809D02*
X174129095Y-121641809D01*
X173161476Y-123698000D02*
X174431476Y-123698000D01*
X173826714Y-123698000D02*
X173826714Y-124423714D01*
X173161476Y-124423714D02*
X174431476Y-124423714D01*
X173161476Y-125209904D02*
X173221952Y-125088952D01*
X173282428Y-125028476D01*
X173403380Y-124968000D01*
X173766238Y-124968000D01*
X173887190Y-125028476D01*
X173947666Y-125088952D01*
X174008142Y-125209904D01*
X174008142Y-125391333D01*
X173947666Y-125512285D01*
X173887190Y-125572761D01*
X173766238Y-125633238D01*
X173403380Y-125633238D01*
X173282428Y-125572761D01*
X173221952Y-125512285D01*
X173161476Y-125391333D01*
X173161476Y-125209904D01*
X174008142Y-126721809D02*
X173161476Y-126721809D01*
X174008142Y-126177523D02*
X173342904Y-126177523D01*
X173221952Y-126238000D01*
X173161476Y-126358952D01*
X173161476Y-126540380D01*
X173221952Y-126661333D01*
X173282428Y-126721809D01*
X173161476Y-127326571D02*
X174008142Y-127326571D01*
X173766238Y-127326571D02*
X173887190Y-127387047D01*
X173947666Y-127447523D01*
X174008142Y-127568476D01*
X174008142Y-127689428D01*
D10*
X186018561Y-71105780D02*
X186209038Y-71105780D01*
X186304276Y-71153400D01*
X186399514Y-71248638D01*
X186447133Y-71439114D01*
X186447133Y-71772447D01*
X186399514Y-71962923D01*
X186304276Y-72058161D01*
X186209038Y-72105780D01*
X186018561Y-72105780D01*
X185923323Y-72058161D01*
X185828085Y-71962923D01*
X185780466Y-71772447D01*
X185780466Y-71439114D01*
X185828085Y-71248638D01*
X185923323Y-71153400D01*
X186018561Y-71105780D01*
X187447133Y-72105780D02*
X187113800Y-71629590D01*
X186875704Y-72105780D02*
X186875704Y-71105780D01*
X187256657Y-71105780D01*
X187351895Y-71153400D01*
X187399514Y-71201019D01*
X187447133Y-71296257D01*
X187447133Y-71439114D01*
X187399514Y-71534352D01*
X187351895Y-71581971D01*
X187256657Y-71629590D01*
X186875704Y-71629590D01*
D11*
X153605571Y-137591547D02*
X153787000Y-137652023D01*
X154089380Y-137652023D01*
X154210333Y-137591547D01*
X154270809Y-137531071D01*
X154331285Y-137410119D01*
X154331285Y-137289166D01*
X154270809Y-137168214D01*
X154210333Y-137107738D01*
X154089380Y-137047261D01*
X153847476Y-136986785D01*
X153726523Y-136926309D01*
X153666047Y-136865833D01*
X153605571Y-136744880D01*
X153605571Y-136623928D01*
X153666047Y-136502976D01*
X153726523Y-136442500D01*
X153847476Y-136382023D01*
X154149857Y-136382023D01*
X154331285Y-136442500D01*
X154875571Y-136986785D02*
X155298904Y-136986785D01*
X155480333Y-137652023D02*
X154875571Y-137652023D01*
X154875571Y-136382023D01*
X155480333Y-136382023D01*
X155843190Y-136382023D02*
X156568904Y-136382023D01*
X156206047Y-137652023D02*
X156206047Y-136382023D01*
X157778428Y-136382023D02*
X158504142Y-136382023D01*
X158141285Y-137652023D02*
X158141285Y-136382023D01*
X158927476Y-137652023D02*
X158927476Y-136382023D01*
X159532238Y-137652023D02*
X159532238Y-136382023D01*
X159955571Y-137289166D01*
X160378904Y-136382023D01*
X160378904Y-137652023D01*
X160983666Y-136986785D02*
X161407000Y-136986785D01*
X161588428Y-137652023D02*
X160983666Y-137652023D01*
X160983666Y-136382023D01*
X161588428Y-136382023D01*
X173518285Y-131719561D02*
X173518285Y-132687180D01*
X173034476Y-132203371D02*
X174002095Y-132203371D01*
X173034476Y-134259561D02*
X174304476Y-134259561D01*
X173397333Y-134682895D01*
X174304476Y-135106228D01*
X173034476Y-135106228D01*
X173034476Y-135710990D02*
X173881142Y-135710990D01*
X174304476Y-135710990D02*
X174244000Y-135650514D01*
X174183523Y-135710990D01*
X174244000Y-135771466D01*
X174304476Y-135710990D01*
X174183523Y-135710990D01*
X173881142Y-136315752D02*
X173034476Y-136315752D01*
X173760190Y-136315752D02*
X173820666Y-136376228D01*
X173881142Y-136497180D01*
X173881142Y-136678609D01*
X173820666Y-136799561D01*
X173699714Y-136860038D01*
X173034476Y-136860038D01*
X38656380Y-128574800D02*
X38535428Y-128514323D01*
X38354000Y-128514323D01*
X38172571Y-128574800D01*
X38051619Y-128695752D01*
X37991142Y-128816704D01*
X37930666Y-129058609D01*
X37930666Y-129240038D01*
X37991142Y-129481942D01*
X38051619Y-129602895D01*
X38172571Y-129723847D01*
X38354000Y-129784323D01*
X38474952Y-129784323D01*
X38656380Y-129723847D01*
X38716857Y-129663371D01*
X38716857Y-129240038D01*
X38474952Y-129240038D01*
X39261142Y-129784323D02*
X39261142Y-128514323D01*
X39986857Y-129784323D01*
X39986857Y-128514323D01*
X40591619Y-129784323D02*
X40591619Y-128514323D01*
X40894000Y-128514323D01*
X41075428Y-128574800D01*
X41196380Y-128695752D01*
X41256857Y-128816704D01*
X41317333Y-129058609D01*
X41317333Y-129240038D01*
X41256857Y-129481942D01*
X41196380Y-129602895D01*
X41075428Y-129723847D01*
X40894000Y-129784323D01*
X40591619Y-129784323D01*
D10*
X209340485Y-71378771D02*
X209007152Y-71378771D01*
X209007152Y-71902580D02*
X209007152Y-70902580D01*
X209483342Y-70902580D01*
X210197628Y-71378771D02*
X209864295Y-71378771D01*
X209864295Y-71902580D02*
X209864295Y-70902580D01*
X210340485Y-70902580D01*
X114684323Y-123820180D02*
X114684323Y-122820180D01*
X115255752Y-123820180D01*
X115255752Y-122820180D01*
X115922419Y-122820180D02*
X116112895Y-122820180D01*
X116208133Y-122867800D01*
X116303371Y-122963038D01*
X116350990Y-123153514D01*
X116350990Y-123486847D01*
X116303371Y-123677323D01*
X116208133Y-123772561D01*
X116112895Y-123820180D01*
X115922419Y-123820180D01*
X115827180Y-123772561D01*
X115731942Y-123677323D01*
X115684323Y-123486847D01*
X115684323Y-123153514D01*
X115731942Y-122963038D01*
X115827180Y-122867800D01*
X115922419Y-122820180D01*
X116636704Y-122820180D02*
X117208133Y-122820180D01*
X116922419Y-123820180D02*
X116922419Y-122820180D01*
%TO.C,Q2*%
X64639361Y-118291719D02*
X64544123Y-118244100D01*
X64448885Y-118148861D01*
X64306028Y-118006004D01*
X64210790Y-117958385D01*
X64115552Y-117958385D01*
X64163171Y-118196480D02*
X64067933Y-118148861D01*
X63972695Y-118053623D01*
X63925076Y-117863147D01*
X63925076Y-117529814D01*
X63972695Y-117339338D01*
X64067933Y-117244100D01*
X64163171Y-117196480D01*
X64353647Y-117196480D01*
X64448885Y-117244100D01*
X64544123Y-117339338D01*
X64591742Y-117529814D01*
X64591742Y-117863147D01*
X64544123Y-118053623D01*
X64448885Y-118148861D01*
X64353647Y-118196480D01*
X64163171Y-118196480D01*
X64972695Y-117291719D02*
X65020314Y-117244100D01*
X65115552Y-117196480D01*
X65353647Y-117196480D01*
X65448885Y-117244100D01*
X65496504Y-117291719D01*
X65544123Y-117386957D01*
X65544123Y-117482195D01*
X65496504Y-117625052D01*
X64925076Y-118196480D01*
X65544123Y-118196480D01*
%TO.C,U5*%
X122176980Y-108594004D02*
X122986504Y-108594004D01*
X123081742Y-108546385D01*
X123129361Y-108498766D01*
X123176980Y-108403528D01*
X123176980Y-108213052D01*
X123129361Y-108117814D01*
X123081742Y-108070195D01*
X122986504Y-108022576D01*
X122176980Y-108022576D01*
X122176980Y-107070195D02*
X122176980Y-107546385D01*
X122653171Y-107594004D01*
X122605552Y-107546385D01*
X122557933Y-107451147D01*
X122557933Y-107213052D01*
X122605552Y-107117814D01*
X122653171Y-107070195D01*
X122748409Y-107022576D01*
X122986504Y-107022576D01*
X123081742Y-107070195D01*
X123129361Y-107117814D01*
X123176980Y-107213052D01*
X123176980Y-107451147D01*
X123129361Y-107546385D01*
X123081742Y-107594004D01*
%TO.C,U10*%
X204009304Y-118445080D02*
X204009304Y-119254604D01*
X204056923Y-119349842D01*
X204104542Y-119397461D01*
X204199780Y-119445080D01*
X204390257Y-119445080D01*
X204485495Y-119397461D01*
X204533114Y-119349842D01*
X204580733Y-119254604D01*
X204580733Y-118445080D01*
X205580733Y-119445080D02*
X205009304Y-119445080D01*
X205295019Y-119445080D02*
X205295019Y-118445080D01*
X205199780Y-118587938D01*
X205104542Y-118683176D01*
X205009304Y-118730795D01*
X206199780Y-118445080D02*
X206295019Y-118445080D01*
X206390257Y-118492700D01*
X206437876Y-118540319D01*
X206485495Y-118635557D01*
X206533114Y-118826033D01*
X206533114Y-119064128D01*
X206485495Y-119254604D01*
X206437876Y-119349842D01*
X206390257Y-119397461D01*
X206295019Y-119445080D01*
X206199780Y-119445080D01*
X206104542Y-119397461D01*
X206056923Y-119349842D01*
X206009304Y-119254604D01*
X205961685Y-119064128D01*
X205961685Y-118826033D01*
X206009304Y-118635557D01*
X206056923Y-118540319D01*
X206104542Y-118492700D01*
X206199780Y-118445080D01*
%TO.C,U51*%
X220717104Y-39828880D02*
X220717104Y-40638404D01*
X220764723Y-40733642D01*
X220812342Y-40781261D01*
X220907580Y-40828880D01*
X221098057Y-40828880D01*
X221193295Y-40781261D01*
X221240914Y-40733642D01*
X221288533Y-40638404D01*
X221288533Y-39828880D01*
X222240914Y-39828880D02*
X221764723Y-39828880D01*
X221717104Y-40305071D01*
X221764723Y-40257452D01*
X221859961Y-40209833D01*
X222098057Y-40209833D01*
X222193295Y-40257452D01*
X222240914Y-40305071D01*
X222288533Y-40400309D01*
X222288533Y-40638404D01*
X222240914Y-40733642D01*
X222193295Y-40781261D01*
X222098057Y-40828880D01*
X221859961Y-40828880D01*
X221764723Y-40781261D01*
X221717104Y-40733642D01*
X223240914Y-40828880D02*
X222669485Y-40828880D01*
X222955200Y-40828880D02*
X222955200Y-39828880D01*
X222859961Y-39971738D01*
X222764723Y-40066976D01*
X222669485Y-40114595D01*
%TO.C,U53*%
X232274104Y-39778080D02*
X232274104Y-40587604D01*
X232321723Y-40682842D01*
X232369342Y-40730461D01*
X232464580Y-40778080D01*
X232655057Y-40778080D01*
X232750295Y-40730461D01*
X232797914Y-40682842D01*
X232845533Y-40587604D01*
X232845533Y-39778080D01*
X233797914Y-39778080D02*
X233321723Y-39778080D01*
X233274104Y-40254271D01*
X233321723Y-40206652D01*
X233416961Y-40159033D01*
X233655057Y-40159033D01*
X233750295Y-40206652D01*
X233797914Y-40254271D01*
X233845533Y-40349509D01*
X233845533Y-40587604D01*
X233797914Y-40682842D01*
X233750295Y-40730461D01*
X233655057Y-40778080D01*
X233416961Y-40778080D01*
X233321723Y-40730461D01*
X233274104Y-40682842D01*
X234178866Y-39778080D02*
X234797914Y-39778080D01*
X234464580Y-40159033D01*
X234607438Y-40159033D01*
X234702676Y-40206652D01*
X234750295Y-40254271D01*
X234797914Y-40349509D01*
X234797914Y-40587604D01*
X234750295Y-40682842D01*
X234702676Y-40730461D01*
X234607438Y-40778080D01*
X234321723Y-40778080D01*
X234226485Y-40730461D01*
X234178866Y-40682842D01*
%TO.C,U33*%
X122307504Y-40062480D02*
X122307504Y-40872004D01*
X122355123Y-40967242D01*
X122402742Y-41014861D01*
X122497980Y-41062480D01*
X122688457Y-41062480D01*
X122783695Y-41014861D01*
X122831314Y-40967242D01*
X122878933Y-40872004D01*
X122878933Y-40062480D01*
X123259885Y-40062480D02*
X123878933Y-40062480D01*
X123545600Y-40443433D01*
X123688457Y-40443433D01*
X123783695Y-40491052D01*
X123831314Y-40538671D01*
X123878933Y-40633909D01*
X123878933Y-40872004D01*
X123831314Y-40967242D01*
X123783695Y-41014861D01*
X123688457Y-41062480D01*
X123402742Y-41062480D01*
X123307504Y-41014861D01*
X123259885Y-40967242D01*
X124212266Y-40062480D02*
X124831314Y-40062480D01*
X124497980Y-40443433D01*
X124640838Y-40443433D01*
X124736076Y-40491052D01*
X124783695Y-40538671D01*
X124831314Y-40633909D01*
X124831314Y-40872004D01*
X124783695Y-40967242D01*
X124736076Y-41014861D01*
X124640838Y-41062480D01*
X124355123Y-41062480D01*
X124259885Y-41014861D01*
X124212266Y-40967242D01*
%TO.C,R40*%
X223893980Y-104786557D02*
X223417790Y-105119890D01*
X223893980Y-105357985D02*
X222893980Y-105357985D01*
X222893980Y-104977033D01*
X222941600Y-104881795D01*
X222989219Y-104834176D01*
X223084457Y-104786557D01*
X223227314Y-104786557D01*
X223322552Y-104834176D01*
X223370171Y-104881795D01*
X223417790Y-104977033D01*
X223417790Y-105357985D01*
X223227314Y-103929414D02*
X223893980Y-103929414D01*
X222846361Y-104167509D02*
X223560647Y-104405604D01*
X223560647Y-103786557D01*
X222893980Y-103215128D02*
X222893980Y-103119890D01*
X222941600Y-103024652D01*
X222989219Y-102977033D01*
X223084457Y-102929414D01*
X223274933Y-102881795D01*
X223513028Y-102881795D01*
X223703504Y-102929414D01*
X223798742Y-102977033D01*
X223846361Y-103024652D01*
X223893980Y-103119890D01*
X223893980Y-103215128D01*
X223846361Y-103310366D01*
X223798742Y-103357985D01*
X223703504Y-103405604D01*
X223513028Y-103453223D01*
X223274933Y-103453223D01*
X223084457Y-103405604D01*
X222989219Y-103357985D01*
X222941600Y-103310366D01*
X222893980Y-103215128D01*
%TO.C,R30*%
X210685980Y-104786557D02*
X210209790Y-105119890D01*
X210685980Y-105357985D02*
X209685980Y-105357985D01*
X209685980Y-104977033D01*
X209733600Y-104881795D01*
X209781219Y-104834176D01*
X209876457Y-104786557D01*
X210019314Y-104786557D01*
X210114552Y-104834176D01*
X210162171Y-104881795D01*
X210209790Y-104977033D01*
X210209790Y-105357985D01*
X209685980Y-104453223D02*
X209685980Y-103834176D01*
X210066933Y-104167509D01*
X210066933Y-104024652D01*
X210114552Y-103929414D01*
X210162171Y-103881795D01*
X210257409Y-103834176D01*
X210495504Y-103834176D01*
X210590742Y-103881795D01*
X210638361Y-103929414D01*
X210685980Y-104024652D01*
X210685980Y-104310366D01*
X210638361Y-104405604D01*
X210590742Y-104453223D01*
X209685980Y-103215128D02*
X209685980Y-103119890D01*
X209733600Y-103024652D01*
X209781219Y-102977033D01*
X209876457Y-102929414D01*
X210066933Y-102881795D01*
X210305028Y-102881795D01*
X210495504Y-102929414D01*
X210590742Y-102977033D01*
X210638361Y-103024652D01*
X210685980Y-103119890D01*
X210685980Y-103215128D01*
X210638361Y-103310366D01*
X210590742Y-103357985D01*
X210495504Y-103405604D01*
X210305028Y-103453223D01*
X210066933Y-103453223D01*
X209876457Y-103405604D01*
X209781219Y-103357985D01*
X209733600Y-103310366D01*
X209685980Y-103215128D01*
%TO.C,U12*%
X235900980Y-92043095D02*
X236710504Y-92043095D01*
X236805742Y-91995476D01*
X236853361Y-91947857D01*
X236900980Y-91852619D01*
X236900980Y-91662142D01*
X236853361Y-91566904D01*
X236805742Y-91519285D01*
X236710504Y-91471666D01*
X235900980Y-91471666D01*
X236900980Y-90471666D02*
X236900980Y-91043095D01*
X236900980Y-90757380D02*
X235900980Y-90757380D01*
X236043838Y-90852619D01*
X236139076Y-90947857D01*
X236186695Y-91043095D01*
X235996219Y-90090714D02*
X235948600Y-90043095D01*
X235900980Y-89947857D01*
X235900980Y-89709761D01*
X235948600Y-89614523D01*
X235996219Y-89566904D01*
X236091457Y-89519285D01*
X236186695Y-89519285D01*
X236329552Y-89566904D01*
X236900980Y-90138333D01*
X236900980Y-89519285D01*
%TO.C,U21*%
X45265780Y-90909195D02*
X46075304Y-90909195D01*
X46170542Y-90861576D01*
X46218161Y-90813957D01*
X46265780Y-90718719D01*
X46265780Y-90528242D01*
X46218161Y-90433004D01*
X46170542Y-90385385D01*
X46075304Y-90337766D01*
X45265780Y-90337766D01*
X45361019Y-89909195D02*
X45313400Y-89861576D01*
X45265780Y-89766338D01*
X45265780Y-89528242D01*
X45313400Y-89433004D01*
X45361019Y-89385385D01*
X45456257Y-89337766D01*
X45551495Y-89337766D01*
X45694352Y-89385385D01*
X46265780Y-89956814D01*
X46265780Y-89337766D01*
X46265780Y-88385385D02*
X46265780Y-88956814D01*
X46265780Y-88671100D02*
X45265780Y-88671100D01*
X45408638Y-88766338D01*
X45503876Y-88861576D01*
X45551495Y-88956814D01*
%TO.C,U11*%
X49297904Y-133461680D02*
X49297904Y-134271204D01*
X49345523Y-134366442D01*
X49393142Y-134414061D01*
X49488380Y-134461680D01*
X49678857Y-134461680D01*
X49774095Y-134414061D01*
X49821714Y-134366442D01*
X49869333Y-134271204D01*
X49869333Y-133461680D01*
X50869333Y-134461680D02*
X50297904Y-134461680D01*
X50583619Y-134461680D02*
X50583619Y-133461680D01*
X50488380Y-133604538D01*
X50393142Y-133699776D01*
X50297904Y-133747395D01*
X51821714Y-134461680D02*
X51250285Y-134461680D01*
X51536000Y-134461680D02*
X51536000Y-133461680D01*
X51440761Y-133604538D01*
X51345523Y-133699776D01*
X51250285Y-133747395D01*
%TO.C,SW3*%
X164648361Y-135921633D02*
X164695980Y-135778776D01*
X164695980Y-135540680D01*
X164648361Y-135445442D01*
X164600742Y-135397823D01*
X164505504Y-135350204D01*
X164410266Y-135350204D01*
X164315028Y-135397823D01*
X164267409Y-135445442D01*
X164219790Y-135540680D01*
X164172171Y-135731157D01*
X164124552Y-135826395D01*
X164076933Y-135874014D01*
X163981695Y-135921633D01*
X163886457Y-135921633D01*
X163791219Y-135874014D01*
X163743600Y-135826395D01*
X163695980Y-135731157D01*
X163695980Y-135493061D01*
X163743600Y-135350204D01*
X163695980Y-135016871D02*
X164695980Y-134778776D01*
X163981695Y-134588300D01*
X164695980Y-134397823D01*
X163695980Y-134159728D01*
X163695980Y-133874014D02*
X163695980Y-133254966D01*
X164076933Y-133588300D01*
X164076933Y-133445442D01*
X164124552Y-133350204D01*
X164172171Y-133302585D01*
X164267409Y-133254966D01*
X164505504Y-133254966D01*
X164600742Y-133302585D01*
X164648361Y-133350204D01*
X164695980Y-133445442D01*
X164695980Y-133731157D01*
X164648361Y-133826395D01*
X164600742Y-133874014D01*
%TO.C,U25*%
X66808504Y-61779480D02*
X66808504Y-62589004D01*
X66856123Y-62684242D01*
X66903742Y-62731861D01*
X66998980Y-62779480D01*
X67189457Y-62779480D01*
X67284695Y-62731861D01*
X67332314Y-62684242D01*
X67379933Y-62589004D01*
X67379933Y-61779480D01*
X67808504Y-61874719D02*
X67856123Y-61827100D01*
X67951361Y-61779480D01*
X68189457Y-61779480D01*
X68284695Y-61827100D01*
X68332314Y-61874719D01*
X68379933Y-61969957D01*
X68379933Y-62065195D01*
X68332314Y-62208052D01*
X67760885Y-62779480D01*
X68379933Y-62779480D01*
X69284695Y-61779480D02*
X68808504Y-61779480D01*
X68760885Y-62255671D01*
X68808504Y-62208052D01*
X68903742Y-62160433D01*
X69141838Y-62160433D01*
X69237076Y-62208052D01*
X69284695Y-62255671D01*
X69332314Y-62350909D01*
X69332314Y-62589004D01*
X69284695Y-62684242D01*
X69237076Y-62731861D01*
X69141838Y-62779480D01*
X68903742Y-62779480D01*
X68808504Y-62731861D01*
X68760885Y-62684242D01*
%TO.C,U54*%
X104650980Y-124691195D02*
X105460504Y-124691195D01*
X105555742Y-124643576D01*
X105603361Y-124595957D01*
X105650980Y-124500719D01*
X105650980Y-124310242D01*
X105603361Y-124215004D01*
X105555742Y-124167385D01*
X105460504Y-124119766D01*
X104650980Y-124119766D01*
X104650980Y-123167385D02*
X104650980Y-123643576D01*
X105127171Y-123691195D01*
X105079552Y-123643576D01*
X105031933Y-123548338D01*
X105031933Y-123310242D01*
X105079552Y-123215004D01*
X105127171Y-123167385D01*
X105222409Y-123119766D01*
X105460504Y-123119766D01*
X105555742Y-123167385D01*
X105603361Y-123215004D01*
X105650980Y-123310242D01*
X105650980Y-123548338D01*
X105603361Y-123643576D01*
X105555742Y-123691195D01*
X104984314Y-122262623D02*
X105650980Y-122262623D01*
X104603361Y-122500719D02*
X105317647Y-122738814D01*
X105317647Y-122119766D01*
%TO.C,U18*%
X41789504Y-61779480D02*
X41789504Y-62589004D01*
X41837123Y-62684242D01*
X41884742Y-62731861D01*
X41979980Y-62779480D01*
X42170457Y-62779480D01*
X42265695Y-62731861D01*
X42313314Y-62684242D01*
X42360933Y-62589004D01*
X42360933Y-61779480D01*
X43360933Y-62779480D02*
X42789504Y-62779480D01*
X43075219Y-62779480D02*
X43075219Y-61779480D01*
X42979980Y-61922338D01*
X42884742Y-62017576D01*
X42789504Y-62065195D01*
X43932361Y-62208052D02*
X43837123Y-62160433D01*
X43789504Y-62112814D01*
X43741885Y-62017576D01*
X43741885Y-61969957D01*
X43789504Y-61874719D01*
X43837123Y-61827100D01*
X43932361Y-61779480D01*
X44122838Y-61779480D01*
X44218076Y-61827100D01*
X44265695Y-61874719D01*
X44313314Y-61969957D01*
X44313314Y-62017576D01*
X44265695Y-62112814D01*
X44218076Y-62160433D01*
X44122838Y-62208052D01*
X43932361Y-62208052D01*
X43837123Y-62255671D01*
X43789504Y-62303290D01*
X43741885Y-62398528D01*
X43741885Y-62589004D01*
X43789504Y-62684242D01*
X43837123Y-62731861D01*
X43932361Y-62779480D01*
X44122838Y-62779480D01*
X44218076Y-62731861D01*
X44265695Y-62684242D01*
X44313314Y-62589004D01*
X44313314Y-62398528D01*
X44265695Y-62303290D01*
X44218076Y-62255671D01*
X44122838Y-62208052D01*
%TO.C,R29*%
X190731980Y-104786557D02*
X190255790Y-105119890D01*
X190731980Y-105357985D02*
X189731980Y-105357985D01*
X189731980Y-104977033D01*
X189779600Y-104881795D01*
X189827219Y-104834176D01*
X189922457Y-104786557D01*
X190065314Y-104786557D01*
X190160552Y-104834176D01*
X190208171Y-104881795D01*
X190255790Y-104977033D01*
X190255790Y-105357985D01*
X189827219Y-104405604D02*
X189779600Y-104357985D01*
X189731980Y-104262747D01*
X189731980Y-104024652D01*
X189779600Y-103929414D01*
X189827219Y-103881795D01*
X189922457Y-103834176D01*
X190017695Y-103834176D01*
X190160552Y-103881795D01*
X190731980Y-104453223D01*
X190731980Y-103834176D01*
X190731980Y-103357985D02*
X190731980Y-103167509D01*
X190684361Y-103072271D01*
X190636742Y-103024652D01*
X190493885Y-102929414D01*
X190303409Y-102881795D01*
X189922457Y-102881795D01*
X189827219Y-102929414D01*
X189779600Y-102977033D01*
X189731980Y-103072271D01*
X189731980Y-103262747D01*
X189779600Y-103357985D01*
X189827219Y-103405604D01*
X189922457Y-103453223D01*
X190160552Y-103453223D01*
X190255790Y-103405604D01*
X190303409Y-103357985D01*
X190351028Y-103262747D01*
X190351028Y-103072271D01*
X190303409Y-102977033D01*
X190255790Y-102929414D01*
X190160552Y-102881795D01*
%TO.C,U35*%
X136175904Y-61957280D02*
X136175904Y-62766804D01*
X136223523Y-62862042D01*
X136271142Y-62909661D01*
X136366380Y-62957280D01*
X136556857Y-62957280D01*
X136652095Y-62909661D01*
X136699714Y-62862042D01*
X136747333Y-62766804D01*
X136747333Y-61957280D01*
X137128285Y-61957280D02*
X137747333Y-61957280D01*
X137414000Y-62338233D01*
X137556857Y-62338233D01*
X137652095Y-62385852D01*
X137699714Y-62433471D01*
X137747333Y-62528709D01*
X137747333Y-62766804D01*
X137699714Y-62862042D01*
X137652095Y-62909661D01*
X137556857Y-62957280D01*
X137271142Y-62957280D01*
X137175904Y-62909661D01*
X137128285Y-62862042D01*
X138652095Y-61957280D02*
X138175904Y-61957280D01*
X138128285Y-62433471D01*
X138175904Y-62385852D01*
X138271142Y-62338233D01*
X138509238Y-62338233D01*
X138604476Y-62385852D01*
X138652095Y-62433471D01*
X138699714Y-62528709D01*
X138699714Y-62766804D01*
X138652095Y-62862042D01*
X138604476Y-62909661D01*
X138509238Y-62957280D01*
X138271142Y-62957280D01*
X138175904Y-62909661D01*
X138128285Y-62862042D01*
%TO.C,R13*%
X147017980Y-128322357D02*
X146541790Y-128655690D01*
X147017980Y-128893785D02*
X146017980Y-128893785D01*
X146017980Y-128512833D01*
X146065600Y-128417595D01*
X146113219Y-128369976D01*
X146208457Y-128322357D01*
X146351314Y-128322357D01*
X146446552Y-128369976D01*
X146494171Y-128417595D01*
X146541790Y-128512833D01*
X146541790Y-128893785D01*
X147017980Y-127369976D02*
X147017980Y-127941404D01*
X147017980Y-127655690D02*
X146017980Y-127655690D01*
X146160838Y-127750928D01*
X146256076Y-127846166D01*
X146303695Y-127941404D01*
X146017980Y-127036642D02*
X146017980Y-126417595D01*
X146398933Y-126750928D01*
X146398933Y-126608071D01*
X146446552Y-126512833D01*
X146494171Y-126465214D01*
X146589409Y-126417595D01*
X146827504Y-126417595D01*
X146922742Y-126465214D01*
X146970361Y-126512833D01*
X147017980Y-126608071D01*
X147017980Y-126893785D01*
X146970361Y-126989023D01*
X146922742Y-127036642D01*
%TO.C,SW1*%
X164648361Y-125863233D02*
X164695980Y-125720376D01*
X164695980Y-125482280D01*
X164648361Y-125387042D01*
X164600742Y-125339423D01*
X164505504Y-125291804D01*
X164410266Y-125291804D01*
X164315028Y-125339423D01*
X164267409Y-125387042D01*
X164219790Y-125482280D01*
X164172171Y-125672757D01*
X164124552Y-125767995D01*
X164076933Y-125815614D01*
X163981695Y-125863233D01*
X163886457Y-125863233D01*
X163791219Y-125815614D01*
X163743600Y-125767995D01*
X163695980Y-125672757D01*
X163695980Y-125434661D01*
X163743600Y-125291804D01*
X163695980Y-124958471D02*
X164695980Y-124720376D01*
X163981695Y-124529900D01*
X164695980Y-124339423D01*
X163695980Y-124101328D01*
X164695980Y-123196566D02*
X164695980Y-123767995D01*
X164695980Y-123482280D02*
X163695980Y-123482280D01*
X163838838Y-123577519D01*
X163934076Y-123672757D01*
X163981695Y-123767995D01*
%TO.C,U41*%
X151390504Y-61804880D02*
X151390504Y-62614404D01*
X151438123Y-62709642D01*
X151485742Y-62757261D01*
X151580980Y-62804880D01*
X151771457Y-62804880D01*
X151866695Y-62757261D01*
X151914314Y-62709642D01*
X151961933Y-62614404D01*
X151961933Y-61804880D01*
X152866695Y-62138214D02*
X152866695Y-62804880D01*
X152628600Y-61757261D02*
X152390504Y-62471547D01*
X153009552Y-62471547D01*
X153914314Y-62804880D02*
X153342885Y-62804880D01*
X153628600Y-62804880D02*
X153628600Y-61804880D01*
X153533361Y-61947738D01*
X153438123Y-62042976D01*
X153342885Y-62090595D01*
%TO.C,U26*%
X95281904Y-61830280D02*
X95281904Y-62639804D01*
X95329523Y-62735042D01*
X95377142Y-62782661D01*
X95472380Y-62830280D01*
X95662857Y-62830280D01*
X95758095Y-62782661D01*
X95805714Y-62735042D01*
X95853333Y-62639804D01*
X95853333Y-61830280D01*
X96281904Y-61925519D02*
X96329523Y-61877900D01*
X96424761Y-61830280D01*
X96662857Y-61830280D01*
X96758095Y-61877900D01*
X96805714Y-61925519D01*
X96853333Y-62020757D01*
X96853333Y-62115995D01*
X96805714Y-62258852D01*
X96234285Y-62830280D01*
X96853333Y-62830280D01*
X97710476Y-61830280D02*
X97520000Y-61830280D01*
X97424761Y-61877900D01*
X97377142Y-61925519D01*
X97281904Y-62068376D01*
X97234285Y-62258852D01*
X97234285Y-62639804D01*
X97281904Y-62735042D01*
X97329523Y-62782661D01*
X97424761Y-62830280D01*
X97615238Y-62830280D01*
X97710476Y-62782661D01*
X97758095Y-62735042D01*
X97805714Y-62639804D01*
X97805714Y-62401709D01*
X97758095Y-62306471D01*
X97710476Y-62258852D01*
X97615238Y-62211233D01*
X97424761Y-62211233D01*
X97329523Y-62258852D01*
X97281904Y-62306471D01*
X97234285Y-62401709D01*
%TO.C,U38*%
X197237504Y-61809880D02*
X197237504Y-62619404D01*
X197285123Y-62714642D01*
X197332742Y-62762261D01*
X197427980Y-62809880D01*
X197618457Y-62809880D01*
X197713695Y-62762261D01*
X197761314Y-62714642D01*
X197808933Y-62619404D01*
X197808933Y-61809880D01*
X198189885Y-61809880D02*
X198808933Y-61809880D01*
X198475600Y-62190833D01*
X198618457Y-62190833D01*
X198713695Y-62238452D01*
X198761314Y-62286071D01*
X198808933Y-62381309D01*
X198808933Y-62619404D01*
X198761314Y-62714642D01*
X198713695Y-62762261D01*
X198618457Y-62809880D01*
X198332742Y-62809880D01*
X198237504Y-62762261D01*
X198189885Y-62714642D01*
X199380361Y-62238452D02*
X199285123Y-62190833D01*
X199237504Y-62143214D01*
X199189885Y-62047976D01*
X199189885Y-62000357D01*
X199237504Y-61905119D01*
X199285123Y-61857500D01*
X199380361Y-61809880D01*
X199570838Y-61809880D01*
X199666076Y-61857500D01*
X199713695Y-61905119D01*
X199761314Y-62000357D01*
X199761314Y-62047976D01*
X199713695Y-62143214D01*
X199666076Y-62190833D01*
X199570838Y-62238452D01*
X199380361Y-62238452D01*
X199285123Y-62286071D01*
X199237504Y-62333690D01*
X199189885Y-62428928D01*
X199189885Y-62619404D01*
X199237504Y-62714642D01*
X199285123Y-62762261D01*
X199380361Y-62809880D01*
X199570838Y-62809880D01*
X199666076Y-62762261D01*
X199713695Y-62714642D01*
X199761314Y-62619404D01*
X199761314Y-62428928D01*
X199713695Y-62333690D01*
X199666076Y-62286071D01*
X199570838Y-62238452D01*
%TO.C,R25*%
X180825980Y-104786557D02*
X180349790Y-105119890D01*
X180825980Y-105357985D02*
X179825980Y-105357985D01*
X179825980Y-104977033D01*
X179873600Y-104881795D01*
X179921219Y-104834176D01*
X180016457Y-104786557D01*
X180159314Y-104786557D01*
X180254552Y-104834176D01*
X180302171Y-104881795D01*
X180349790Y-104977033D01*
X180349790Y-105357985D01*
X179921219Y-104405604D02*
X179873600Y-104357985D01*
X179825980Y-104262747D01*
X179825980Y-104024652D01*
X179873600Y-103929414D01*
X179921219Y-103881795D01*
X180016457Y-103834176D01*
X180111695Y-103834176D01*
X180254552Y-103881795D01*
X180825980Y-104453223D01*
X180825980Y-103834176D01*
X179825980Y-102929414D02*
X179825980Y-103405604D01*
X180302171Y-103453223D01*
X180254552Y-103405604D01*
X180206933Y-103310366D01*
X180206933Y-103072271D01*
X180254552Y-102977033D01*
X180302171Y-102929414D01*
X180397409Y-102881795D01*
X180635504Y-102881795D01*
X180730742Y-102929414D01*
X180778361Y-102977033D01*
X180825980Y-103072271D01*
X180825980Y-103310366D01*
X180778361Y-103405604D01*
X180730742Y-103453223D01*
%TO.C,U14*%
X218360304Y-118419680D02*
X218360304Y-119229204D01*
X218407923Y-119324442D01*
X218455542Y-119372061D01*
X218550780Y-119419680D01*
X218741257Y-119419680D01*
X218836495Y-119372061D01*
X218884114Y-119324442D01*
X218931733Y-119229204D01*
X218931733Y-118419680D01*
X219931733Y-119419680D02*
X219360304Y-119419680D01*
X219646019Y-119419680D02*
X219646019Y-118419680D01*
X219550780Y-118562538D01*
X219455542Y-118657776D01*
X219360304Y-118705395D01*
X220788876Y-118753014D02*
X220788876Y-119419680D01*
X220550780Y-118372061D02*
X220312685Y-119086347D01*
X220931733Y-119086347D01*
%TO.C,R42*%
X238678980Y-104732057D02*
X238202790Y-105065390D01*
X238678980Y-105303485D02*
X237678980Y-105303485D01*
X237678980Y-104922533D01*
X237726600Y-104827295D01*
X237774219Y-104779676D01*
X237869457Y-104732057D01*
X238012314Y-104732057D01*
X238107552Y-104779676D01*
X238155171Y-104827295D01*
X238202790Y-104922533D01*
X238202790Y-105303485D01*
X238012314Y-103874914D02*
X238678980Y-103874914D01*
X237631361Y-104113009D02*
X238345647Y-104351104D01*
X238345647Y-103732057D01*
X237774219Y-103398723D02*
X237726600Y-103351104D01*
X237678980Y-103255866D01*
X237678980Y-103017771D01*
X237726600Y-102922533D01*
X237774219Y-102874914D01*
X237869457Y-102827295D01*
X237964695Y-102827295D01*
X238107552Y-102874914D01*
X238678980Y-103446342D01*
X238678980Y-102827295D01*
%TO.C,U8*%
X216234980Y-92612004D02*
X217044504Y-92612004D01*
X217139742Y-92564385D01*
X217187361Y-92516766D01*
X217234980Y-92421528D01*
X217234980Y-92231052D01*
X217187361Y-92135814D01*
X217139742Y-92088195D01*
X217044504Y-92040576D01*
X216234980Y-92040576D01*
X216663552Y-91421528D02*
X216615933Y-91516766D01*
X216568314Y-91564385D01*
X216473076Y-91612004D01*
X216425457Y-91612004D01*
X216330219Y-91564385D01*
X216282600Y-91516766D01*
X216234980Y-91421528D01*
X216234980Y-91231052D01*
X216282600Y-91135814D01*
X216330219Y-91088195D01*
X216425457Y-91040576D01*
X216473076Y-91040576D01*
X216568314Y-91088195D01*
X216615933Y-91135814D01*
X216663552Y-91231052D01*
X216663552Y-91421528D01*
X216711171Y-91516766D01*
X216758790Y-91564385D01*
X216854028Y-91612004D01*
X217044504Y-91612004D01*
X217139742Y-91564385D01*
X217187361Y-91516766D01*
X217234980Y-91421528D01*
X217234980Y-91231052D01*
X217187361Y-91135814D01*
X217139742Y-91088195D01*
X217044504Y-91040576D01*
X216854028Y-91040576D01*
X216758790Y-91088195D01*
X216711171Y-91135814D01*
X216663552Y-91231052D01*
%TO.C,U31*%
X75953980Y-108943195D02*
X76763504Y-108943195D01*
X76858742Y-108895576D01*
X76906361Y-108847957D01*
X76953980Y-108752719D01*
X76953980Y-108562242D01*
X76906361Y-108467004D01*
X76858742Y-108419385D01*
X76763504Y-108371766D01*
X75953980Y-108371766D01*
X75953980Y-107990814D02*
X75953980Y-107371766D01*
X76334933Y-107705100D01*
X76334933Y-107562242D01*
X76382552Y-107467004D01*
X76430171Y-107419385D01*
X76525409Y-107371766D01*
X76763504Y-107371766D01*
X76858742Y-107419385D01*
X76906361Y-107467004D01*
X76953980Y-107562242D01*
X76953980Y-107847957D01*
X76906361Y-107943195D01*
X76858742Y-107990814D01*
X76953980Y-106419385D02*
X76953980Y-106990814D01*
X76953980Y-106705100D02*
X75953980Y-106705100D01*
X76096838Y-106800338D01*
X76192076Y-106895576D01*
X76239695Y-106990814D01*
%TO.C,R3*%
X125146933Y-139237980D02*
X124813600Y-138761790D01*
X124575504Y-139237980D02*
X124575504Y-138237980D01*
X124956457Y-138237980D01*
X125051695Y-138285600D01*
X125099314Y-138333219D01*
X125146933Y-138428457D01*
X125146933Y-138571314D01*
X125099314Y-138666552D01*
X125051695Y-138714171D01*
X124956457Y-138761790D01*
X124575504Y-138761790D01*
X125480266Y-138237980D02*
X126099314Y-138237980D01*
X125765980Y-138618933D01*
X125908838Y-138618933D01*
X126004076Y-138666552D01*
X126051695Y-138714171D01*
X126099314Y-138809409D01*
X126099314Y-139047504D01*
X126051695Y-139142742D01*
X126004076Y-139190361D01*
X125908838Y-139237980D01*
X125623123Y-139237980D01*
X125527885Y-139190361D01*
X125480266Y-139142742D01*
%TO.C,U50*%
X174311304Y-40006680D02*
X174311304Y-40816204D01*
X174358923Y-40911442D01*
X174406542Y-40959061D01*
X174501780Y-41006680D01*
X174692257Y-41006680D01*
X174787495Y-40959061D01*
X174835114Y-40911442D01*
X174882733Y-40816204D01*
X174882733Y-40006680D01*
X175835114Y-40006680D02*
X175358923Y-40006680D01*
X175311304Y-40482871D01*
X175358923Y-40435252D01*
X175454161Y-40387633D01*
X175692257Y-40387633D01*
X175787495Y-40435252D01*
X175835114Y-40482871D01*
X175882733Y-40578109D01*
X175882733Y-40816204D01*
X175835114Y-40911442D01*
X175787495Y-40959061D01*
X175692257Y-41006680D01*
X175454161Y-41006680D01*
X175358923Y-40959061D01*
X175311304Y-40911442D01*
X176501780Y-40006680D02*
X176597019Y-40006680D01*
X176692257Y-40054300D01*
X176739876Y-40101919D01*
X176787495Y-40197157D01*
X176835114Y-40387633D01*
X176835114Y-40625728D01*
X176787495Y-40816204D01*
X176739876Y-40911442D01*
X176692257Y-40959061D01*
X176597019Y-41006680D01*
X176501780Y-41006680D01*
X176406542Y-40959061D01*
X176358923Y-40911442D01*
X176311304Y-40816204D01*
X176263685Y-40625728D01*
X176263685Y-40387633D01*
X176311304Y-40197157D01*
X176358923Y-40101919D01*
X176406542Y-40054300D01*
X176501780Y-40006680D01*
%TO.C,Q1*%
X62861361Y-134170719D02*
X62766123Y-134123100D01*
X62670885Y-134027861D01*
X62528028Y-133885004D01*
X62432790Y-133837385D01*
X62337552Y-133837385D01*
X62385171Y-134075480D02*
X62289933Y-134027861D01*
X62194695Y-133932623D01*
X62147076Y-133742147D01*
X62147076Y-133408814D01*
X62194695Y-133218338D01*
X62289933Y-133123100D01*
X62385171Y-133075480D01*
X62575647Y-133075480D01*
X62670885Y-133123100D01*
X62766123Y-133218338D01*
X62813742Y-133408814D01*
X62813742Y-133742147D01*
X62766123Y-133932623D01*
X62670885Y-134027861D01*
X62575647Y-134075480D01*
X62385171Y-134075480D01*
X63766123Y-134075480D02*
X63194695Y-134075480D01*
X63480409Y-134075480D02*
X63480409Y-133075480D01*
X63385171Y-133218338D01*
X63289933Y-133313576D01*
X63194695Y-133361195D01*
%TO.C,U17*%
X41789504Y-40062480D02*
X41789504Y-40872004D01*
X41837123Y-40967242D01*
X41884742Y-41014861D01*
X41979980Y-41062480D01*
X42170457Y-41062480D01*
X42265695Y-41014861D01*
X42313314Y-40967242D01*
X42360933Y-40872004D01*
X42360933Y-40062480D01*
X43360933Y-41062480D02*
X42789504Y-41062480D01*
X43075219Y-41062480D02*
X43075219Y-40062480D01*
X42979980Y-40205338D01*
X42884742Y-40300576D01*
X42789504Y-40348195D01*
X43694266Y-40062480D02*
X44360933Y-40062480D01*
X43932361Y-41062480D01*
%TO.C,U6*%
X191088980Y-92485004D02*
X191898504Y-92485004D01*
X191993742Y-92437385D01*
X192041361Y-92389766D01*
X192088980Y-92294528D01*
X192088980Y-92104052D01*
X192041361Y-92008814D01*
X191993742Y-91961195D01*
X191898504Y-91913576D01*
X191088980Y-91913576D01*
X191088980Y-91008814D02*
X191088980Y-91199290D01*
X191136600Y-91294528D01*
X191184219Y-91342147D01*
X191327076Y-91437385D01*
X191517552Y-91485004D01*
X191898504Y-91485004D01*
X191993742Y-91437385D01*
X192041361Y-91389766D01*
X192088980Y-91294528D01*
X192088980Y-91104052D01*
X192041361Y-91008814D01*
X191993742Y-90961195D01*
X191898504Y-90913576D01*
X191660409Y-90913576D01*
X191565171Y-90961195D01*
X191517552Y-91008814D01*
X191469933Y-91104052D01*
X191469933Y-91294528D01*
X191517552Y-91389766D01*
X191565171Y-91437385D01*
X191660409Y-91485004D01*
%TO.C,R20*%
X151107980Y-104786557D02*
X150631790Y-105119890D01*
X151107980Y-105357985D02*
X150107980Y-105357985D01*
X150107980Y-104977033D01*
X150155600Y-104881795D01*
X150203219Y-104834176D01*
X150298457Y-104786557D01*
X150441314Y-104786557D01*
X150536552Y-104834176D01*
X150584171Y-104881795D01*
X150631790Y-104977033D01*
X150631790Y-105357985D01*
X150203219Y-104405604D02*
X150155600Y-104357985D01*
X150107980Y-104262747D01*
X150107980Y-104024652D01*
X150155600Y-103929414D01*
X150203219Y-103881795D01*
X150298457Y-103834176D01*
X150393695Y-103834176D01*
X150536552Y-103881795D01*
X151107980Y-104453223D01*
X151107980Y-103834176D01*
X150107980Y-103215128D02*
X150107980Y-103119890D01*
X150155600Y-103024652D01*
X150203219Y-102977033D01*
X150298457Y-102929414D01*
X150488933Y-102881795D01*
X150727028Y-102881795D01*
X150917504Y-102929414D01*
X151012742Y-102977033D01*
X151060361Y-103024652D01*
X151107980Y-103119890D01*
X151107980Y-103215128D01*
X151060361Y-103310366D01*
X151012742Y-103357985D01*
X150917504Y-103405604D01*
X150727028Y-103453223D01*
X150488933Y-103453223D01*
X150298457Y-103405604D01*
X150203219Y-103357985D01*
X150155600Y-103310366D01*
X150107980Y-103215128D01*
%TO.C,U47*%
X162820504Y-61779480D02*
X162820504Y-62589004D01*
X162868123Y-62684242D01*
X162915742Y-62731861D01*
X163010980Y-62779480D01*
X163201457Y-62779480D01*
X163296695Y-62731861D01*
X163344314Y-62684242D01*
X163391933Y-62589004D01*
X163391933Y-61779480D01*
X164296695Y-62112814D02*
X164296695Y-62779480D01*
X164058600Y-61731861D02*
X163820504Y-62446147D01*
X164439552Y-62446147D01*
X164725266Y-61779480D02*
X165391933Y-61779480D01*
X164963361Y-62779480D01*
%TO.C,D2*%
X236360904Y-140679480D02*
X236360904Y-139679480D01*
X236599000Y-139679480D01*
X236741857Y-139727100D01*
X236837095Y-139822338D01*
X236884714Y-139917576D01*
X236932333Y-140108052D01*
X236932333Y-140250909D01*
X236884714Y-140441385D01*
X236837095Y-140536623D01*
X236741857Y-140631861D01*
X236599000Y-140679480D01*
X236360904Y-140679480D01*
X237313285Y-139774719D02*
X237360904Y-139727100D01*
X237456142Y-139679480D01*
X237694238Y-139679480D01*
X237789476Y-139727100D01*
X237837095Y-139774719D01*
X237884714Y-139869957D01*
X237884714Y-139965195D01*
X237837095Y-140108052D01*
X237265666Y-140679480D01*
X237884714Y-140679480D01*
%TO.C,R14*%
X67520742Y-124339480D02*
X67187409Y-123863290D01*
X66949314Y-124339480D02*
X66949314Y-123339480D01*
X67330266Y-123339480D01*
X67425504Y-123387100D01*
X67473123Y-123434719D01*
X67520742Y-123529957D01*
X67520742Y-123672814D01*
X67473123Y-123768052D01*
X67425504Y-123815671D01*
X67330266Y-123863290D01*
X66949314Y-123863290D01*
X68473123Y-124339480D02*
X67901695Y-124339480D01*
X68187409Y-124339480D02*
X68187409Y-123339480D01*
X68092171Y-123482338D01*
X67996933Y-123577576D01*
X67901695Y-123625195D01*
X69330266Y-123672814D02*
X69330266Y-124339480D01*
X69092171Y-123291861D02*
X68854076Y-124006147D01*
X69473123Y-124006147D01*
%TO.C,SW2*%
X156238266Y-126221861D02*
X156381123Y-126269480D01*
X156619219Y-126269480D01*
X156714457Y-126221861D01*
X156762076Y-126174242D01*
X156809695Y-126079004D01*
X156809695Y-125983766D01*
X156762076Y-125888528D01*
X156714457Y-125840909D01*
X156619219Y-125793290D01*
X156428742Y-125745671D01*
X156333504Y-125698052D01*
X156285885Y-125650433D01*
X156238266Y-125555195D01*
X156238266Y-125459957D01*
X156285885Y-125364719D01*
X156333504Y-125317100D01*
X156428742Y-125269480D01*
X156666838Y-125269480D01*
X156809695Y-125317100D01*
X157143028Y-125269480D02*
X157381123Y-126269480D01*
X157571600Y-125555195D01*
X157762076Y-126269480D01*
X158000171Y-125269480D01*
X158333504Y-125364719D02*
X158381123Y-125317100D01*
X158476361Y-125269480D01*
X158714457Y-125269480D01*
X158809695Y-125317100D01*
X158857314Y-125364719D01*
X158904933Y-125459957D01*
X158904933Y-125555195D01*
X158857314Y-125698052D01*
X158285885Y-126269480D01*
X158904933Y-126269480D01*
%TO.C,U4*%
X100205980Y-108467004D02*
X101015504Y-108467004D01*
X101110742Y-108419385D01*
X101158361Y-108371766D01*
X101205980Y-108276528D01*
X101205980Y-108086052D01*
X101158361Y-107990814D01*
X101110742Y-107943195D01*
X101015504Y-107895576D01*
X100205980Y-107895576D01*
X100539314Y-106990814D02*
X101205980Y-106990814D01*
X100158361Y-107228909D02*
X100872647Y-107467004D01*
X100872647Y-106847957D01*
%TO.C,R41*%
X220591980Y-104786557D02*
X220115790Y-105119890D01*
X220591980Y-105357985D02*
X219591980Y-105357985D01*
X219591980Y-104977033D01*
X219639600Y-104881795D01*
X219687219Y-104834176D01*
X219782457Y-104786557D01*
X219925314Y-104786557D01*
X220020552Y-104834176D01*
X220068171Y-104881795D01*
X220115790Y-104977033D01*
X220115790Y-105357985D01*
X219925314Y-103929414D02*
X220591980Y-103929414D01*
X219544361Y-104167509D02*
X220258647Y-104405604D01*
X220258647Y-103786557D01*
X220591980Y-102881795D02*
X220591980Y-103453223D01*
X220591980Y-103167509D02*
X219591980Y-103167509D01*
X219734838Y-103262747D01*
X219830076Y-103357985D01*
X219877695Y-103453223D01*
%TO.C,R12*%
X78655942Y-132532380D02*
X78322609Y-132056190D01*
X78084514Y-132532380D02*
X78084514Y-131532380D01*
X78465466Y-131532380D01*
X78560704Y-131580000D01*
X78608323Y-131627619D01*
X78655942Y-131722857D01*
X78655942Y-131865714D01*
X78608323Y-131960952D01*
X78560704Y-132008571D01*
X78465466Y-132056190D01*
X78084514Y-132056190D01*
X79608323Y-132532380D02*
X79036895Y-132532380D01*
X79322609Y-132532380D02*
X79322609Y-131532380D01*
X79227371Y-131675238D01*
X79132133Y-131770476D01*
X79036895Y-131818095D01*
X79989276Y-131627619D02*
X80036895Y-131580000D01*
X80132133Y-131532380D01*
X80370228Y-131532380D01*
X80465466Y-131580000D01*
X80513085Y-131627619D01*
X80560704Y-131722857D01*
X80560704Y-131818095D01*
X80513085Y-131960952D01*
X79941657Y-132532380D01*
X80560704Y-132532380D01*
%TO.C,U29*%
X136150504Y-40062480D02*
X136150504Y-40872004D01*
X136198123Y-40967242D01*
X136245742Y-41014861D01*
X136340980Y-41062480D01*
X136531457Y-41062480D01*
X136626695Y-41014861D01*
X136674314Y-40967242D01*
X136721933Y-40872004D01*
X136721933Y-40062480D01*
X137150504Y-40157719D02*
X137198123Y-40110100D01*
X137293361Y-40062480D01*
X137531457Y-40062480D01*
X137626695Y-40110100D01*
X137674314Y-40157719D01*
X137721933Y-40252957D01*
X137721933Y-40348195D01*
X137674314Y-40491052D01*
X137102885Y-41062480D01*
X137721933Y-41062480D01*
X138198123Y-41062480D02*
X138388600Y-41062480D01*
X138483838Y-41014861D01*
X138531457Y-40967242D01*
X138626695Y-40824385D01*
X138674314Y-40633909D01*
X138674314Y-40252957D01*
X138626695Y-40157719D01*
X138579076Y-40110100D01*
X138483838Y-40062480D01*
X138293361Y-40062480D01*
X138198123Y-40110100D01*
X138150504Y-40157719D01*
X138102885Y-40252957D01*
X138102885Y-40491052D01*
X138150504Y-40586290D01*
X138198123Y-40633909D01*
X138293361Y-40681528D01*
X138483838Y-40681528D01*
X138579076Y-40633909D01*
X138626695Y-40586290D01*
X138674314Y-40491052D01*
%TO.C,R19*%
X154409980Y-104786557D02*
X153933790Y-105119890D01*
X154409980Y-105357985D02*
X153409980Y-105357985D01*
X153409980Y-104977033D01*
X153457600Y-104881795D01*
X153505219Y-104834176D01*
X153600457Y-104786557D01*
X153743314Y-104786557D01*
X153838552Y-104834176D01*
X153886171Y-104881795D01*
X153933790Y-104977033D01*
X153933790Y-105357985D01*
X154409980Y-103834176D02*
X154409980Y-104405604D01*
X154409980Y-104119890D02*
X153409980Y-104119890D01*
X153552838Y-104215128D01*
X153648076Y-104310366D01*
X153695695Y-104405604D01*
X154409980Y-103357985D02*
X154409980Y-103167509D01*
X154362361Y-103072271D01*
X154314742Y-103024652D01*
X154171885Y-102929414D01*
X153981409Y-102881795D01*
X153600457Y-102881795D01*
X153505219Y-102929414D01*
X153457600Y-102977033D01*
X153409980Y-103072271D01*
X153409980Y-103262747D01*
X153457600Y-103357985D01*
X153505219Y-103405604D01*
X153600457Y-103453223D01*
X153838552Y-103453223D01*
X153933790Y-103405604D01*
X153981409Y-103357985D01*
X154029028Y-103262747D01*
X154029028Y-103072271D01*
X153981409Y-102977033D01*
X153933790Y-102929414D01*
X153838552Y-102881795D01*
%TO.C,R1*%
X125512533Y-135961380D02*
X125179200Y-135485190D01*
X124941104Y-135961380D02*
X124941104Y-134961380D01*
X125322057Y-134961380D01*
X125417295Y-135009000D01*
X125464914Y-135056619D01*
X125512533Y-135151857D01*
X125512533Y-135294714D01*
X125464914Y-135389952D01*
X125417295Y-135437571D01*
X125322057Y-135485190D01*
X124941104Y-135485190D01*
X126464914Y-135961380D02*
X125893485Y-135961380D01*
X126179200Y-135961380D02*
X126179200Y-134961380D01*
X126083961Y-135104238D01*
X125988723Y-135199476D01*
X125893485Y-135247095D01*
%TO.C,R37*%
X233799980Y-104786557D02*
X233323790Y-105119890D01*
X233799980Y-105357985D02*
X232799980Y-105357985D01*
X232799980Y-104977033D01*
X232847600Y-104881795D01*
X232895219Y-104834176D01*
X232990457Y-104786557D01*
X233133314Y-104786557D01*
X233228552Y-104834176D01*
X233276171Y-104881795D01*
X233323790Y-104977033D01*
X233323790Y-105357985D01*
X232799980Y-104453223D02*
X232799980Y-103834176D01*
X233180933Y-104167509D01*
X233180933Y-104024652D01*
X233228552Y-103929414D01*
X233276171Y-103881795D01*
X233371409Y-103834176D01*
X233609504Y-103834176D01*
X233704742Y-103881795D01*
X233752361Y-103929414D01*
X233799980Y-104024652D01*
X233799980Y-104310366D01*
X233752361Y-104405604D01*
X233704742Y-104453223D01*
X232799980Y-103500842D02*
X232799980Y-102834176D01*
X233799980Y-103262747D01*
%TO.C,C4*%
X140894933Y-137597842D02*
X140847314Y-137645461D01*
X140704457Y-137693080D01*
X140609219Y-137693080D01*
X140466361Y-137645461D01*
X140371123Y-137550223D01*
X140323504Y-137454985D01*
X140275885Y-137264509D01*
X140275885Y-137121652D01*
X140323504Y-136931176D01*
X140371123Y-136835938D01*
X140466361Y-136740700D01*
X140609219Y-136693080D01*
X140704457Y-136693080D01*
X140847314Y-136740700D01*
X140894933Y-136788319D01*
X141752076Y-137026414D02*
X141752076Y-137693080D01*
X141513980Y-136645461D02*
X141275885Y-137359747D01*
X141894933Y-137359747D01*
%TO.C,C6*%
X37974133Y-127350842D02*
X37926514Y-127398461D01*
X37783657Y-127446080D01*
X37688419Y-127446080D01*
X37545561Y-127398461D01*
X37450323Y-127303223D01*
X37402704Y-127207985D01*
X37355085Y-127017509D01*
X37355085Y-126874652D01*
X37402704Y-126684176D01*
X37450323Y-126588938D01*
X37545561Y-126493700D01*
X37688419Y-126446080D01*
X37783657Y-126446080D01*
X37926514Y-126493700D01*
X37974133Y-126541319D01*
X38831276Y-126446080D02*
X38640800Y-126446080D01*
X38545561Y-126493700D01*
X38497942Y-126541319D01*
X38402704Y-126684176D01*
X38355085Y-126874652D01*
X38355085Y-127255604D01*
X38402704Y-127350842D01*
X38450323Y-127398461D01*
X38545561Y-127446080D01*
X38736038Y-127446080D01*
X38831276Y-127398461D01*
X38878895Y-127350842D01*
X38926514Y-127255604D01*
X38926514Y-127017509D01*
X38878895Y-126922271D01*
X38831276Y-126874652D01*
X38736038Y-126827033D01*
X38545561Y-126827033D01*
X38450323Y-126874652D01*
X38402704Y-126922271D01*
X38355085Y-127017509D01*
%TO.C,U46*%
X232279504Y-61809880D02*
X232279504Y-62619404D01*
X232327123Y-62714642D01*
X232374742Y-62762261D01*
X232469980Y-62809880D01*
X232660457Y-62809880D01*
X232755695Y-62762261D01*
X232803314Y-62714642D01*
X232850933Y-62619404D01*
X232850933Y-61809880D01*
X233755695Y-62143214D02*
X233755695Y-62809880D01*
X233517600Y-61762261D02*
X233279504Y-62476547D01*
X233898552Y-62476547D01*
X234708076Y-61809880D02*
X234517600Y-61809880D01*
X234422361Y-61857500D01*
X234374742Y-61905119D01*
X234279504Y-62047976D01*
X234231885Y-62238452D01*
X234231885Y-62619404D01*
X234279504Y-62714642D01*
X234327123Y-62762261D01*
X234422361Y-62809880D01*
X234612838Y-62809880D01*
X234708076Y-62762261D01*
X234755695Y-62714642D01*
X234803314Y-62619404D01*
X234803314Y-62381309D01*
X234755695Y-62286071D01*
X234708076Y-62238452D01*
X234612838Y-62190833D01*
X234422361Y-62190833D01*
X234327123Y-62238452D01*
X234279504Y-62286071D01*
X234231885Y-62381309D01*
%TO.C,U39*%
X162795104Y-40037080D02*
X162795104Y-40846604D01*
X162842723Y-40941842D01*
X162890342Y-40989461D01*
X162985580Y-41037080D01*
X163176057Y-41037080D01*
X163271295Y-40989461D01*
X163318914Y-40941842D01*
X163366533Y-40846604D01*
X163366533Y-40037080D01*
X163747485Y-40037080D02*
X164366533Y-40037080D01*
X164033200Y-40418033D01*
X164176057Y-40418033D01*
X164271295Y-40465652D01*
X164318914Y-40513271D01*
X164366533Y-40608509D01*
X164366533Y-40846604D01*
X164318914Y-40941842D01*
X164271295Y-40989461D01*
X164176057Y-41037080D01*
X163890342Y-41037080D01*
X163795104Y-40989461D01*
X163747485Y-40941842D01*
X164842723Y-41037080D02*
X165033200Y-41037080D01*
X165128438Y-40989461D01*
X165176057Y-40941842D01*
X165271295Y-40798985D01*
X165318914Y-40608509D01*
X165318914Y-40227557D01*
X165271295Y-40132319D01*
X165223676Y-40084700D01*
X165128438Y-40037080D01*
X164937961Y-40037080D01*
X164842723Y-40084700D01*
X164795104Y-40132319D01*
X164747485Y-40227557D01*
X164747485Y-40465652D01*
X164795104Y-40560890D01*
X164842723Y-40608509D01*
X164937961Y-40656128D01*
X165128438Y-40656128D01*
X165223676Y-40608509D01*
X165271295Y-40560890D01*
X165318914Y-40465652D01*
%TO.C,R21*%
X170919980Y-104786557D02*
X170443790Y-105119890D01*
X170919980Y-105357985D02*
X169919980Y-105357985D01*
X169919980Y-104977033D01*
X169967600Y-104881795D01*
X170015219Y-104834176D01*
X170110457Y-104786557D01*
X170253314Y-104786557D01*
X170348552Y-104834176D01*
X170396171Y-104881795D01*
X170443790Y-104977033D01*
X170443790Y-105357985D01*
X170015219Y-104405604D02*
X169967600Y-104357985D01*
X169919980Y-104262747D01*
X169919980Y-104024652D01*
X169967600Y-103929414D01*
X170015219Y-103881795D01*
X170110457Y-103834176D01*
X170205695Y-103834176D01*
X170348552Y-103881795D01*
X170919980Y-104453223D01*
X170919980Y-103834176D01*
X170919980Y-102881795D02*
X170919980Y-103453223D01*
X170919980Y-103167509D02*
X169919980Y-103167509D01*
X170062838Y-103262747D01*
X170158076Y-103357985D01*
X170205695Y-103453223D01*
%TO.C,R4*%
X134798933Y-128233480D02*
X134465600Y-127757290D01*
X134227504Y-128233480D02*
X134227504Y-127233480D01*
X134608457Y-127233480D01*
X134703695Y-127281100D01*
X134751314Y-127328719D01*
X134798933Y-127423957D01*
X134798933Y-127566814D01*
X134751314Y-127662052D01*
X134703695Y-127709671D01*
X134608457Y-127757290D01*
X134227504Y-127757290D01*
X135656076Y-127566814D02*
X135656076Y-128233480D01*
X135417980Y-127185861D02*
X135179885Y-127900147D01*
X135798933Y-127900147D01*
%TO.C,U3*%
X175250095Y-118470480D02*
X175250095Y-119280004D01*
X175297714Y-119375242D01*
X175345333Y-119422861D01*
X175440571Y-119470480D01*
X175631047Y-119470480D01*
X175726285Y-119422861D01*
X175773904Y-119375242D01*
X175821523Y-119280004D01*
X175821523Y-118470480D01*
X176202476Y-118470480D02*
X176821523Y-118470480D01*
X176488190Y-118851433D01*
X176631047Y-118851433D01*
X176726285Y-118899052D01*
X176773904Y-118946671D01*
X176821523Y-119041909D01*
X176821523Y-119280004D01*
X176773904Y-119375242D01*
X176726285Y-119422861D01*
X176631047Y-119470480D01*
X176345333Y-119470480D01*
X176250095Y-119422861D01*
X176202476Y-119375242D01*
%TO.C,U24*%
X66691504Y-40062480D02*
X66691504Y-40872004D01*
X66739123Y-40967242D01*
X66786742Y-41014861D01*
X66881980Y-41062480D01*
X67072457Y-41062480D01*
X67167695Y-41014861D01*
X67215314Y-40967242D01*
X67262933Y-40872004D01*
X67262933Y-40062480D01*
X67691504Y-40157719D02*
X67739123Y-40110100D01*
X67834361Y-40062480D01*
X68072457Y-40062480D01*
X68167695Y-40110100D01*
X68215314Y-40157719D01*
X68262933Y-40252957D01*
X68262933Y-40348195D01*
X68215314Y-40491052D01*
X67643885Y-41062480D01*
X68262933Y-41062480D01*
X69120076Y-40395814D02*
X69120076Y-41062480D01*
X68881980Y-40014861D02*
X68643885Y-40729147D01*
X69262933Y-40729147D01*
%TO.C,R7*%
X111644133Y-129484380D02*
X111310800Y-129008190D01*
X111072704Y-129484380D02*
X111072704Y-128484380D01*
X111453657Y-128484380D01*
X111548895Y-128532000D01*
X111596514Y-128579619D01*
X111644133Y-128674857D01*
X111644133Y-128817714D01*
X111596514Y-128912952D01*
X111548895Y-128960571D01*
X111453657Y-129008190D01*
X111072704Y-129008190D01*
X111977466Y-128484380D02*
X112644133Y-128484380D01*
X112215561Y-129484380D01*
%TO.C,U27*%
X122409104Y-61957280D02*
X122409104Y-62766804D01*
X122456723Y-62862042D01*
X122504342Y-62909661D01*
X122599580Y-62957280D01*
X122790057Y-62957280D01*
X122885295Y-62909661D01*
X122932914Y-62862042D01*
X122980533Y-62766804D01*
X122980533Y-61957280D01*
X123409104Y-62052519D02*
X123456723Y-62004900D01*
X123551961Y-61957280D01*
X123790057Y-61957280D01*
X123885295Y-62004900D01*
X123932914Y-62052519D01*
X123980533Y-62147757D01*
X123980533Y-62242995D01*
X123932914Y-62385852D01*
X123361485Y-62957280D01*
X123980533Y-62957280D01*
X124313866Y-61957280D02*
X124980533Y-61957280D01*
X124551961Y-62957280D01*
%TO.C,R26*%
X177523980Y-104786557D02*
X177047790Y-105119890D01*
X177523980Y-105357985D02*
X176523980Y-105357985D01*
X176523980Y-104977033D01*
X176571600Y-104881795D01*
X176619219Y-104834176D01*
X176714457Y-104786557D01*
X176857314Y-104786557D01*
X176952552Y-104834176D01*
X177000171Y-104881795D01*
X177047790Y-104977033D01*
X177047790Y-105357985D01*
X176619219Y-104405604D02*
X176571600Y-104357985D01*
X176523980Y-104262747D01*
X176523980Y-104024652D01*
X176571600Y-103929414D01*
X176619219Y-103881795D01*
X176714457Y-103834176D01*
X176809695Y-103834176D01*
X176952552Y-103881795D01*
X177523980Y-104453223D01*
X177523980Y-103834176D01*
X176523980Y-102977033D02*
X176523980Y-103167509D01*
X176571600Y-103262747D01*
X176619219Y-103310366D01*
X176762076Y-103405604D01*
X176952552Y-103453223D01*
X177333504Y-103453223D01*
X177428742Y-103405604D01*
X177476361Y-103357985D01*
X177523980Y-103262747D01*
X177523980Y-103072271D01*
X177476361Y-102977033D01*
X177428742Y-102929414D01*
X177333504Y-102881795D01*
X177095409Y-102881795D01*
X177000171Y-102929414D01*
X176952552Y-102977033D01*
X176904933Y-103072271D01*
X176904933Y-103262747D01*
X176952552Y-103357985D01*
X177000171Y-103405604D01*
X177095409Y-103453223D01*
%TO.C,U43*%
X174240504Y-61809880D02*
X174240504Y-62619404D01*
X174288123Y-62714642D01*
X174335742Y-62762261D01*
X174430980Y-62809880D01*
X174621457Y-62809880D01*
X174716695Y-62762261D01*
X174764314Y-62714642D01*
X174811933Y-62619404D01*
X174811933Y-61809880D01*
X175716695Y-62143214D02*
X175716695Y-62809880D01*
X175478600Y-61762261D02*
X175240504Y-62476547D01*
X175859552Y-62476547D01*
X176145266Y-61809880D02*
X176764314Y-61809880D01*
X176430980Y-62190833D01*
X176573838Y-62190833D01*
X176669076Y-62238452D01*
X176716695Y-62286071D01*
X176764314Y-62381309D01*
X176764314Y-62619404D01*
X176716695Y-62714642D01*
X176669076Y-62762261D01*
X176573838Y-62809880D01*
X176288123Y-62809880D01*
X176192885Y-62762261D01*
X176145266Y-62714642D01*
%TO.C,U13*%
X100205980Y-96497195D02*
X101015504Y-96497195D01*
X101110742Y-96449576D01*
X101158361Y-96401957D01*
X101205980Y-96306719D01*
X101205980Y-96116242D01*
X101158361Y-96021004D01*
X101110742Y-95973385D01*
X101015504Y-95925766D01*
X100205980Y-95925766D01*
X101205980Y-94925766D02*
X101205980Y-95497195D01*
X101205980Y-95211480D02*
X100205980Y-95211480D01*
X100348838Y-95306719D01*
X100444076Y-95401957D01*
X100491695Y-95497195D01*
X100205980Y-94592433D02*
X100205980Y-93973385D01*
X100586933Y-94306719D01*
X100586933Y-94163861D01*
X100634552Y-94068623D01*
X100682171Y-94021004D01*
X100777409Y-93973385D01*
X101015504Y-93973385D01*
X101110742Y-94021004D01*
X101158361Y-94068623D01*
X101205980Y-94163861D01*
X101205980Y-94449576D01*
X101158361Y-94544814D01*
X101110742Y-94592433D01*
%TO.C,U2*%
X99415695Y-127707480D02*
X99415695Y-128517004D01*
X99463314Y-128612242D01*
X99510933Y-128659861D01*
X99606171Y-128707480D01*
X99796647Y-128707480D01*
X99891885Y-128659861D01*
X99939504Y-128612242D01*
X99987123Y-128517004D01*
X99987123Y-127707480D01*
X100415695Y-127802719D02*
X100463314Y-127755100D01*
X100558552Y-127707480D01*
X100796647Y-127707480D01*
X100891885Y-127755100D01*
X100939504Y-127802719D01*
X100987123Y-127897957D01*
X100987123Y-127993195D01*
X100939504Y-128136052D01*
X100368076Y-128707480D01*
X100987123Y-128707480D01*
%TO.C,R9*%
X111771133Y-139339580D02*
X111437800Y-138863390D01*
X111199704Y-139339580D02*
X111199704Y-138339580D01*
X111580657Y-138339580D01*
X111675895Y-138387200D01*
X111723514Y-138434819D01*
X111771133Y-138530057D01*
X111771133Y-138672914D01*
X111723514Y-138768152D01*
X111675895Y-138815771D01*
X111580657Y-138863390D01*
X111199704Y-138863390D01*
X112247323Y-139339580D02*
X112437800Y-139339580D01*
X112533038Y-139291961D01*
X112580657Y-139244342D01*
X112675895Y-139101485D01*
X112723514Y-138911009D01*
X112723514Y-138530057D01*
X112675895Y-138434819D01*
X112628276Y-138387200D01*
X112533038Y-138339580D01*
X112342561Y-138339580D01*
X112247323Y-138387200D01*
X112199704Y-138434819D01*
X112152085Y-138530057D01*
X112152085Y-138768152D01*
X112199704Y-138863390D01*
X112247323Y-138911009D01*
X112342561Y-138958628D01*
X112533038Y-138958628D01*
X112628276Y-138911009D01*
X112675895Y-138863390D01*
X112723514Y-138768152D01*
%TO.C,R27*%
X174221980Y-104786557D02*
X173745790Y-105119890D01*
X174221980Y-105357985D02*
X173221980Y-105357985D01*
X173221980Y-104977033D01*
X173269600Y-104881795D01*
X173317219Y-104834176D01*
X173412457Y-104786557D01*
X173555314Y-104786557D01*
X173650552Y-104834176D01*
X173698171Y-104881795D01*
X173745790Y-104977033D01*
X173745790Y-105357985D01*
X173317219Y-104405604D02*
X173269600Y-104357985D01*
X173221980Y-104262747D01*
X173221980Y-104024652D01*
X173269600Y-103929414D01*
X173317219Y-103881795D01*
X173412457Y-103834176D01*
X173507695Y-103834176D01*
X173650552Y-103881795D01*
X174221980Y-104453223D01*
X174221980Y-103834176D01*
X173221980Y-103500842D02*
X173221980Y-102834176D01*
X174221980Y-103262747D01*
%TO.C,R34*%
X197477980Y-104786557D02*
X197001790Y-105119890D01*
X197477980Y-105357985D02*
X196477980Y-105357985D01*
X196477980Y-104977033D01*
X196525600Y-104881795D01*
X196573219Y-104834176D01*
X196668457Y-104786557D01*
X196811314Y-104786557D01*
X196906552Y-104834176D01*
X196954171Y-104881795D01*
X197001790Y-104977033D01*
X197001790Y-105357985D01*
X196477980Y-104453223D02*
X196477980Y-103834176D01*
X196858933Y-104167509D01*
X196858933Y-104024652D01*
X196906552Y-103929414D01*
X196954171Y-103881795D01*
X197049409Y-103834176D01*
X197287504Y-103834176D01*
X197382742Y-103881795D01*
X197430361Y-103929414D01*
X197477980Y-104024652D01*
X197477980Y-104310366D01*
X197430361Y-104405604D01*
X197382742Y-104453223D01*
X196811314Y-102977033D02*
X197477980Y-102977033D01*
X196430361Y-103215128D02*
X197144647Y-103453223D01*
X197144647Y-102834176D01*
%TO.C,U7*%
X189575695Y-118470480D02*
X189575695Y-119280004D01*
X189623314Y-119375242D01*
X189670933Y-119422861D01*
X189766171Y-119470480D01*
X189956647Y-119470480D01*
X190051885Y-119422861D01*
X190099504Y-119375242D01*
X190147123Y-119280004D01*
X190147123Y-118470480D01*
X190528076Y-118470480D02*
X191194742Y-118470480D01*
X190766171Y-119470480D01*
%TO.C,J1*%
X48307666Y-130668780D02*
X48307666Y-131383066D01*
X48260047Y-131525923D01*
X48164809Y-131621161D01*
X48021952Y-131668780D01*
X47926714Y-131668780D01*
X49307666Y-131668780D02*
X48736238Y-131668780D01*
X49021952Y-131668780D02*
X49021952Y-130668780D01*
X48926714Y-130811638D01*
X48831476Y-130906876D01*
X48736238Y-130954495D01*
%TO.C,U23*%
X54235504Y-61779480D02*
X54235504Y-62589004D01*
X54283123Y-62684242D01*
X54330742Y-62731861D01*
X54425980Y-62779480D01*
X54616457Y-62779480D01*
X54711695Y-62731861D01*
X54759314Y-62684242D01*
X54806933Y-62589004D01*
X54806933Y-61779480D01*
X55235504Y-61874719D02*
X55283123Y-61827100D01*
X55378361Y-61779480D01*
X55616457Y-61779480D01*
X55711695Y-61827100D01*
X55759314Y-61874719D01*
X55806933Y-61969957D01*
X55806933Y-62065195D01*
X55759314Y-62208052D01*
X55187885Y-62779480D01*
X55806933Y-62779480D01*
X56140266Y-61779480D02*
X56759314Y-61779480D01*
X56425980Y-62160433D01*
X56568838Y-62160433D01*
X56664076Y-62208052D01*
X56711695Y-62255671D01*
X56759314Y-62350909D01*
X56759314Y-62589004D01*
X56711695Y-62684242D01*
X56664076Y-62731861D01*
X56568838Y-62779480D01*
X56283123Y-62779480D01*
X56187885Y-62731861D01*
X56140266Y-62684242D01*
%TO.C,R11*%
X67520742Y-128022480D02*
X67187409Y-127546290D01*
X66949314Y-128022480D02*
X66949314Y-127022480D01*
X67330266Y-127022480D01*
X67425504Y-127070100D01*
X67473123Y-127117719D01*
X67520742Y-127212957D01*
X67520742Y-127355814D01*
X67473123Y-127451052D01*
X67425504Y-127498671D01*
X67330266Y-127546290D01*
X66949314Y-127546290D01*
X68473123Y-128022480D02*
X67901695Y-128022480D01*
X68187409Y-128022480D02*
X68187409Y-127022480D01*
X68092171Y-127165338D01*
X67996933Y-127260576D01*
X67901695Y-127308195D01*
X69425504Y-128022480D02*
X68854076Y-128022480D01*
X69139790Y-128022480D02*
X69139790Y-127022480D01*
X69044552Y-127165338D01*
X68949314Y-127260576D01*
X68854076Y-127308195D01*
%TO.C,R6*%
X145390733Y-134982080D02*
X145057400Y-134505890D01*
X144819304Y-134982080D02*
X144819304Y-133982080D01*
X145200257Y-133982080D01*
X145295495Y-134029700D01*
X145343114Y-134077319D01*
X145390733Y-134172557D01*
X145390733Y-134315414D01*
X145343114Y-134410652D01*
X145295495Y-134458271D01*
X145200257Y-134505890D01*
X144819304Y-134505890D01*
X146247876Y-133982080D02*
X146057400Y-133982080D01*
X145962161Y-134029700D01*
X145914542Y-134077319D01*
X145819304Y-134220176D01*
X145771685Y-134410652D01*
X145771685Y-134791604D01*
X145819304Y-134886842D01*
X145866923Y-134934461D01*
X145962161Y-134982080D01*
X146152638Y-134982080D01*
X146247876Y-134934461D01*
X146295495Y-134886842D01*
X146343114Y-134791604D01*
X146343114Y-134553509D01*
X146295495Y-134458271D01*
X146247876Y-134410652D01*
X146152638Y-134363033D01*
X145962161Y-134363033D01*
X145866923Y-134410652D01*
X145819304Y-134458271D01*
X145771685Y-134553509D01*
%TO.C,U32*%
X75826980Y-96497195D02*
X76636504Y-96497195D01*
X76731742Y-96449576D01*
X76779361Y-96401957D01*
X76826980Y-96306719D01*
X76826980Y-96116242D01*
X76779361Y-96021004D01*
X76731742Y-95973385D01*
X76636504Y-95925766D01*
X75826980Y-95925766D01*
X75826980Y-95544814D02*
X75826980Y-94925766D01*
X76207933Y-95259100D01*
X76207933Y-95116242D01*
X76255552Y-95021004D01*
X76303171Y-94973385D01*
X76398409Y-94925766D01*
X76636504Y-94925766D01*
X76731742Y-94973385D01*
X76779361Y-95021004D01*
X76826980Y-95116242D01*
X76826980Y-95401957D01*
X76779361Y-95497195D01*
X76731742Y-95544814D01*
X75922219Y-94544814D02*
X75874600Y-94497195D01*
X75826980Y-94401957D01*
X75826980Y-94163861D01*
X75874600Y-94068623D01*
X75922219Y-94021004D01*
X76017457Y-93973385D01*
X76112695Y-93973385D01*
X76255552Y-94021004D01*
X76826980Y-94592433D01*
X76826980Y-93973385D01*
%TO.C,U19*%
X41916504Y-96704480D02*
X41916504Y-97514004D01*
X41964123Y-97609242D01*
X42011742Y-97656861D01*
X42106980Y-97704480D01*
X42297457Y-97704480D01*
X42392695Y-97656861D01*
X42440314Y-97609242D01*
X42487933Y-97514004D01*
X42487933Y-96704480D01*
X43487933Y-97704480D02*
X42916504Y-97704480D01*
X43202219Y-97704480D02*
X43202219Y-96704480D01*
X43106980Y-96847338D01*
X43011742Y-96942576D01*
X42916504Y-96990195D01*
X43964123Y-97704480D02*
X44154600Y-97704480D01*
X44249838Y-97656861D01*
X44297457Y-97609242D01*
X44392695Y-97466385D01*
X44440314Y-97275909D01*
X44440314Y-96894957D01*
X44392695Y-96799719D01*
X44345076Y-96752100D01*
X44249838Y-96704480D01*
X44059361Y-96704480D01*
X43964123Y-96752100D01*
X43916504Y-96799719D01*
X43868885Y-96894957D01*
X43868885Y-97133052D01*
X43916504Y-97228290D01*
X43964123Y-97275909D01*
X44059361Y-97323528D01*
X44249838Y-97323528D01*
X44345076Y-97275909D01*
X44392695Y-97228290D01*
X44440314Y-97133052D01*
%TO.C,U9*%
X76886980Y-130321004D02*
X77696504Y-130321004D01*
X77791742Y-130273385D01*
X77839361Y-130225766D01*
X77886980Y-130130528D01*
X77886980Y-129940052D01*
X77839361Y-129844814D01*
X77791742Y-129797195D01*
X77696504Y-129749576D01*
X76886980Y-129749576D01*
X77886980Y-129225766D02*
X77886980Y-129035290D01*
X77839361Y-128940052D01*
X77791742Y-128892433D01*
X77648885Y-128797195D01*
X77458409Y-128749576D01*
X77077457Y-128749576D01*
X76982219Y-128797195D01*
X76934600Y-128844814D01*
X76886980Y-128940052D01*
X76886980Y-129130528D01*
X76934600Y-129225766D01*
X76982219Y-129273385D01*
X77077457Y-129321004D01*
X77315552Y-129321004D01*
X77410790Y-129273385D01*
X77458409Y-129225766D01*
X77506028Y-129130528D01*
X77506028Y-128940052D01*
X77458409Y-128844814D01*
X77410790Y-128797195D01*
X77315552Y-128749576D01*
%TO.C,R16*%
X164315980Y-104786557D02*
X163839790Y-105119890D01*
X164315980Y-105357985D02*
X163315980Y-105357985D01*
X163315980Y-104977033D01*
X163363600Y-104881795D01*
X163411219Y-104834176D01*
X163506457Y-104786557D01*
X163649314Y-104786557D01*
X163744552Y-104834176D01*
X163792171Y-104881795D01*
X163839790Y-104977033D01*
X163839790Y-105357985D01*
X164315980Y-103834176D02*
X164315980Y-104405604D01*
X164315980Y-104119890D02*
X163315980Y-104119890D01*
X163458838Y-104215128D01*
X163554076Y-104310366D01*
X163601695Y-104405604D01*
X163315980Y-102977033D02*
X163315980Y-103167509D01*
X163363600Y-103262747D01*
X163411219Y-103310366D01*
X163554076Y-103405604D01*
X163744552Y-103453223D01*
X164125504Y-103453223D01*
X164220742Y-103405604D01*
X164268361Y-103357985D01*
X164315980Y-103262747D01*
X164315980Y-103072271D01*
X164268361Y-102977033D01*
X164220742Y-102929414D01*
X164125504Y-102881795D01*
X163887409Y-102881795D01*
X163792171Y-102929414D01*
X163744552Y-102977033D01*
X163696933Y-103072271D01*
X163696933Y-103262747D01*
X163744552Y-103357985D01*
X163792171Y-103405604D01*
X163887409Y-103453223D01*
%TO.C,U40*%
X220595504Y-61809880D02*
X220595504Y-62619404D01*
X220643123Y-62714642D01*
X220690742Y-62762261D01*
X220785980Y-62809880D01*
X220976457Y-62809880D01*
X221071695Y-62762261D01*
X221119314Y-62714642D01*
X221166933Y-62619404D01*
X221166933Y-61809880D01*
X222071695Y-62143214D02*
X222071695Y-62809880D01*
X221833600Y-61762261D02*
X221595504Y-62476547D01*
X222214552Y-62476547D01*
X222785980Y-61809880D02*
X222881219Y-61809880D01*
X222976457Y-61857500D01*
X223024076Y-61905119D01*
X223071695Y-62000357D01*
X223119314Y-62190833D01*
X223119314Y-62428928D01*
X223071695Y-62619404D01*
X223024076Y-62714642D01*
X222976457Y-62762261D01*
X222881219Y-62809880D01*
X222785980Y-62809880D01*
X222690742Y-62762261D01*
X222643123Y-62714642D01*
X222595504Y-62619404D01*
X222547885Y-62428928D01*
X222547885Y-62190833D01*
X222595504Y-62000357D01*
X222643123Y-61905119D01*
X222690742Y-61857500D01*
X222785980Y-61809880D01*
%TO.C,R28*%
X194033980Y-104786557D02*
X193557790Y-105119890D01*
X194033980Y-105357985D02*
X193033980Y-105357985D01*
X193033980Y-104977033D01*
X193081600Y-104881795D01*
X193129219Y-104834176D01*
X193224457Y-104786557D01*
X193367314Y-104786557D01*
X193462552Y-104834176D01*
X193510171Y-104881795D01*
X193557790Y-104977033D01*
X193557790Y-105357985D01*
X193129219Y-104405604D02*
X193081600Y-104357985D01*
X193033980Y-104262747D01*
X193033980Y-104024652D01*
X193081600Y-103929414D01*
X193129219Y-103881795D01*
X193224457Y-103834176D01*
X193319695Y-103834176D01*
X193462552Y-103881795D01*
X194033980Y-104453223D01*
X194033980Y-103834176D01*
X193462552Y-103262747D02*
X193414933Y-103357985D01*
X193367314Y-103405604D01*
X193272076Y-103453223D01*
X193224457Y-103453223D01*
X193129219Y-103405604D01*
X193081600Y-103357985D01*
X193033980Y-103262747D01*
X193033980Y-103072271D01*
X193081600Y-102977033D01*
X193129219Y-102929414D01*
X193224457Y-102881795D01*
X193272076Y-102881795D01*
X193367314Y-102929414D01*
X193414933Y-102977033D01*
X193462552Y-103072271D01*
X193462552Y-103262747D01*
X193510171Y-103357985D01*
X193557790Y-103405604D01*
X193653028Y-103453223D01*
X193843504Y-103453223D01*
X193938742Y-103405604D01*
X193986361Y-103357985D01*
X194033980Y-103262747D01*
X194033980Y-103072271D01*
X193986361Y-102977033D01*
X193938742Y-102929414D01*
X193843504Y-102881795D01*
X193653028Y-102881795D01*
X193557790Y-102929414D01*
X193510171Y-102977033D01*
X193462552Y-103072271D01*
%TO.C,Q3*%
X71243361Y-118291719D02*
X71148123Y-118244100D01*
X71052885Y-118148861D01*
X70910028Y-118006004D01*
X70814790Y-117958385D01*
X70719552Y-117958385D01*
X70767171Y-118196480D02*
X70671933Y-118148861D01*
X70576695Y-118053623D01*
X70529076Y-117863147D01*
X70529076Y-117529814D01*
X70576695Y-117339338D01*
X70671933Y-117244100D01*
X70767171Y-117196480D01*
X70957647Y-117196480D01*
X71052885Y-117244100D01*
X71148123Y-117339338D01*
X71195742Y-117529814D01*
X71195742Y-117863147D01*
X71148123Y-118053623D01*
X71052885Y-118148861D01*
X70957647Y-118196480D01*
X70767171Y-118196480D01*
X71529076Y-117196480D02*
X72148123Y-117196480D01*
X71814790Y-117577433D01*
X71957647Y-117577433D01*
X72052885Y-117625052D01*
X72100504Y-117672671D01*
X72148123Y-117767909D01*
X72148123Y-118006004D01*
X72100504Y-118101242D01*
X72052885Y-118148861D01*
X71957647Y-118196480D01*
X71671933Y-118196480D01*
X71576695Y-118148861D01*
X71529076Y-118101242D01*
%TO.C,R24*%
X184127980Y-104786557D02*
X183651790Y-105119890D01*
X184127980Y-105357985D02*
X183127980Y-105357985D01*
X183127980Y-104977033D01*
X183175600Y-104881795D01*
X183223219Y-104834176D01*
X183318457Y-104786557D01*
X183461314Y-104786557D01*
X183556552Y-104834176D01*
X183604171Y-104881795D01*
X183651790Y-104977033D01*
X183651790Y-105357985D01*
X183223219Y-104405604D02*
X183175600Y-104357985D01*
X183127980Y-104262747D01*
X183127980Y-104024652D01*
X183175600Y-103929414D01*
X183223219Y-103881795D01*
X183318457Y-103834176D01*
X183413695Y-103834176D01*
X183556552Y-103881795D01*
X184127980Y-104453223D01*
X184127980Y-103834176D01*
X183461314Y-102977033D02*
X184127980Y-102977033D01*
X183080361Y-103215128D02*
X183794647Y-103453223D01*
X183794647Y-102834176D01*
%TO.C,C2*%
X140894933Y-129952442D02*
X140847314Y-130000061D01*
X140704457Y-130047680D01*
X140609219Y-130047680D01*
X140466361Y-130000061D01*
X140371123Y-129904823D01*
X140323504Y-129809585D01*
X140275885Y-129619109D01*
X140275885Y-129476252D01*
X140323504Y-129285776D01*
X140371123Y-129190538D01*
X140466361Y-129095300D01*
X140609219Y-129047680D01*
X140704457Y-129047680D01*
X140847314Y-129095300D01*
X140894933Y-129142919D01*
X141275885Y-129142919D02*
X141323504Y-129095300D01*
X141418742Y-129047680D01*
X141656838Y-129047680D01*
X141752076Y-129095300D01*
X141799695Y-129142919D01*
X141847314Y-129238157D01*
X141847314Y-129333395D01*
X141799695Y-129476252D01*
X141228266Y-130047680D01*
X141847314Y-130047680D01*
%TO.C,U30*%
X81540504Y-61804880D02*
X81540504Y-62614404D01*
X81588123Y-62709642D01*
X81635742Y-62757261D01*
X81730980Y-62804880D01*
X81921457Y-62804880D01*
X82016695Y-62757261D01*
X82064314Y-62709642D01*
X82111933Y-62614404D01*
X82111933Y-61804880D01*
X82492885Y-61804880D02*
X83111933Y-61804880D01*
X82778600Y-62185833D01*
X82921457Y-62185833D01*
X83016695Y-62233452D01*
X83064314Y-62281071D01*
X83111933Y-62376309D01*
X83111933Y-62614404D01*
X83064314Y-62709642D01*
X83016695Y-62757261D01*
X82921457Y-62804880D01*
X82635742Y-62804880D01*
X82540504Y-62757261D01*
X82492885Y-62709642D01*
X83730980Y-61804880D02*
X83826219Y-61804880D01*
X83921457Y-61852500D01*
X83969076Y-61900119D01*
X84016695Y-61995357D01*
X84064314Y-62185833D01*
X84064314Y-62423928D01*
X84016695Y-62614404D01*
X83969076Y-62709642D01*
X83921457Y-62757261D01*
X83826219Y-62804880D01*
X83730980Y-62804880D01*
X83635742Y-62757261D01*
X83588123Y-62709642D01*
X83540504Y-62614404D01*
X83492885Y-62423928D01*
X83492885Y-62185833D01*
X83540504Y-61995357D01*
X83588123Y-61900119D01*
X83635742Y-61852500D01*
X83730980Y-61804880D01*
%TO.C,U52*%
X185873704Y-61886080D02*
X185873704Y-62695604D01*
X185921323Y-62790842D01*
X185968942Y-62838461D01*
X186064180Y-62886080D01*
X186254657Y-62886080D01*
X186349895Y-62838461D01*
X186397514Y-62790842D01*
X186445133Y-62695604D01*
X186445133Y-61886080D01*
X187397514Y-61886080D02*
X186921323Y-61886080D01*
X186873704Y-62362271D01*
X186921323Y-62314652D01*
X187016561Y-62267033D01*
X187254657Y-62267033D01*
X187349895Y-62314652D01*
X187397514Y-62362271D01*
X187445133Y-62457509D01*
X187445133Y-62695604D01*
X187397514Y-62790842D01*
X187349895Y-62838461D01*
X187254657Y-62886080D01*
X187016561Y-62886080D01*
X186921323Y-62838461D01*
X186873704Y-62790842D01*
X187826085Y-61981319D02*
X187873704Y-61933700D01*
X187968942Y-61886080D01*
X188207038Y-61886080D01*
X188302276Y-61933700D01*
X188349895Y-61981319D01*
X188397514Y-62076557D01*
X188397514Y-62171795D01*
X188349895Y-62314652D01*
X187778466Y-62886080D01*
X188397514Y-62886080D01*
%TO.C,C5*%
X94419542Y-136507566D02*
X94467161Y-136555185D01*
X94514780Y-136698042D01*
X94514780Y-136793280D01*
X94467161Y-136936138D01*
X94371923Y-137031376D01*
X94276685Y-137078995D01*
X94086209Y-137126614D01*
X93943352Y-137126614D01*
X93752876Y-137078995D01*
X93657638Y-137031376D01*
X93562400Y-136936138D01*
X93514780Y-136793280D01*
X93514780Y-136698042D01*
X93562400Y-136555185D01*
X93610019Y-136507566D01*
X93514780Y-135602804D02*
X93514780Y-136078995D01*
X93990971Y-136126614D01*
X93943352Y-136078995D01*
X93895733Y-135983757D01*
X93895733Y-135745661D01*
X93943352Y-135650423D01*
X93990971Y-135602804D01*
X94086209Y-135555185D01*
X94324304Y-135555185D01*
X94419542Y-135602804D01*
X94467161Y-135650423D01*
X94514780Y-135745661D01*
X94514780Y-135983757D01*
X94467161Y-136078995D01*
X94419542Y-136126614D01*
%TO.C,U22*%
X54118504Y-40062480D02*
X54118504Y-40872004D01*
X54166123Y-40967242D01*
X54213742Y-41014861D01*
X54308980Y-41062480D01*
X54499457Y-41062480D01*
X54594695Y-41014861D01*
X54642314Y-40967242D01*
X54689933Y-40872004D01*
X54689933Y-40062480D01*
X55118504Y-40157719D02*
X55166123Y-40110100D01*
X55261361Y-40062480D01*
X55499457Y-40062480D01*
X55594695Y-40110100D01*
X55642314Y-40157719D01*
X55689933Y-40252957D01*
X55689933Y-40348195D01*
X55642314Y-40491052D01*
X55070885Y-41062480D01*
X55689933Y-41062480D01*
X56070885Y-40157719D02*
X56118504Y-40110100D01*
X56213742Y-40062480D01*
X56451838Y-40062480D01*
X56547076Y-40110100D01*
X56594695Y-40157719D01*
X56642314Y-40252957D01*
X56642314Y-40348195D01*
X56594695Y-40491052D01*
X56023266Y-41062480D01*
X56642314Y-41062480D01*
%TO.C,U48*%
X185944504Y-39955880D02*
X185944504Y-40765404D01*
X185992123Y-40860642D01*
X186039742Y-40908261D01*
X186134980Y-40955880D01*
X186325457Y-40955880D01*
X186420695Y-40908261D01*
X186468314Y-40860642D01*
X186515933Y-40765404D01*
X186515933Y-39955880D01*
X187420695Y-40289214D02*
X187420695Y-40955880D01*
X187182600Y-39908261D02*
X186944504Y-40622547D01*
X187563552Y-40622547D01*
X188087361Y-40384452D02*
X187992123Y-40336833D01*
X187944504Y-40289214D01*
X187896885Y-40193976D01*
X187896885Y-40146357D01*
X187944504Y-40051119D01*
X187992123Y-40003500D01*
X188087361Y-39955880D01*
X188277838Y-39955880D01*
X188373076Y-40003500D01*
X188420695Y-40051119D01*
X188468314Y-40146357D01*
X188468314Y-40193976D01*
X188420695Y-40289214D01*
X188373076Y-40336833D01*
X188277838Y-40384452D01*
X188087361Y-40384452D01*
X187992123Y-40432071D01*
X187944504Y-40479690D01*
X187896885Y-40574928D01*
X187896885Y-40765404D01*
X187944504Y-40860642D01*
X187992123Y-40908261D01*
X188087361Y-40955880D01*
X188277838Y-40955880D01*
X188373076Y-40908261D01*
X188420695Y-40860642D01*
X188468314Y-40765404D01*
X188468314Y-40574928D01*
X188420695Y-40479690D01*
X188373076Y-40432071D01*
X188277838Y-40384452D01*
%TO.C,U42*%
X197323704Y-39955880D02*
X197323704Y-40765404D01*
X197371323Y-40860642D01*
X197418942Y-40908261D01*
X197514180Y-40955880D01*
X197704657Y-40955880D01*
X197799895Y-40908261D01*
X197847514Y-40860642D01*
X197895133Y-40765404D01*
X197895133Y-39955880D01*
X198799895Y-40289214D02*
X198799895Y-40955880D01*
X198561800Y-39908261D02*
X198323704Y-40622547D01*
X198942752Y-40622547D01*
X199276085Y-40051119D02*
X199323704Y-40003500D01*
X199418942Y-39955880D01*
X199657038Y-39955880D01*
X199752276Y-40003500D01*
X199799895Y-40051119D01*
X199847514Y-40146357D01*
X199847514Y-40241595D01*
X199799895Y-40384452D01*
X199228466Y-40955880D01*
X199847514Y-40955880D01*
%TO.C,U45*%
X208784504Y-61809880D02*
X208784504Y-62619404D01*
X208832123Y-62714642D01*
X208879742Y-62762261D01*
X208974980Y-62809880D01*
X209165457Y-62809880D01*
X209260695Y-62762261D01*
X209308314Y-62714642D01*
X209355933Y-62619404D01*
X209355933Y-61809880D01*
X210260695Y-62143214D02*
X210260695Y-62809880D01*
X210022600Y-61762261D02*
X209784504Y-62476547D01*
X210403552Y-62476547D01*
X211260695Y-61809880D02*
X210784504Y-61809880D01*
X210736885Y-62286071D01*
X210784504Y-62238452D01*
X210879742Y-62190833D01*
X211117838Y-62190833D01*
X211213076Y-62238452D01*
X211260695Y-62286071D01*
X211308314Y-62381309D01*
X211308314Y-62619404D01*
X211260695Y-62714642D01*
X211213076Y-62762261D01*
X211117838Y-62809880D01*
X210879742Y-62809880D01*
X210784504Y-62762261D01*
X210736885Y-62714642D01*
%TO.C,U15*%
X122176980Y-96497195D02*
X122986504Y-96497195D01*
X123081742Y-96449576D01*
X123129361Y-96401957D01*
X123176980Y-96306719D01*
X123176980Y-96116242D01*
X123129361Y-96021004D01*
X123081742Y-95973385D01*
X122986504Y-95925766D01*
X122176980Y-95925766D01*
X123176980Y-94925766D02*
X123176980Y-95497195D01*
X123176980Y-95211480D02*
X122176980Y-95211480D01*
X122319838Y-95306719D01*
X122415076Y-95401957D01*
X122462695Y-95497195D01*
X122176980Y-94021004D02*
X122176980Y-94497195D01*
X122653171Y-94544814D01*
X122605552Y-94497195D01*
X122557933Y-94401957D01*
X122557933Y-94163861D01*
X122605552Y-94068623D01*
X122653171Y-94021004D01*
X122748409Y-93973385D01*
X122986504Y-93973385D01*
X123081742Y-94021004D01*
X123129361Y-94068623D01*
X123176980Y-94163861D01*
X123176980Y-94401957D01*
X123129361Y-94497195D01*
X123081742Y-94544814D01*
%TO.C,R31*%
X207383980Y-104776557D02*
X206907790Y-105109890D01*
X207383980Y-105347985D02*
X206383980Y-105347985D01*
X206383980Y-104967033D01*
X206431600Y-104871795D01*
X206479219Y-104824176D01*
X206574457Y-104776557D01*
X206717314Y-104776557D01*
X206812552Y-104824176D01*
X206860171Y-104871795D01*
X206907790Y-104967033D01*
X206907790Y-105347985D01*
X206383980Y-104443223D02*
X206383980Y-103824176D01*
X206764933Y-104157509D01*
X206764933Y-104014652D01*
X206812552Y-103919414D01*
X206860171Y-103871795D01*
X206955409Y-103824176D01*
X207193504Y-103824176D01*
X207288742Y-103871795D01*
X207336361Y-103919414D01*
X207383980Y-104014652D01*
X207383980Y-104300366D01*
X207336361Y-104395604D01*
X207288742Y-104443223D01*
X207383980Y-102871795D02*
X207383980Y-103443223D01*
X207383980Y-103157509D02*
X206383980Y-103157509D01*
X206526838Y-103252747D01*
X206622076Y-103347985D01*
X206669695Y-103443223D01*
%TO.C,R33*%
X200779980Y-104786557D02*
X200303790Y-105119890D01*
X200779980Y-105357985D02*
X199779980Y-105357985D01*
X199779980Y-104977033D01*
X199827600Y-104881795D01*
X199875219Y-104834176D01*
X199970457Y-104786557D01*
X200113314Y-104786557D01*
X200208552Y-104834176D01*
X200256171Y-104881795D01*
X200303790Y-104977033D01*
X200303790Y-105357985D01*
X199779980Y-104453223D02*
X199779980Y-103834176D01*
X200160933Y-104167509D01*
X200160933Y-104024652D01*
X200208552Y-103929414D01*
X200256171Y-103881795D01*
X200351409Y-103834176D01*
X200589504Y-103834176D01*
X200684742Y-103881795D01*
X200732361Y-103929414D01*
X200779980Y-104024652D01*
X200779980Y-104310366D01*
X200732361Y-104405604D01*
X200684742Y-104453223D01*
X199779980Y-103500842D02*
X199779980Y-102881795D01*
X200160933Y-103215128D01*
X200160933Y-103072271D01*
X200208552Y-102977033D01*
X200256171Y-102929414D01*
X200351409Y-102881795D01*
X200589504Y-102881795D01*
X200684742Y-102929414D01*
X200732361Y-102977033D01*
X200779980Y-103072271D01*
X200779980Y-103357985D01*
X200732361Y-103453223D01*
X200684742Y-103500842D01*
%TO.C,R10*%
X78696742Y-139085580D02*
X78363409Y-138609390D01*
X78125314Y-139085580D02*
X78125314Y-138085580D01*
X78506266Y-138085580D01*
X78601504Y-138133200D01*
X78649123Y-138180819D01*
X78696742Y-138276057D01*
X78696742Y-138418914D01*
X78649123Y-138514152D01*
X78601504Y-138561771D01*
X78506266Y-138609390D01*
X78125314Y-138609390D01*
X79649123Y-139085580D02*
X79077695Y-139085580D01*
X79363409Y-139085580D02*
X79363409Y-138085580D01*
X79268171Y-138228438D01*
X79172933Y-138323676D01*
X79077695Y-138371295D01*
X80268171Y-138085580D02*
X80363409Y-138085580D01*
X80458647Y-138133200D01*
X80506266Y-138180819D01*
X80553885Y-138276057D01*
X80601504Y-138466533D01*
X80601504Y-138704628D01*
X80553885Y-138895104D01*
X80506266Y-138990342D01*
X80458647Y-139037961D01*
X80363409Y-139085580D01*
X80268171Y-139085580D01*
X80172933Y-139037961D01*
X80125314Y-138990342D01*
X80077695Y-138895104D01*
X80030076Y-138704628D01*
X80030076Y-138466533D01*
X80077695Y-138276057D01*
X80125314Y-138180819D01*
X80172933Y-138133200D01*
X80268171Y-138085580D01*
%TO.C,R38*%
X230497980Y-104786557D02*
X230021790Y-105119890D01*
X230497980Y-105357985D02*
X229497980Y-105357985D01*
X229497980Y-104977033D01*
X229545600Y-104881795D01*
X229593219Y-104834176D01*
X229688457Y-104786557D01*
X229831314Y-104786557D01*
X229926552Y-104834176D01*
X229974171Y-104881795D01*
X230021790Y-104977033D01*
X230021790Y-105357985D01*
X229497980Y-104453223D02*
X229497980Y-103834176D01*
X229878933Y-104167509D01*
X229878933Y-104024652D01*
X229926552Y-103929414D01*
X229974171Y-103881795D01*
X230069409Y-103834176D01*
X230307504Y-103834176D01*
X230402742Y-103881795D01*
X230450361Y-103929414D01*
X230497980Y-104024652D01*
X230497980Y-104310366D01*
X230450361Y-104405604D01*
X230402742Y-104453223D01*
X229926552Y-103262747D02*
X229878933Y-103357985D01*
X229831314Y-103405604D01*
X229736076Y-103453223D01*
X229688457Y-103453223D01*
X229593219Y-103405604D01*
X229545600Y-103357985D01*
X229497980Y-103262747D01*
X229497980Y-103072271D01*
X229545600Y-102977033D01*
X229593219Y-102929414D01*
X229688457Y-102881795D01*
X229736076Y-102881795D01*
X229831314Y-102929414D01*
X229878933Y-102977033D01*
X229926552Y-103072271D01*
X229926552Y-103262747D01*
X229974171Y-103357985D01*
X230021790Y-103405604D01*
X230117028Y-103453223D01*
X230307504Y-103453223D01*
X230402742Y-103405604D01*
X230450361Y-103357985D01*
X230497980Y-103262747D01*
X230497980Y-103072271D01*
X230450361Y-102977033D01*
X230402742Y-102929414D01*
X230307504Y-102881795D01*
X230117028Y-102881795D01*
X230021790Y-102929414D01*
X229974171Y-102977033D01*
X229926552Y-103072271D01*
%TO.C,C1*%
X68306742Y-136456766D02*
X68354361Y-136504385D01*
X68401980Y-136647242D01*
X68401980Y-136742480D01*
X68354361Y-136885338D01*
X68259123Y-136980576D01*
X68163885Y-137028195D01*
X67973409Y-137075814D01*
X67830552Y-137075814D01*
X67640076Y-137028195D01*
X67544838Y-136980576D01*
X67449600Y-136885338D01*
X67401980Y-136742480D01*
X67401980Y-136647242D01*
X67449600Y-136504385D01*
X67497219Y-136456766D01*
X68401980Y-135504385D02*
X68401980Y-136075814D01*
X68401980Y-135790100D02*
X67401980Y-135790100D01*
X67544838Y-135885338D01*
X67640076Y-135980576D01*
X67687695Y-136075814D01*
%TO.C,U1*%
X167847980Y-92510404D02*
X168657504Y-92510404D01*
X168752742Y-92462785D01*
X168800361Y-92415166D01*
X168847980Y-92319928D01*
X168847980Y-92129452D01*
X168800361Y-92034214D01*
X168752742Y-91986595D01*
X168657504Y-91938976D01*
X167847980Y-91938976D01*
X168847980Y-90938976D02*
X168847980Y-91510404D01*
X168847980Y-91224690D02*
X167847980Y-91224690D01*
X167990838Y-91319928D01*
X168086076Y-91415166D01*
X168133695Y-91510404D01*
%TO.C,R35*%
X217289980Y-104776557D02*
X216813790Y-105109890D01*
X217289980Y-105347985D02*
X216289980Y-105347985D01*
X216289980Y-104967033D01*
X216337600Y-104871795D01*
X216385219Y-104824176D01*
X216480457Y-104776557D01*
X216623314Y-104776557D01*
X216718552Y-104824176D01*
X216766171Y-104871795D01*
X216813790Y-104967033D01*
X216813790Y-105347985D01*
X216289980Y-104443223D02*
X216289980Y-103824176D01*
X216670933Y-104157509D01*
X216670933Y-104014652D01*
X216718552Y-103919414D01*
X216766171Y-103871795D01*
X216861409Y-103824176D01*
X217099504Y-103824176D01*
X217194742Y-103871795D01*
X217242361Y-103919414D01*
X217289980Y-104014652D01*
X217289980Y-104300366D01*
X217242361Y-104395604D01*
X217194742Y-104443223D01*
X216289980Y-102919414D02*
X216289980Y-103395604D01*
X216766171Y-103443223D01*
X216718552Y-103395604D01*
X216670933Y-103300366D01*
X216670933Y-103062271D01*
X216718552Y-102967033D01*
X216766171Y-102919414D01*
X216861409Y-102871795D01*
X217099504Y-102871795D01*
X217194742Y-102919414D01*
X217242361Y-102967033D01*
X217289980Y-103062271D01*
X217289980Y-103300366D01*
X217242361Y-103395604D01*
X217194742Y-103443223D01*
%TO.C,U34*%
X108921704Y-61906480D02*
X108921704Y-62716004D01*
X108969323Y-62811242D01*
X109016942Y-62858861D01*
X109112180Y-62906480D01*
X109302657Y-62906480D01*
X109397895Y-62858861D01*
X109445514Y-62811242D01*
X109493133Y-62716004D01*
X109493133Y-61906480D01*
X109874085Y-61906480D02*
X110493133Y-61906480D01*
X110159800Y-62287433D01*
X110302657Y-62287433D01*
X110397895Y-62335052D01*
X110445514Y-62382671D01*
X110493133Y-62477909D01*
X110493133Y-62716004D01*
X110445514Y-62811242D01*
X110397895Y-62858861D01*
X110302657Y-62906480D01*
X110016942Y-62906480D01*
X109921704Y-62858861D01*
X109874085Y-62811242D01*
X111350276Y-62239814D02*
X111350276Y-62906480D01*
X111112180Y-61858861D02*
X110874085Y-62573147D01*
X111493133Y-62573147D01*
%TO.C,U36*%
X81388104Y-40113280D02*
X81388104Y-40922804D01*
X81435723Y-41018042D01*
X81483342Y-41065661D01*
X81578580Y-41113280D01*
X81769057Y-41113280D01*
X81864295Y-41065661D01*
X81911914Y-41018042D01*
X81959533Y-40922804D01*
X81959533Y-40113280D01*
X82340485Y-40113280D02*
X82959533Y-40113280D01*
X82626200Y-40494233D01*
X82769057Y-40494233D01*
X82864295Y-40541852D01*
X82911914Y-40589471D01*
X82959533Y-40684709D01*
X82959533Y-40922804D01*
X82911914Y-41018042D01*
X82864295Y-41065661D01*
X82769057Y-41113280D01*
X82483342Y-41113280D01*
X82388104Y-41065661D01*
X82340485Y-41018042D01*
X83816676Y-40113280D02*
X83626200Y-40113280D01*
X83530961Y-40160900D01*
X83483342Y-40208519D01*
X83388104Y-40351376D01*
X83340485Y-40541852D01*
X83340485Y-40922804D01*
X83388104Y-41018042D01*
X83435723Y-41065661D01*
X83530961Y-41113280D01*
X83721438Y-41113280D01*
X83816676Y-41065661D01*
X83864295Y-41018042D01*
X83911914Y-40922804D01*
X83911914Y-40684709D01*
X83864295Y-40589471D01*
X83816676Y-40541852D01*
X83721438Y-40494233D01*
X83530961Y-40494233D01*
X83435723Y-40541852D01*
X83388104Y-40589471D01*
X83340485Y-40684709D01*
%TO.C,R2*%
X124928333Y-131287780D02*
X124595000Y-130811590D01*
X124356904Y-131287780D02*
X124356904Y-130287780D01*
X124737857Y-130287780D01*
X124833095Y-130335400D01*
X124880714Y-130383019D01*
X124928333Y-130478257D01*
X124928333Y-130621114D01*
X124880714Y-130716352D01*
X124833095Y-130763971D01*
X124737857Y-130811590D01*
X124356904Y-130811590D01*
X125309285Y-130383019D02*
X125356904Y-130335400D01*
X125452142Y-130287780D01*
X125690238Y-130287780D01*
X125785476Y-130335400D01*
X125833095Y-130383019D01*
X125880714Y-130478257D01*
X125880714Y-130573495D01*
X125833095Y-130716352D01*
X125261666Y-131287780D01*
X125880714Y-131287780D01*
%TO.C,R8*%
X111684933Y-132932480D02*
X111351600Y-132456290D01*
X111113504Y-132932480D02*
X111113504Y-131932480D01*
X111494457Y-131932480D01*
X111589695Y-131980100D01*
X111637314Y-132027719D01*
X111684933Y-132122957D01*
X111684933Y-132265814D01*
X111637314Y-132361052D01*
X111589695Y-132408671D01*
X111494457Y-132456290D01*
X111113504Y-132456290D01*
X112256361Y-132361052D02*
X112161123Y-132313433D01*
X112113504Y-132265814D01*
X112065885Y-132170576D01*
X112065885Y-132122957D01*
X112113504Y-132027719D01*
X112161123Y-131980100D01*
X112256361Y-131932480D01*
X112446838Y-131932480D01*
X112542076Y-131980100D01*
X112589695Y-132027719D01*
X112637314Y-132122957D01*
X112637314Y-132170576D01*
X112589695Y-132265814D01*
X112542076Y-132313433D01*
X112446838Y-132361052D01*
X112256361Y-132361052D01*
X112161123Y-132408671D01*
X112113504Y-132456290D01*
X112065885Y-132551528D01*
X112065885Y-132742004D01*
X112113504Y-132837242D01*
X112161123Y-132884861D01*
X112256361Y-132932480D01*
X112446838Y-132932480D01*
X112542076Y-132884861D01*
X112589695Y-132837242D01*
X112637314Y-132742004D01*
X112637314Y-132551528D01*
X112589695Y-132456290D01*
X112542076Y-132408671D01*
X112446838Y-132361052D01*
%TO.C,R39*%
X227195980Y-104786557D02*
X226719790Y-105119890D01*
X227195980Y-105357985D02*
X226195980Y-105357985D01*
X226195980Y-104977033D01*
X226243600Y-104881795D01*
X226291219Y-104834176D01*
X226386457Y-104786557D01*
X226529314Y-104786557D01*
X226624552Y-104834176D01*
X226672171Y-104881795D01*
X226719790Y-104977033D01*
X226719790Y-105357985D01*
X226195980Y-104453223D02*
X226195980Y-103834176D01*
X226576933Y-104167509D01*
X226576933Y-104024652D01*
X226624552Y-103929414D01*
X226672171Y-103881795D01*
X226767409Y-103834176D01*
X227005504Y-103834176D01*
X227100742Y-103881795D01*
X227148361Y-103929414D01*
X227195980Y-104024652D01*
X227195980Y-104310366D01*
X227148361Y-104405604D01*
X227100742Y-104453223D01*
X227195980Y-103357985D02*
X227195980Y-103167509D01*
X227148361Y-103072271D01*
X227100742Y-103024652D01*
X226957885Y-102929414D01*
X226767409Y-102881795D01*
X226386457Y-102881795D01*
X226291219Y-102929414D01*
X226243600Y-102977033D01*
X226195980Y-103072271D01*
X226195980Y-103262747D01*
X226243600Y-103357985D01*
X226291219Y-103405604D01*
X226386457Y-103453223D01*
X226624552Y-103453223D01*
X226719790Y-103405604D01*
X226767409Y-103357985D01*
X226815028Y-103262747D01*
X226815028Y-103072271D01*
X226767409Y-102977033D01*
X226719790Y-102929414D01*
X226624552Y-102881795D01*
%TO.C,R22*%
X167617980Y-104786557D02*
X167141790Y-105119890D01*
X167617980Y-105357985D02*
X166617980Y-105357985D01*
X166617980Y-104977033D01*
X166665600Y-104881795D01*
X166713219Y-104834176D01*
X166808457Y-104786557D01*
X166951314Y-104786557D01*
X167046552Y-104834176D01*
X167094171Y-104881795D01*
X167141790Y-104977033D01*
X167141790Y-105357985D01*
X166713219Y-104405604D02*
X166665600Y-104357985D01*
X166617980Y-104262747D01*
X166617980Y-104024652D01*
X166665600Y-103929414D01*
X166713219Y-103881795D01*
X166808457Y-103834176D01*
X166903695Y-103834176D01*
X167046552Y-103881795D01*
X167617980Y-104453223D01*
X167617980Y-103834176D01*
X166713219Y-103453223D02*
X166665600Y-103405604D01*
X166617980Y-103310366D01*
X166617980Y-103072271D01*
X166665600Y-102977033D01*
X166713219Y-102929414D01*
X166808457Y-102881795D01*
X166903695Y-102881795D01*
X167046552Y-102929414D01*
X167617980Y-103500842D01*
X167617980Y-102881795D01*
%TO.C,R36*%
X213987980Y-104776557D02*
X213511790Y-105109890D01*
X213987980Y-105347985D02*
X212987980Y-105347985D01*
X212987980Y-104967033D01*
X213035600Y-104871795D01*
X213083219Y-104824176D01*
X213178457Y-104776557D01*
X213321314Y-104776557D01*
X213416552Y-104824176D01*
X213464171Y-104871795D01*
X213511790Y-104967033D01*
X213511790Y-105347985D01*
X212987980Y-104443223D02*
X212987980Y-103824176D01*
X213368933Y-104157509D01*
X213368933Y-104014652D01*
X213416552Y-103919414D01*
X213464171Y-103871795D01*
X213559409Y-103824176D01*
X213797504Y-103824176D01*
X213892742Y-103871795D01*
X213940361Y-103919414D01*
X213987980Y-104014652D01*
X213987980Y-104300366D01*
X213940361Y-104395604D01*
X213892742Y-104443223D01*
X212987980Y-102967033D02*
X212987980Y-103157509D01*
X213035600Y-103252747D01*
X213083219Y-103300366D01*
X213226076Y-103395604D01*
X213416552Y-103443223D01*
X213797504Y-103443223D01*
X213892742Y-103395604D01*
X213940361Y-103347985D01*
X213987980Y-103252747D01*
X213987980Y-103062271D01*
X213940361Y-102967033D01*
X213892742Y-102919414D01*
X213797504Y-102871795D01*
X213559409Y-102871795D01*
X213464171Y-102919414D01*
X213416552Y-102967033D01*
X213368933Y-103062271D01*
X213368933Y-103252747D01*
X213416552Y-103347985D01*
X213464171Y-103395604D01*
X213559409Y-103443223D01*
%TO.C,R15*%
X234622580Y-125375957D02*
X234146390Y-125709290D01*
X234622580Y-125947385D02*
X233622580Y-125947385D01*
X233622580Y-125566433D01*
X233670200Y-125471195D01*
X233717819Y-125423576D01*
X233813057Y-125375957D01*
X233955914Y-125375957D01*
X234051152Y-125423576D01*
X234098771Y-125471195D01*
X234146390Y-125566433D01*
X234146390Y-125947385D01*
X234622580Y-124423576D02*
X234622580Y-124995004D01*
X234622580Y-124709290D02*
X233622580Y-124709290D01*
X233765438Y-124804528D01*
X233860676Y-124899766D01*
X233908295Y-124995004D01*
X233622580Y-123518814D02*
X233622580Y-123995004D01*
X234098771Y-124042623D01*
X234051152Y-123995004D01*
X234003533Y-123899766D01*
X234003533Y-123661671D01*
X234051152Y-123566433D01*
X234098771Y-123518814D01*
X234194009Y-123471195D01*
X234432104Y-123471195D01*
X234527342Y-123518814D01*
X234574961Y-123566433D01*
X234622580Y-123661671D01*
X234622580Y-123899766D01*
X234574961Y-123995004D01*
X234527342Y-124042623D01*
%TO.C,C3*%
X140934933Y-122256242D02*
X140887314Y-122303861D01*
X140744457Y-122351480D01*
X140649219Y-122351480D01*
X140506361Y-122303861D01*
X140411123Y-122208623D01*
X140363504Y-122113385D01*
X140315885Y-121922909D01*
X140315885Y-121780052D01*
X140363504Y-121589576D01*
X140411123Y-121494338D01*
X140506361Y-121399100D01*
X140649219Y-121351480D01*
X140744457Y-121351480D01*
X140887314Y-121399100D01*
X140934933Y-121446719D01*
X141268266Y-121351480D02*
X141887314Y-121351480D01*
X141553980Y-121732433D01*
X141696838Y-121732433D01*
X141792076Y-121780052D01*
X141839695Y-121827671D01*
X141887314Y-121922909D01*
X141887314Y-122161004D01*
X141839695Y-122256242D01*
X141792076Y-122303861D01*
X141696838Y-122351480D01*
X141411123Y-122351480D01*
X141315885Y-122303861D01*
X141268266Y-122256242D01*
%TO.C,R5*%
X138394933Y-121291480D02*
X138061600Y-120815290D01*
X137823504Y-121291480D02*
X137823504Y-120291480D01*
X138204457Y-120291480D01*
X138299695Y-120339100D01*
X138347314Y-120386719D01*
X138394933Y-120481957D01*
X138394933Y-120624814D01*
X138347314Y-120720052D01*
X138299695Y-120767671D01*
X138204457Y-120815290D01*
X137823504Y-120815290D01*
X139299695Y-120291480D02*
X138823504Y-120291480D01*
X138775885Y-120767671D01*
X138823504Y-120720052D01*
X138918742Y-120672433D01*
X139156838Y-120672433D01*
X139252076Y-120720052D01*
X139299695Y-120767671D01*
X139347314Y-120862909D01*
X139347314Y-121101004D01*
X139299695Y-121196242D01*
X139252076Y-121243861D01*
X139156838Y-121291480D01*
X138918742Y-121291480D01*
X138823504Y-121243861D01*
X138775885Y-121196242D01*
%TO.C,R23*%
X187429980Y-104786557D02*
X186953790Y-105119890D01*
X187429980Y-105357985D02*
X186429980Y-105357985D01*
X186429980Y-104977033D01*
X186477600Y-104881795D01*
X186525219Y-104834176D01*
X186620457Y-104786557D01*
X186763314Y-104786557D01*
X186858552Y-104834176D01*
X186906171Y-104881795D01*
X186953790Y-104977033D01*
X186953790Y-105357985D01*
X186525219Y-104405604D02*
X186477600Y-104357985D01*
X186429980Y-104262747D01*
X186429980Y-104024652D01*
X186477600Y-103929414D01*
X186525219Y-103881795D01*
X186620457Y-103834176D01*
X186715695Y-103834176D01*
X186858552Y-103881795D01*
X187429980Y-104453223D01*
X187429980Y-103834176D01*
X186429980Y-103500842D02*
X186429980Y-102881795D01*
X186810933Y-103215128D01*
X186810933Y-103072271D01*
X186858552Y-102977033D01*
X186906171Y-102929414D01*
X187001409Y-102881795D01*
X187239504Y-102881795D01*
X187334742Y-102929414D01*
X187382361Y-102977033D01*
X187429980Y-103072271D01*
X187429980Y-103357985D01*
X187382361Y-103453223D01*
X187334742Y-103500842D01*
%TO.C,U49*%
X208855304Y-39879680D02*
X208855304Y-40689204D01*
X208902923Y-40784442D01*
X208950542Y-40832061D01*
X209045780Y-40879680D01*
X209236257Y-40879680D01*
X209331495Y-40832061D01*
X209379114Y-40784442D01*
X209426733Y-40689204D01*
X209426733Y-39879680D01*
X210331495Y-40213014D02*
X210331495Y-40879680D01*
X210093400Y-39832061D02*
X209855304Y-40546347D01*
X210474352Y-40546347D01*
X210902923Y-40879680D02*
X211093400Y-40879680D01*
X211188638Y-40832061D01*
X211236257Y-40784442D01*
X211331495Y-40641585D01*
X211379114Y-40451109D01*
X211379114Y-40070157D01*
X211331495Y-39974919D01*
X211283876Y-39927300D01*
X211188638Y-39879680D01*
X210998161Y-39879680D01*
X210902923Y-39927300D01*
X210855304Y-39974919D01*
X210807685Y-40070157D01*
X210807685Y-40308252D01*
X210855304Y-40403490D01*
X210902923Y-40451109D01*
X210998161Y-40498728D01*
X211188638Y-40498728D01*
X211283876Y-40451109D01*
X211331495Y-40403490D01*
X211379114Y-40308252D01*
%TO.C,R43*%
X237101980Y-104811957D02*
X236625790Y-105145290D01*
X237101980Y-105383385D02*
X236101980Y-105383385D01*
X236101980Y-105002433D01*
X236149600Y-104907195D01*
X236197219Y-104859576D01*
X236292457Y-104811957D01*
X236435314Y-104811957D01*
X236530552Y-104859576D01*
X236578171Y-104907195D01*
X236625790Y-105002433D01*
X236625790Y-105383385D01*
X236435314Y-103954814D02*
X237101980Y-103954814D01*
X236054361Y-104192909D02*
X236768647Y-104431004D01*
X236768647Y-103811957D01*
X236101980Y-103526242D02*
X236101980Y-102907195D01*
X236482933Y-103240528D01*
X236482933Y-103097671D01*
X236530552Y-103002433D01*
X236578171Y-102954814D01*
X236673409Y-102907195D01*
X236911504Y-102907195D01*
X237006742Y-102954814D01*
X237054361Y-103002433D01*
X237101980Y-103097671D01*
X237101980Y-103383385D01*
X237054361Y-103478623D01*
X237006742Y-103526242D01*
%TO.C,U16*%
X54626504Y-96699480D02*
X54626504Y-97509004D01*
X54674123Y-97604242D01*
X54721742Y-97651861D01*
X54816980Y-97699480D01*
X55007457Y-97699480D01*
X55102695Y-97651861D01*
X55150314Y-97604242D01*
X55197933Y-97509004D01*
X55197933Y-96699480D01*
X56197933Y-97699480D02*
X55626504Y-97699480D01*
X55912219Y-97699480D02*
X55912219Y-96699480D01*
X55816980Y-96842338D01*
X55721742Y-96937576D01*
X55626504Y-96985195D01*
X57055076Y-96699480D02*
X56864600Y-96699480D01*
X56769361Y-96747100D01*
X56721742Y-96794719D01*
X56626504Y-96937576D01*
X56578885Y-97128052D01*
X56578885Y-97509004D01*
X56626504Y-97604242D01*
X56674123Y-97651861D01*
X56769361Y-97699480D01*
X56959838Y-97699480D01*
X57055076Y-97651861D01*
X57102695Y-97604242D01*
X57150314Y-97509004D01*
X57150314Y-97270909D01*
X57102695Y-97175671D01*
X57055076Y-97128052D01*
X56959838Y-97080433D01*
X56769361Y-97080433D01*
X56674123Y-97128052D01*
X56626504Y-97175671D01*
X56578885Y-97270909D01*
%TO.C,U44*%
X151365104Y-40037080D02*
X151365104Y-40846604D01*
X151412723Y-40941842D01*
X151460342Y-40989461D01*
X151555580Y-41037080D01*
X151746057Y-41037080D01*
X151841295Y-40989461D01*
X151888914Y-40941842D01*
X151936533Y-40846604D01*
X151936533Y-40037080D01*
X152841295Y-40370414D02*
X152841295Y-41037080D01*
X152603200Y-39989461D02*
X152365104Y-40703747D01*
X152984152Y-40703747D01*
X153793676Y-40370414D02*
X153793676Y-41037080D01*
X153555580Y-39989461D02*
X153317485Y-40703747D01*
X153936533Y-40703747D01*
%TO.C,R32*%
X204081980Y-104786557D02*
X203605790Y-105119890D01*
X204081980Y-105357985D02*
X203081980Y-105357985D01*
X203081980Y-104977033D01*
X203129600Y-104881795D01*
X203177219Y-104834176D01*
X203272457Y-104786557D01*
X203415314Y-104786557D01*
X203510552Y-104834176D01*
X203558171Y-104881795D01*
X203605790Y-104977033D01*
X203605790Y-105357985D01*
X203081980Y-104453223D02*
X203081980Y-103834176D01*
X203462933Y-104167509D01*
X203462933Y-104024652D01*
X203510552Y-103929414D01*
X203558171Y-103881795D01*
X203653409Y-103834176D01*
X203891504Y-103834176D01*
X203986742Y-103881795D01*
X204034361Y-103929414D01*
X204081980Y-104024652D01*
X204081980Y-104310366D01*
X204034361Y-104405604D01*
X203986742Y-104453223D01*
X203177219Y-103453223D02*
X203129600Y-103405604D01*
X203081980Y-103310366D01*
X203081980Y-103072271D01*
X203129600Y-102977033D01*
X203177219Y-102929414D01*
X203272457Y-102881795D01*
X203367695Y-102881795D01*
X203510552Y-102929414D01*
X204081980Y-103500842D01*
X204081980Y-102881795D01*
%TO.C,U37*%
X95246504Y-40067480D02*
X95246504Y-40877004D01*
X95294123Y-40972242D01*
X95341742Y-41019861D01*
X95436980Y-41067480D01*
X95627457Y-41067480D01*
X95722695Y-41019861D01*
X95770314Y-40972242D01*
X95817933Y-40877004D01*
X95817933Y-40067480D01*
X96198885Y-40067480D02*
X96817933Y-40067480D01*
X96484600Y-40448433D01*
X96627457Y-40448433D01*
X96722695Y-40496052D01*
X96770314Y-40543671D01*
X96817933Y-40638909D01*
X96817933Y-40877004D01*
X96770314Y-40972242D01*
X96722695Y-41019861D01*
X96627457Y-41067480D01*
X96341742Y-41067480D01*
X96246504Y-41019861D01*
X96198885Y-40972242D01*
X97151266Y-40067480D02*
X97817933Y-40067480D01*
X97389361Y-41067480D01*
%TO.C,U20*%
X66681504Y-96704480D02*
X66681504Y-97514004D01*
X66729123Y-97609242D01*
X66776742Y-97656861D01*
X66871980Y-97704480D01*
X67062457Y-97704480D01*
X67157695Y-97656861D01*
X67205314Y-97609242D01*
X67252933Y-97514004D01*
X67252933Y-96704480D01*
X67681504Y-96799719D02*
X67729123Y-96752100D01*
X67824361Y-96704480D01*
X68062457Y-96704480D01*
X68157695Y-96752100D01*
X68205314Y-96799719D01*
X68252933Y-96894957D01*
X68252933Y-96990195D01*
X68205314Y-97133052D01*
X67633885Y-97704480D01*
X68252933Y-97704480D01*
X68871980Y-96704480D02*
X68967219Y-96704480D01*
X69062457Y-96752100D01*
X69110076Y-96799719D01*
X69157695Y-96894957D01*
X69205314Y-97085433D01*
X69205314Y-97323528D01*
X69157695Y-97514004D01*
X69110076Y-97609242D01*
X69062457Y-97656861D01*
X68967219Y-97704480D01*
X68871980Y-97704480D01*
X68776742Y-97656861D01*
X68729123Y-97609242D01*
X68681504Y-97514004D01*
X68633885Y-97323528D01*
X68633885Y-97085433D01*
X68681504Y-96894957D01*
X68729123Y-96799719D01*
X68776742Y-96752100D01*
X68871980Y-96704480D01*
%TO.C,U28*%
X108845504Y-40062480D02*
X108845504Y-40872004D01*
X108893123Y-40967242D01*
X108940742Y-41014861D01*
X109035980Y-41062480D01*
X109226457Y-41062480D01*
X109321695Y-41014861D01*
X109369314Y-40967242D01*
X109416933Y-40872004D01*
X109416933Y-40062480D01*
X109845504Y-40157719D02*
X109893123Y-40110100D01*
X109988361Y-40062480D01*
X110226457Y-40062480D01*
X110321695Y-40110100D01*
X110369314Y-40157719D01*
X110416933Y-40252957D01*
X110416933Y-40348195D01*
X110369314Y-40491052D01*
X109797885Y-41062480D01*
X110416933Y-41062480D01*
X110988361Y-40491052D02*
X110893123Y-40443433D01*
X110845504Y-40395814D01*
X110797885Y-40300576D01*
X110797885Y-40252957D01*
X110845504Y-40157719D01*
X110893123Y-40110100D01*
X110988361Y-40062480D01*
X111178838Y-40062480D01*
X111274076Y-40110100D01*
X111321695Y-40157719D01*
X111369314Y-40252957D01*
X111369314Y-40300576D01*
X111321695Y-40395814D01*
X111274076Y-40443433D01*
X111178838Y-40491052D01*
X110988361Y-40491052D01*
X110893123Y-40538671D01*
X110845504Y-40586290D01*
X110797885Y-40681528D01*
X110797885Y-40872004D01*
X110845504Y-40967242D01*
X110893123Y-41014861D01*
X110988361Y-41062480D01*
X111178838Y-41062480D01*
X111274076Y-41014861D01*
X111321695Y-40967242D01*
X111369314Y-40872004D01*
X111369314Y-40681528D01*
X111321695Y-40586290D01*
X111274076Y-40538671D01*
X111178838Y-40491052D01*
%TO.C,C7*%
X54052333Y-124515242D02*
X54004714Y-124562861D01*
X53861857Y-124610480D01*
X53766619Y-124610480D01*
X53623761Y-124562861D01*
X53528523Y-124467623D01*
X53480904Y-124372385D01*
X53433285Y-124181909D01*
X53433285Y-124039052D01*
X53480904Y-123848576D01*
X53528523Y-123753338D01*
X53623761Y-123658100D01*
X53766619Y-123610480D01*
X53861857Y-123610480D01*
X54004714Y-123658100D01*
X54052333Y-123705719D01*
X54385666Y-123610480D02*
X55052333Y-123610480D01*
X54623761Y-124610480D01*
%TO.C,D1*%
X156828504Y-119533080D02*
X156828504Y-118533080D01*
X157066600Y-118533080D01*
X157209457Y-118580700D01*
X157304695Y-118675938D01*
X157352314Y-118771176D01*
X157399933Y-118961652D01*
X157399933Y-119104509D01*
X157352314Y-119294985D01*
X157304695Y-119390223D01*
X157209457Y-119485461D01*
X157066600Y-119533080D01*
X156828504Y-119533080D01*
X158352314Y-119533080D02*
X157780885Y-119533080D01*
X158066600Y-119533080D02*
X158066600Y-118533080D01*
X157971361Y-118675938D01*
X157876123Y-118771176D01*
X157780885Y-118818795D01*
%TO.C,R17*%
X161013980Y-104786557D02*
X160537790Y-105119890D01*
X161013980Y-105357985D02*
X160013980Y-105357985D01*
X160013980Y-104977033D01*
X160061600Y-104881795D01*
X160109219Y-104834176D01*
X160204457Y-104786557D01*
X160347314Y-104786557D01*
X160442552Y-104834176D01*
X160490171Y-104881795D01*
X160537790Y-104977033D01*
X160537790Y-105357985D01*
X161013980Y-103834176D02*
X161013980Y-104405604D01*
X161013980Y-104119890D02*
X160013980Y-104119890D01*
X160156838Y-104215128D01*
X160252076Y-104310366D01*
X160299695Y-104405604D01*
X160013980Y-103500842D02*
X160013980Y-102834176D01*
X161013980Y-103262747D01*
%TO.C,R18*%
X157711980Y-104786557D02*
X157235790Y-105119890D01*
X157711980Y-105357985D02*
X156711980Y-105357985D01*
X156711980Y-104977033D01*
X156759600Y-104881795D01*
X156807219Y-104834176D01*
X156902457Y-104786557D01*
X157045314Y-104786557D01*
X157140552Y-104834176D01*
X157188171Y-104881795D01*
X157235790Y-104977033D01*
X157235790Y-105357985D01*
X157711980Y-103834176D02*
X157711980Y-104405604D01*
X157711980Y-104119890D02*
X156711980Y-104119890D01*
X156854838Y-104215128D01*
X156950076Y-104310366D01*
X156997695Y-104405604D01*
X157140552Y-103262747D02*
X157092933Y-103357985D01*
X157045314Y-103405604D01*
X156950076Y-103453223D01*
X156902457Y-103453223D01*
X156807219Y-103405604D01*
X156759600Y-103357985D01*
X156711980Y-103262747D01*
X156711980Y-103072271D01*
X156759600Y-102977033D01*
X156807219Y-102929414D01*
X156902457Y-102881795D01*
X156950076Y-102881795D01*
X157045314Y-102929414D01*
X157092933Y-102977033D01*
X157140552Y-103072271D01*
X157140552Y-103262747D01*
X157188171Y-103357985D01*
X157235790Y-103405604D01*
X157331028Y-103453223D01*
X157521504Y-103453223D01*
X157616742Y-103405604D01*
X157664361Y-103357985D01*
X157711980Y-103262747D01*
X157711980Y-103072271D01*
X157664361Y-102977033D01*
X157616742Y-102929414D01*
X157521504Y-102881795D01*
X157331028Y-102881795D01*
X157235790Y-102929414D01*
X157188171Y-102977033D01*
X157140552Y-103072271D01*
D12*
%TO.C,Q2*%
X62934600Y-123154100D02*
X66534600Y-123154100D01*
X66573078Y-123142578D02*
G75*
G03*
X64734600Y-118704100I-1838478J1838478D01*
G01*
X64734600Y-118704099D02*
G75*
G03*
X62896122Y-123142578I0J-2600001D01*
G01*
%TO.C,U5*%
X123724600Y-108832100D02*
X123724600Y-110482100D01*
X141624600Y-110482100D02*
X141624600Y-105182100D01*
X141624600Y-105182100D02*
X123724600Y-105182100D01*
X123724600Y-110482100D02*
X141624600Y-110482100D01*
X123724600Y-105182100D02*
X123724600Y-106832100D01*
X123724600Y-108832100D02*
G75*
G03*
X123724600Y-106832100I0J1000000D01*
G01*
%TO.C,U10*%
X207454400Y-124559100D02*
X214454400Y-124559100D01*
X206454400Y-129559100D02*
X205454400Y-134559100D01*
X204044400Y-135274100D02*
X204044400Y-123844100D01*
X212454400Y-134559100D02*
X213454400Y-129559100D01*
X216864400Y-135274100D02*
X216864400Y-123844100D01*
X205454400Y-134559100D02*
X212454400Y-134559100D01*
X214454400Y-124559100D02*
X213454400Y-129559100D01*
X213454400Y-129559100D02*
X206454400Y-129559100D01*
X205154400Y-139194100D02*
X216754400Y-139194100D01*
X207454400Y-124559100D02*
X206454400Y-129559100D01*
X216754400Y-119924100D02*
X204154400Y-119924100D01*
X214901614Y-134559100D02*
G75*
G03*
X214901614Y-134559100I-447214J0D01*
G01*
%TO.C,U51*%
X220955200Y-41376500D02*
X219305200Y-41376500D01*
X219305200Y-41376500D02*
X219305200Y-59276500D01*
X224605200Y-41376500D02*
X222955200Y-41376500D01*
X224605200Y-59276500D02*
X224605200Y-41376500D01*
X219305200Y-59276500D02*
X224605200Y-59276500D01*
X220955200Y-41376500D02*
G75*
G03*
X222955200Y-41376500I1000000J0D01*
G01*
%TO.C,U53*%
X236162200Y-59225700D02*
X236162200Y-41325700D01*
X230862200Y-41325700D02*
X230862200Y-59225700D01*
X236162200Y-41325700D02*
X234512200Y-41325700D01*
X232512200Y-41325700D02*
X230862200Y-41325700D01*
X230862200Y-59225700D02*
X236162200Y-59225700D01*
X232512200Y-41325700D02*
G75*
G03*
X234512200Y-41325700I1000000J0D01*
G01*
%TO.C,U33*%
X120895600Y-41610100D02*
X120895600Y-59510100D01*
X126195600Y-59510100D02*
X126195600Y-41610100D01*
X122545600Y-41610100D02*
X120895600Y-41610100D01*
X120895600Y-59510100D02*
X126195600Y-59510100D01*
X126195600Y-41610100D02*
X124545600Y-41610100D01*
X122545600Y-41610100D02*
G75*
G03*
X124545600Y-41610100I1000000J0D01*
G01*
%TO.C,R40*%
X222441600Y-100873700D02*
X219701600Y-100873700D01*
X219701600Y-107413700D02*
X222441600Y-107413700D01*
X221071600Y-108183700D02*
X221071600Y-107413700D01*
X221071600Y-100103700D02*
X221071600Y-100873700D01*
X222441600Y-107413700D02*
X222441600Y-100873700D01*
X219701600Y-100873700D02*
X219701600Y-107413700D01*
%TO.C,R30*%
X209233600Y-107413700D02*
X209233600Y-100873700D01*
X207863600Y-100103700D02*
X207863600Y-100873700D01*
X207863600Y-108183700D02*
X207863600Y-107413700D01*
X209233600Y-100873700D02*
X206493600Y-100873700D01*
X206493600Y-107413700D02*
X209233600Y-107413700D01*
X206493600Y-100873700D02*
X206493600Y-107413700D01*
%TO.C,U12*%
X238810000Y-89215500D02*
X218370000Y-89215500D01*
X218370000Y-94515500D02*
X238810000Y-94515500D01*
X238810000Y-90865500D02*
X238810000Y-89215500D01*
X238810000Y-94515500D02*
X238810000Y-92865500D01*
X218370000Y-89215500D02*
X218370000Y-94515500D01*
X238810000Y-90865500D02*
G75*
G03*
X238810000Y-92865500I0J-1000000D01*
G01*
%TO.C,U21*%
X46813400Y-90671100D02*
X46813400Y-92321100D01*
X46813400Y-87021100D02*
X46813400Y-88671100D01*
X64713400Y-92321100D02*
X64713400Y-87021100D01*
X64713400Y-87021100D02*
X46813400Y-87021100D01*
X46813400Y-92321100D02*
X64713400Y-92321100D01*
X46813400Y-90671100D02*
G75*
G03*
X46813400Y-88671100I0J1000000D01*
G01*
%TO.C,U11*%
X49226000Y-139636300D02*
X49226000Y-134995300D01*
X59466000Y-139636300D02*
X49226000Y-139636300D01*
X59466000Y-138126300D02*
X49226000Y-138126300D01*
X59466000Y-139636300D02*
X59466000Y-134995300D01*
X59466000Y-134995300D02*
X49226000Y-134995300D01*
X56196000Y-139636300D02*
X56196000Y-138126300D01*
X52495000Y-139636300D02*
X52495000Y-138126300D01*
%TO.C,SW3*%
X171743600Y-136838300D02*
X171743600Y-132338300D01*
X165243600Y-132338300D02*
X165243600Y-136838300D01*
X169243600Y-131088300D02*
X167743600Y-131088300D01*
X167743600Y-138088300D02*
X169243600Y-138088300D01*
%TO.C,U25*%
X70696600Y-81227100D02*
X70696600Y-63327100D01*
X67046600Y-63327100D02*
X65396600Y-63327100D01*
X70696600Y-63327100D02*
X69046600Y-63327100D01*
X65396600Y-81227100D02*
X70696600Y-81227100D01*
X65396600Y-63327100D02*
X65396600Y-81227100D01*
X67046600Y-63327100D02*
G75*
G03*
X69046600Y-63327100I1000000J0D01*
G01*
%TO.C,U54*%
X106198600Y-120803100D02*
X106198600Y-122453100D01*
X124098600Y-120803100D02*
X106198600Y-120803100D01*
X106198600Y-126103100D02*
X124098600Y-126103100D01*
X124098600Y-126103100D02*
X124098600Y-120803100D01*
X106198600Y-124453100D02*
X106198600Y-126103100D01*
X106198600Y-124453100D02*
G75*
G03*
X106198600Y-122453100I0J1000000D01*
G01*
%TO.C,U18*%
X40377600Y-81227100D02*
X45677600Y-81227100D01*
X45677600Y-63327100D02*
X44027600Y-63327100D01*
X45677600Y-81227100D02*
X45677600Y-63327100D01*
X42027600Y-63327100D02*
X40377600Y-63327100D01*
X40377600Y-63327100D02*
X40377600Y-81227100D01*
X42027600Y-63327100D02*
G75*
G03*
X44027600Y-63327100I1000000J0D01*
G01*
%TO.C,R29*%
X186539600Y-100873700D02*
X186539600Y-107413700D01*
X189279600Y-100873700D02*
X186539600Y-100873700D01*
X187909600Y-108183700D02*
X187909600Y-107413700D01*
X187909600Y-100103700D02*
X187909600Y-100873700D01*
X189279600Y-107413700D02*
X189279600Y-100873700D01*
X186539600Y-107413700D02*
X189279600Y-107413700D01*
%TO.C,U35*%
X136414000Y-63504900D02*
X134764000Y-63504900D01*
X134764000Y-63504900D02*
X134764000Y-81404900D01*
X140064000Y-63504900D02*
X138414000Y-63504900D01*
X134764000Y-81404900D02*
X140064000Y-81404900D01*
X140064000Y-81404900D02*
X140064000Y-63504900D01*
X136414000Y-63504900D02*
G75*
G03*
X138414000Y-63504900I1000000J0D01*
G01*
%TO.C,R13*%
X147565600Y-124409500D02*
X147565600Y-130949500D01*
X148935600Y-123639500D02*
X148935600Y-124409500D01*
X150305600Y-124409500D02*
X147565600Y-124409500D01*
X150305600Y-130949500D02*
X150305600Y-124409500D01*
X147565600Y-130949500D02*
X150305600Y-130949500D01*
X148935600Y-131719500D02*
X148935600Y-130949500D01*
%TO.C,SW1*%
X169243600Y-121029900D02*
X167743600Y-121029900D01*
X165243600Y-122279900D02*
X165243600Y-126779900D01*
X167743600Y-128029900D02*
X169243600Y-128029900D01*
X171743600Y-126779900D02*
X171743600Y-122279900D01*
%TO.C,U41*%
X155278600Y-63352500D02*
X153628600Y-63352500D01*
X149978600Y-63352500D02*
X149978600Y-81252500D01*
X149978600Y-81252500D02*
X155278600Y-81252500D01*
X151628600Y-63352500D02*
X149978600Y-63352500D01*
X155278600Y-81252500D02*
X155278600Y-63352500D01*
X151628600Y-63352500D02*
G75*
G03*
X153628600Y-63352500I1000000J0D01*
G01*
%TO.C,U26*%
X95520000Y-63377900D02*
X93870000Y-63377900D01*
X99170000Y-63377900D02*
X97520000Y-63377900D01*
X99170000Y-81277900D02*
X99170000Y-63377900D01*
X93870000Y-81277900D02*
X99170000Y-81277900D01*
X93870000Y-63377900D02*
X93870000Y-81277900D01*
X95520000Y-63377900D02*
G75*
G03*
X97520000Y-63377900I1000000J0D01*
G01*
%TO.C,U38*%
X201125600Y-81257500D02*
X201125600Y-63357500D01*
X197475600Y-63357500D02*
X195825600Y-63357500D01*
X201125600Y-63357500D02*
X199475600Y-63357500D01*
X195825600Y-63357500D02*
X195825600Y-81257500D01*
X195825600Y-81257500D02*
X201125600Y-81257500D01*
X197475600Y-63357500D02*
G75*
G03*
X199475600Y-63357500I1000000J0D01*
G01*
%TO.C,R25*%
X176633600Y-100873700D02*
X176633600Y-107413700D01*
X176633600Y-107413700D02*
X179373600Y-107413700D01*
X178003600Y-108183700D02*
X178003600Y-107413700D01*
X179373600Y-100873700D02*
X176633600Y-100873700D01*
X178003600Y-100103700D02*
X178003600Y-100873700D01*
X179373600Y-107413700D02*
X179373600Y-100873700D01*
%TO.C,U14*%
X219830800Y-134559100D02*
X226830800Y-134559100D01*
X228830800Y-124559100D02*
X227830800Y-129559100D01*
X219530800Y-139194100D02*
X231130800Y-139194100D01*
X218420800Y-135274100D02*
X218420800Y-123844100D01*
X221830800Y-124559100D02*
X220830800Y-129559100D01*
X231240800Y-135274100D02*
X231240800Y-123844100D01*
X221830800Y-124559100D02*
X228830800Y-124559100D01*
X231130800Y-119924100D02*
X218530800Y-119924100D01*
X226830800Y-134559100D02*
X227830800Y-129559100D01*
X227830800Y-129559100D02*
X220830800Y-129559100D01*
X220830800Y-129559100D02*
X219830800Y-134559100D01*
X229278014Y-134559100D02*
G75*
G03*
X229278014Y-134559100I-447214J0D01*
G01*
%TO.C,R42*%
X238951600Y-100899100D02*
X236211600Y-100899100D01*
X236211600Y-107439100D02*
X238951600Y-107439100D01*
X237581600Y-100129100D02*
X237581600Y-100899100D01*
X238951600Y-107439100D02*
X238951600Y-100899100D01*
X236211600Y-100899100D02*
X236211600Y-107439100D01*
X237581600Y-108209100D02*
X237581600Y-107439100D01*
%TO.C,U8*%
X215782600Y-90850100D02*
X215782600Y-89200100D01*
X195342600Y-89200100D02*
X195342600Y-94500100D01*
X195342600Y-94500100D02*
X215782600Y-94500100D01*
X215782600Y-94500100D02*
X215782600Y-92850100D01*
X215782600Y-89200100D02*
X195342600Y-89200100D01*
X215782600Y-90850100D02*
G75*
G03*
X215782600Y-92850100I0J-1000000D01*
G01*
%TO.C,U31*%
X95401600Y-110355100D02*
X95401600Y-105055100D01*
X77501600Y-108705100D02*
X77501600Y-110355100D01*
X77501600Y-110355100D02*
X95401600Y-110355100D01*
X95401600Y-105055100D02*
X77501600Y-105055100D01*
X77501600Y-105055100D02*
X77501600Y-106705100D01*
X77501600Y-108705100D02*
G75*
G03*
X77501600Y-106705100I0J1000000D01*
G01*
%TO.C,R3*%
X121273600Y-138449100D02*
X122043600Y-138449100D01*
X128583600Y-137079100D02*
X122043600Y-137079100D01*
X129353600Y-138449100D02*
X128583600Y-138449100D01*
X122043600Y-139819100D02*
X128583600Y-139819100D01*
X128583600Y-139819100D02*
X128583600Y-137079100D01*
X122043600Y-137079100D02*
X122043600Y-139819100D01*
%TO.C,U50*%
X172899400Y-41554300D02*
X172899400Y-59454300D01*
X178199400Y-59454300D02*
X178199400Y-41554300D01*
X174549400Y-41554300D02*
X172899400Y-41554300D01*
X178199400Y-41554300D02*
X176549400Y-41554300D01*
X172899400Y-59454300D02*
X178199400Y-59454300D01*
X174549400Y-41554300D02*
G75*
G03*
X176549400Y-41554300I1000000J0D01*
G01*
%TO.C,Q1*%
X62934600Y-139643100D02*
X66534600Y-139643100D01*
X64734600Y-135193099D02*
G75*
G03*
X62896122Y-139631578I0J-2600001D01*
G01*
X66573078Y-139631578D02*
G75*
G03*
X64734600Y-135193100I-1838478J1838478D01*
G01*
%TO.C,U17*%
X42027600Y-41610100D02*
X40377600Y-41610100D01*
X40377600Y-41610100D02*
X40377600Y-59510100D01*
X40377600Y-59510100D02*
X45677600Y-59510100D01*
X45677600Y-59510100D02*
X45677600Y-41610100D01*
X45677600Y-41610100D02*
X44027600Y-41610100D01*
X42027600Y-41610100D02*
G75*
G03*
X44027600Y-41610100I1000000J0D01*
G01*
%TO.C,U6*%
X170196600Y-89073100D02*
X170196600Y-94373100D01*
X190636600Y-89073100D02*
X170196600Y-89073100D01*
X190636600Y-94373100D02*
X190636600Y-92723100D01*
X170196600Y-94373100D02*
X190636600Y-94373100D01*
X190636600Y-90723100D02*
X190636600Y-89073100D01*
X190636600Y-90723100D02*
G75*
G03*
X190636600Y-92723100I0J-1000000D01*
G01*
%TO.C,R20*%
X149655600Y-107413700D02*
X149655600Y-100873700D01*
X148285600Y-108183700D02*
X148285600Y-107413700D01*
X146915600Y-107413700D02*
X149655600Y-107413700D01*
X148285600Y-100103700D02*
X148285600Y-100873700D01*
X146915600Y-100873700D02*
X146915600Y-107413700D01*
X149655600Y-100873700D02*
X146915600Y-100873700D01*
%TO.C,U47*%
X161408600Y-81227100D02*
X166708600Y-81227100D01*
X166708600Y-81227100D02*
X166708600Y-63327100D01*
X166708600Y-63327100D02*
X165058600Y-63327100D01*
X163058600Y-63327100D02*
X161408600Y-63327100D01*
X161408600Y-63327100D02*
X161408600Y-81227100D01*
X163058600Y-63327100D02*
G75*
G03*
X165058600Y-63327100I1000000J0D01*
G01*
%TO.C,D2*%
X234060800Y-135841500D02*
X234060800Y-135997500D01*
X234060800Y-138157500D02*
X234060800Y-138313500D01*
X236661930Y-135997663D02*
G75*
G03*
X234579839Y-135997500I-1041130J-1079837D01*
G01*
X234060800Y-138313016D02*
G75*
G03*
X237293135Y-138156108I1560000J1235517D01*
G01*
X234579839Y-138157500D02*
G75*
G03*
X236661930Y-138157337I1040961J1080000D01*
G01*
X237293135Y-135998892D02*
G75*
G03*
X234060800Y-135841984I-1672335J-1078609D01*
G01*
%TO.C,R14*%
X71433600Y-127500100D02*
X71433600Y-124760100D01*
X64893600Y-124760100D02*
X64893600Y-127500100D01*
X71433600Y-124760100D02*
X64893600Y-124760100D01*
X64123600Y-126130100D02*
X64893600Y-126130100D01*
X64893600Y-127500100D02*
X71433600Y-127500100D01*
X72203600Y-126130100D02*
X71433600Y-126130100D01*
%TO.C,SW2*%
X161071600Y-130817100D02*
X161071600Y-129317100D01*
X159821600Y-126817100D02*
X155321600Y-126817100D01*
X154071600Y-129317100D02*
X154071600Y-130817100D01*
X155321600Y-133317100D02*
X159821600Y-133317100D01*
%TO.C,U4*%
X101753600Y-105055100D02*
X101753600Y-106705100D01*
X101753600Y-108705100D02*
X101753600Y-110355100D01*
X101753600Y-110355100D02*
X119653600Y-110355100D01*
X119653600Y-110355100D02*
X119653600Y-105055100D01*
X119653600Y-105055100D02*
X101753600Y-105055100D01*
X101753600Y-108705100D02*
G75*
G03*
X101753600Y-106705100I0J1000000D01*
G01*
%TO.C,R41*%
X217769600Y-100103700D02*
X217769600Y-100873700D01*
X216399600Y-107413700D02*
X219139600Y-107413700D01*
X216399600Y-100873700D02*
X216399600Y-107413700D01*
X219139600Y-107413700D02*
X219139600Y-100873700D01*
X217769600Y-108183700D02*
X217769600Y-107413700D01*
X219139600Y-100873700D02*
X216399600Y-100873700D01*
%TO.C,R12*%
X76069600Y-132888100D02*
X76069600Y-135628100D01*
X82609600Y-132888100D02*
X76069600Y-132888100D01*
X75299600Y-134258100D02*
X76069600Y-134258100D01*
X76069600Y-135628100D02*
X82609600Y-135628100D01*
X82609600Y-135628100D02*
X82609600Y-132888100D01*
X83379600Y-134258100D02*
X82609600Y-134258100D01*
%TO.C,U29*%
X140038600Y-59510100D02*
X140038600Y-41610100D01*
X140038600Y-41610100D02*
X138388600Y-41610100D01*
X134738600Y-41610100D02*
X134738600Y-59510100D01*
X136388600Y-41610100D02*
X134738600Y-41610100D01*
X134738600Y-59510100D02*
X140038600Y-59510100D01*
X136388600Y-41610100D02*
G75*
G03*
X138388600Y-41610100I1000000J0D01*
G01*
%TO.C,R19*%
X150217600Y-107413700D02*
X152957600Y-107413700D01*
X150217600Y-100873700D02*
X150217600Y-107413700D01*
X152957600Y-107413700D02*
X152957600Y-100873700D01*
X151587600Y-108183700D02*
X151587600Y-107413700D01*
X152957600Y-100873700D02*
X150217600Y-100873700D01*
X151587600Y-100103700D02*
X151587600Y-100873700D01*
%TO.C,R1*%
X129353600Y-134766100D02*
X128583600Y-134766100D01*
X121273600Y-134766100D02*
X122043600Y-134766100D01*
X122043600Y-133396100D02*
X122043600Y-136136100D01*
X122043600Y-136136100D02*
X128583600Y-136136100D01*
X128583600Y-133396100D02*
X122043600Y-133396100D01*
X128583600Y-136136100D02*
X128583600Y-133396100D01*
%TO.C,R37*%
X230977600Y-108183700D02*
X230977600Y-107413700D01*
X232347600Y-100873700D02*
X229607600Y-100873700D01*
X229607600Y-100873700D02*
X229607600Y-107413700D01*
X232347600Y-107413700D02*
X232347600Y-100873700D01*
X229607600Y-107413700D02*
X232347600Y-107413700D01*
X230977600Y-100103700D02*
X230977600Y-100873700D01*
%TO.C,C4*%
X143681600Y-133685700D02*
X143681600Y-133370700D01*
X138441600Y-133685700D02*
X138441600Y-133370700D01*
X143681600Y-136110700D02*
X138441600Y-136110700D01*
X138441600Y-136110700D02*
X138441600Y-135795700D01*
X143681600Y-133370700D02*
X138441600Y-133370700D01*
X143681600Y-136110700D02*
X143681600Y-135795700D01*
%TO.C,C6*%
X44937375Y-125442100D02*
X44937375Y-124942100D01*
X45187375Y-125192100D02*
X44687375Y-125192100D01*
X44778597Y-122657100D02*
G75*
G03*
X39986603Y-122657100I-2395997J-1060001D01*
G01*
X39986603Y-124777100D02*
G75*
G03*
X44778597Y-124777100I2395997J1060001D01*
G01*
%TO.C,U46*%
X232517600Y-63357500D02*
X230867600Y-63357500D01*
X236167600Y-63357500D02*
X234517600Y-63357500D01*
X236167600Y-81257500D02*
X236167600Y-63357500D01*
X230867600Y-63357500D02*
X230867600Y-81257500D01*
X230867600Y-81257500D02*
X236167600Y-81257500D01*
X232517600Y-63357500D02*
G75*
G03*
X234517600Y-63357500I1000000J0D01*
G01*
%TO.C,U39*%
X166683200Y-41584700D02*
X165033200Y-41584700D01*
X166683200Y-59484700D02*
X166683200Y-41584700D01*
X163033200Y-41584700D02*
X161383200Y-41584700D01*
X161383200Y-59484700D02*
X166683200Y-59484700D01*
X161383200Y-41584700D02*
X161383200Y-59484700D01*
X163033200Y-41584700D02*
G75*
G03*
X165033200Y-41584700I1000000J0D01*
G01*
%TO.C,R21*%
X169467600Y-100873700D02*
X166727600Y-100873700D01*
X168097600Y-108183700D02*
X168097600Y-107413700D01*
X166727600Y-100873700D02*
X166727600Y-107413700D01*
X166727600Y-107413700D02*
X169467600Y-107413700D01*
X168097600Y-100103700D02*
X168097600Y-100873700D01*
X169467600Y-107413700D02*
X169467600Y-100873700D01*
%TO.C,R4*%
X135251600Y-132453100D02*
X141791600Y-132453100D01*
X134481600Y-131083100D02*
X135251600Y-131083100D01*
X141791600Y-129713100D02*
X135251600Y-129713100D01*
X141791600Y-132453100D02*
X141791600Y-129713100D01*
X142561600Y-131083100D02*
X141791600Y-131083100D01*
X135251600Y-129713100D02*
X135251600Y-132453100D01*
%TO.C,U3*%
X176701600Y-134559100D02*
X183701600Y-134559100D01*
X178701600Y-124559100D02*
X177701600Y-129559100D01*
X178701600Y-124559100D02*
X185701600Y-124559100D01*
X177701600Y-129559100D02*
X176701600Y-134559100D01*
X183701600Y-134559100D02*
X184701600Y-129559100D01*
X175291600Y-135274100D02*
X175291600Y-123844100D01*
X185701600Y-124559100D02*
X184701600Y-129559100D01*
X188001600Y-119924100D02*
X175401600Y-119924100D01*
X176401600Y-139194100D02*
X188001600Y-139194100D01*
X184701600Y-129559100D02*
X177701600Y-129559100D01*
X188111600Y-135274100D02*
X188111600Y-123844100D01*
X186148814Y-134559100D02*
G75*
G03*
X186148814Y-134559100I-447214J0D01*
G01*
%TO.C,U24*%
X65279600Y-41610100D02*
X65279600Y-59510100D01*
X70579600Y-59510100D02*
X70579600Y-41610100D01*
X70579600Y-41610100D02*
X68929600Y-41610100D01*
X65279600Y-59510100D02*
X70579600Y-59510100D01*
X66929600Y-41610100D02*
X65279600Y-41610100D01*
X66929600Y-41610100D02*
G75*
G03*
X68929600Y-41610100I1000000J0D01*
G01*
%TO.C,R7*%
X108835600Y-129713100D02*
X108835600Y-132453100D01*
X108835600Y-132453100D02*
X115375600Y-132453100D01*
X115375600Y-129713100D02*
X108835600Y-129713100D01*
X115375600Y-132453100D02*
X115375600Y-129713100D01*
X116145600Y-131083100D02*
X115375600Y-131083100D01*
X108065600Y-131083100D02*
X108835600Y-131083100D01*
%TO.C,U27*%
X126297200Y-63504900D02*
X124647200Y-63504900D01*
X120997200Y-81404900D02*
X126297200Y-81404900D01*
X126297200Y-81404900D02*
X126297200Y-63504900D01*
X122647200Y-63504900D02*
X120997200Y-63504900D01*
X120997200Y-63504900D02*
X120997200Y-81404900D01*
X122647200Y-63504900D02*
G75*
G03*
X124647200Y-63504900I1000000J0D01*
G01*
%TO.C,R26*%
X173331600Y-107413700D02*
X176071600Y-107413700D01*
X176071600Y-100873700D02*
X173331600Y-100873700D01*
X174701600Y-108183700D02*
X174701600Y-107413700D01*
X176071600Y-107413700D02*
X176071600Y-100873700D01*
X173331600Y-100873700D02*
X173331600Y-107413700D01*
X174701600Y-100103700D02*
X174701600Y-100873700D01*
%TO.C,U43*%
X178128600Y-81257500D02*
X178128600Y-63357500D01*
X172828600Y-63357500D02*
X172828600Y-81257500D01*
X172828600Y-81257500D02*
X178128600Y-81257500D01*
X174478600Y-63357500D02*
X172828600Y-63357500D01*
X178128600Y-63357500D02*
X176478600Y-63357500D01*
X174478600Y-63357500D02*
G75*
G03*
X176478600Y-63357500I1000000J0D01*
G01*
%TO.C,U13*%
X101753600Y-97909100D02*
X119653600Y-97909100D01*
X119653600Y-97909100D02*
X119653600Y-92609100D01*
X101753600Y-92609100D02*
X101753600Y-94259100D01*
X101753600Y-96259100D02*
X101753600Y-97909100D01*
X119653600Y-92609100D02*
X101753600Y-92609100D01*
X101753600Y-96259100D02*
G75*
G03*
X101753600Y-94259100I0J1000000D01*
G01*
%TO.C,U2*%
X102827600Y-129509100D02*
X101177600Y-129509100D01*
X99177600Y-129509100D02*
X97527600Y-129509100D01*
X102827600Y-139789100D02*
X102827600Y-129509100D01*
X97527600Y-129509100D02*
X97527600Y-139789100D01*
X97527600Y-139789100D02*
X102827600Y-139789100D01*
X99177600Y-129509100D02*
G75*
G03*
X101177600Y-129509100I1000000J0D01*
G01*
%TO.C,R9*%
X108835600Y-137079100D02*
X108835600Y-139819100D01*
X115375600Y-137079100D02*
X108835600Y-137079100D01*
X108065600Y-138449100D02*
X108835600Y-138449100D01*
X115375600Y-139819100D02*
X115375600Y-137079100D01*
X116145600Y-138449100D02*
X115375600Y-138449100D01*
X108835600Y-139819100D02*
X115375600Y-139819100D01*
%TO.C,R27*%
X172769600Y-100873700D02*
X170029600Y-100873700D01*
X170029600Y-107413700D02*
X172769600Y-107413700D01*
X172769600Y-107413700D02*
X172769600Y-100873700D01*
X171399600Y-108183700D02*
X171399600Y-107413700D01*
X171399600Y-100103700D02*
X171399600Y-100873700D01*
X170029600Y-100873700D02*
X170029600Y-107413700D01*
%TO.C,R34*%
X193285600Y-107413700D02*
X196025600Y-107413700D01*
X193285600Y-100873700D02*
X193285600Y-107413700D01*
X196025600Y-100873700D02*
X193285600Y-100873700D01*
X194655600Y-100103700D02*
X194655600Y-100873700D01*
X194655600Y-108183700D02*
X194655600Y-107413700D01*
X196025600Y-107413700D02*
X196025600Y-100873700D01*
%TO.C,U7*%
X193078000Y-124559100D02*
X200078000Y-124559100D01*
X189668000Y-135274100D02*
X189668000Y-123844100D01*
X199078000Y-129559100D02*
X192078000Y-129559100D01*
X200078000Y-124559100D02*
X199078000Y-129559100D01*
X192078000Y-129559100D02*
X191078000Y-134559100D01*
X202488000Y-135274100D02*
X202488000Y-123844100D01*
X190778000Y-139194100D02*
X202378000Y-139194100D01*
X193078000Y-124559100D02*
X192078000Y-129559100D01*
X202378000Y-119924100D02*
X189778000Y-119924100D01*
X198078000Y-134559100D02*
X199078000Y-129559100D01*
X191078000Y-134559100D02*
X198078000Y-134559100D01*
X200525214Y-134559100D02*
G75*
G03*
X200525214Y-134559100I-447214J0D01*
G01*
%TO.C,J1*%
X37082600Y-139866100D02*
X37082600Y-140606100D01*
X37082600Y-140606100D02*
X37582600Y-140606100D01*
X37322600Y-133405100D02*
X47442600Y-133405100D01*
X43655600Y-136729100D02*
X43608600Y-136775100D01*
X43848600Y-136945100D02*
X43813600Y-136980100D01*
X37322600Y-140366100D02*
X47442600Y-140366100D01*
X37322600Y-130445100D02*
X47442600Y-130445100D01*
X37322600Y-130445100D02*
X37322600Y-140366100D01*
X37322600Y-138306100D02*
X47442600Y-138306100D01*
X37322600Y-139806100D02*
X47442600Y-139806100D01*
X47442600Y-130445100D02*
X47442600Y-140366100D01*
X46157600Y-134637100D02*
X46110600Y-134683100D01*
X45952600Y-134431100D02*
X45917600Y-134467100D01*
X41417600Y-136390100D02*
G75*
G03*
X41418027Y-135023058I-1534993J684001D01*
G01*
X39198600Y-137241100D02*
G75*
G03*
X39911405Y-137386353I683999J1535001D01*
G01*
X40566600Y-134171100D02*
G75*
G03*
X39199558Y-134170673I-684001J-1534993D01*
G01*
X38347600Y-135022100D02*
G75*
G03*
X38347173Y-136389142I1534993J-684001D01*
G01*
X39882600Y-137386100D02*
G75*
G03*
X40565918Y-137240856I1J1679992D01*
G01*
X46562600Y-135706100D02*
G75*
G03*
X46562600Y-135706100I-1680000J0D01*
G01*
%TO.C,U23*%
X52823600Y-81227100D02*
X58123600Y-81227100D01*
X58123600Y-63327100D02*
X56473600Y-63327100D01*
X52823600Y-63327100D02*
X52823600Y-81227100D01*
X54473600Y-63327100D02*
X52823600Y-63327100D01*
X58123600Y-81227100D02*
X58123600Y-63327100D01*
X54473600Y-63327100D02*
G75*
G03*
X56473600Y-63327100I1000000J0D01*
G01*
%TO.C,R11*%
X71433600Y-131310100D02*
X71433600Y-128570100D01*
X64893600Y-128570100D02*
X64893600Y-131310100D01*
X64123600Y-129940100D02*
X64893600Y-129940100D01*
X72203600Y-129940100D02*
X71433600Y-129940100D01*
X71433600Y-128570100D02*
X64893600Y-128570100D01*
X64893600Y-131310100D02*
X71433600Y-131310100D01*
%TO.C,R6*%
X141791600Y-137079100D02*
X135251600Y-137079100D01*
X142561600Y-138449100D02*
X141791600Y-138449100D01*
X135251600Y-137079100D02*
X135251600Y-139819100D01*
X141791600Y-139819100D02*
X141791600Y-137079100D01*
X135251600Y-139819100D02*
X141791600Y-139819100D01*
X134481600Y-138449100D02*
X135251600Y-138449100D01*
%TO.C,U32*%
X77374600Y-96259100D02*
X77374600Y-97909100D01*
X77374600Y-97909100D02*
X95274600Y-97909100D01*
X95274600Y-92609100D02*
X77374600Y-92609100D01*
X95274600Y-97909100D02*
X95274600Y-92609100D01*
X77374600Y-92609100D02*
X77374600Y-94259100D01*
X77374600Y-96259100D02*
G75*
G03*
X77374600Y-94259100I0J1000000D01*
G01*
%TO.C,U19*%
X40504600Y-98252100D02*
X40504600Y-116152100D01*
X42154600Y-98252100D02*
X40504600Y-98252100D01*
X45804600Y-98252100D02*
X44154600Y-98252100D01*
X40504600Y-116152100D02*
X45804600Y-116152100D01*
X45804600Y-116152100D02*
X45804600Y-98252100D01*
X42154600Y-98252100D02*
G75*
G03*
X44154600Y-98252100I1000000J0D01*
G01*
%TO.C,U9*%
X75845600Y-120803100D02*
X75845600Y-122453100D01*
X93745600Y-120803100D02*
X75845600Y-120803100D01*
X75845600Y-124453100D02*
X75845600Y-126103100D01*
X93745600Y-126103100D02*
X93745600Y-120803100D01*
X75845600Y-126103100D02*
X93745600Y-126103100D01*
X75845600Y-124453100D02*
G75*
G03*
X75845600Y-122453100I0J1000000D01*
G01*
%TO.C,R16*%
X161493600Y-108183700D02*
X161493600Y-107413700D01*
X162863600Y-107413700D02*
X162863600Y-100873700D01*
X160123600Y-107413700D02*
X162863600Y-107413700D01*
X162863600Y-100873700D02*
X160123600Y-100873700D01*
X161493600Y-100103700D02*
X161493600Y-100873700D01*
X160123600Y-100873700D02*
X160123600Y-107413700D01*
%TO.C,U40*%
X220833600Y-63357500D02*
X219183600Y-63357500D01*
X219183600Y-63357500D02*
X219183600Y-81257500D01*
X224483600Y-81257500D02*
X224483600Y-63357500D01*
X224483600Y-63357500D02*
X222833600Y-63357500D01*
X219183600Y-81257500D02*
X224483600Y-81257500D01*
X220833600Y-63357500D02*
G75*
G03*
X222833600Y-63357500I1000000J0D01*
G01*
%TO.C,R28*%
X191211600Y-100103700D02*
X191211600Y-100873700D01*
X192581600Y-107413700D02*
X192581600Y-100873700D01*
X189841600Y-100873700D02*
X189841600Y-107413700D01*
X192581600Y-100873700D02*
X189841600Y-100873700D01*
X191211600Y-108183700D02*
X191211600Y-107413700D01*
X189841600Y-107413700D02*
X192581600Y-107413700D01*
%TO.C,Q3*%
X69538600Y-123154100D02*
X73138600Y-123154100D01*
X71338600Y-118704099D02*
G75*
G03*
X69500122Y-123142578I0J-2600001D01*
G01*
X73177078Y-123142578D02*
G75*
G03*
X71338600Y-118704100I-1838478J1838478D01*
G01*
%TO.C,R24*%
X179935600Y-107413700D02*
X182675600Y-107413700D01*
X181305600Y-100103700D02*
X181305600Y-100873700D01*
X182675600Y-100873700D02*
X179935600Y-100873700D01*
X181305600Y-108183700D02*
X181305600Y-107413700D01*
X179935600Y-100873700D02*
X179935600Y-107413700D01*
X182675600Y-107413700D02*
X182675600Y-100873700D01*
%TO.C,C2*%
X143681600Y-126040300D02*
X143681600Y-125725300D01*
X143681600Y-128465300D02*
X143681600Y-128150300D01*
X143681600Y-128465300D02*
X138441600Y-128465300D01*
X143681600Y-125725300D02*
X138441600Y-125725300D01*
X138441600Y-126040300D02*
X138441600Y-125725300D01*
X138441600Y-128465300D02*
X138441600Y-128150300D01*
%TO.C,U30*%
X80128600Y-63352500D02*
X80128600Y-81252500D01*
X85428600Y-81252500D02*
X85428600Y-63352500D01*
X85428600Y-63352500D02*
X83778600Y-63352500D01*
X80128600Y-81252500D02*
X85428600Y-81252500D01*
X81778600Y-63352500D02*
X80128600Y-63352500D01*
X81778600Y-63352500D02*
G75*
G03*
X83778600Y-63352500I1000000J0D01*
G01*
%TO.C,U52*%
X186111800Y-63433700D02*
X184461800Y-63433700D01*
X184461800Y-63433700D02*
X184461800Y-81333700D01*
X184461800Y-81333700D02*
X189761800Y-81333700D01*
X189761800Y-81333700D02*
X189761800Y-63433700D01*
X189761800Y-63433700D02*
X188111800Y-63433700D01*
X186111800Y-63433700D02*
G75*
G03*
X188111800Y-63433700I1000000J0D01*
G01*
%TO.C,C5*%
X91787400Y-133536125D02*
X91787400Y-134036125D01*
X92037400Y-133786125D02*
X91537400Y-133786125D01*
X91372400Y-138736897D02*
G75*
G03*
X91372400Y-133944903I-1060001J2395997D01*
G01*
X89252400Y-133944903D02*
G75*
G03*
X89252400Y-138736897I1060001J-2395997D01*
G01*
%TO.C,U22*%
X52706600Y-59510100D02*
X58006600Y-59510100D01*
X52706600Y-41610100D02*
X52706600Y-59510100D01*
X58006600Y-59510100D02*
X58006600Y-41610100D01*
X54356600Y-41610100D02*
X52706600Y-41610100D01*
X58006600Y-41610100D02*
X56356600Y-41610100D01*
X54356600Y-41610100D02*
G75*
G03*
X56356600Y-41610100I1000000J0D01*
G01*
%TO.C,U48*%
X189832600Y-41503500D02*
X188182600Y-41503500D01*
X189832600Y-59403500D02*
X189832600Y-41503500D01*
X186182600Y-41503500D02*
X184532600Y-41503500D01*
X184532600Y-59403500D02*
X189832600Y-59403500D01*
X184532600Y-41503500D02*
X184532600Y-59403500D01*
X186182600Y-41503500D02*
G75*
G03*
X188182600Y-41503500I1000000J0D01*
G01*
%TO.C,U42*%
X201211800Y-41503500D02*
X199561800Y-41503500D01*
X195911800Y-41503500D02*
X195911800Y-59403500D01*
X201211800Y-59403500D02*
X201211800Y-41503500D01*
X197561800Y-41503500D02*
X195911800Y-41503500D01*
X195911800Y-59403500D02*
X201211800Y-59403500D01*
X197561800Y-41503500D02*
G75*
G03*
X199561800Y-41503500I1000000J0D01*
G01*
%TO.C,U45*%
X207372600Y-81257500D02*
X212672600Y-81257500D01*
X207372600Y-63357500D02*
X207372600Y-81257500D01*
X212672600Y-63357500D02*
X211022600Y-63357500D01*
X209022600Y-63357500D02*
X207372600Y-63357500D01*
X212672600Y-81257500D02*
X212672600Y-63357500D01*
X209022600Y-63357500D02*
G75*
G03*
X211022600Y-63357500I1000000J0D01*
G01*
%TO.C,U15*%
X123724600Y-92609100D02*
X123724600Y-94259100D01*
X123724600Y-97909100D02*
X141624600Y-97909100D01*
X141624600Y-97909100D02*
X141624600Y-92609100D01*
X123724600Y-96259100D02*
X123724600Y-97909100D01*
X141624600Y-92609100D02*
X123724600Y-92609100D01*
X123724600Y-96259100D02*
G75*
G03*
X123724600Y-94259100I0J1000000D01*
G01*
%TO.C,R31*%
X203191600Y-107403700D02*
X205931600Y-107403700D01*
X204561600Y-100093700D02*
X204561600Y-100863700D01*
X205931600Y-107403700D02*
X205931600Y-100863700D01*
X203191600Y-100863700D02*
X203191600Y-107403700D01*
X204561600Y-108173700D02*
X204561600Y-107403700D01*
X205931600Y-100863700D02*
X203191600Y-100863700D01*
%TO.C,R33*%
X197957600Y-108183700D02*
X197957600Y-107413700D01*
X199327600Y-100873700D02*
X196587600Y-100873700D01*
X196587600Y-107413700D02*
X199327600Y-107413700D01*
X199327600Y-107413700D02*
X199327600Y-100873700D01*
X197957600Y-100103700D02*
X197957600Y-100873700D01*
X196587600Y-100873700D02*
X196587600Y-107413700D01*
%TO.C,R10*%
X76069600Y-139692100D02*
X82609600Y-139692100D01*
X76069600Y-136952100D02*
X76069600Y-139692100D01*
X75299600Y-138322100D02*
X76069600Y-138322100D01*
X82609600Y-139692100D02*
X82609600Y-136952100D01*
X82609600Y-136952100D02*
X76069600Y-136952100D01*
X83379600Y-138322100D02*
X82609600Y-138322100D01*
%TO.C,R38*%
X227675600Y-100103700D02*
X227675600Y-100873700D01*
X226305600Y-100873700D02*
X226305600Y-107413700D01*
X226305600Y-107413700D02*
X229045600Y-107413700D01*
X229045600Y-107413700D02*
X229045600Y-100873700D01*
X227675600Y-108183700D02*
X227675600Y-107413700D01*
X229045600Y-100873700D02*
X226305600Y-100873700D01*
%TO.C,C1*%
X69079600Y-138910100D02*
X69394600Y-138910100D01*
X71819600Y-138910100D02*
X71819600Y-133670100D01*
X71504600Y-133670100D02*
X71819600Y-133670100D01*
X69079600Y-138910100D02*
X69079600Y-133670100D01*
X71504600Y-138910100D02*
X71819600Y-138910100D01*
X69079600Y-133670100D02*
X69394600Y-133670100D01*
%TO.C,U1*%
X146955600Y-94398500D02*
X167395600Y-94398500D01*
X167395600Y-90748500D02*
X167395600Y-89098500D01*
X146955600Y-89098500D02*
X146955600Y-94398500D01*
X167395600Y-89098500D02*
X146955600Y-89098500D01*
X167395600Y-94398500D02*
X167395600Y-92748500D01*
X167395600Y-90748500D02*
G75*
G03*
X167395600Y-92748500I0J-1000000D01*
G01*
%TO.C,R35*%
X213097600Y-107403700D02*
X215837600Y-107403700D01*
X215837600Y-107403700D02*
X215837600Y-100863700D01*
X215837600Y-100863700D02*
X213097600Y-100863700D01*
X214467600Y-100093700D02*
X214467600Y-100863700D01*
X213097600Y-100863700D02*
X213097600Y-107403700D01*
X214467600Y-108173700D02*
X214467600Y-107403700D01*
%TO.C,U34*%
X107509800Y-63454100D02*
X107509800Y-81354100D01*
X107509800Y-81354100D02*
X112809800Y-81354100D01*
X109159800Y-63454100D02*
X107509800Y-63454100D01*
X112809800Y-81354100D02*
X112809800Y-63454100D01*
X112809800Y-63454100D02*
X111159800Y-63454100D01*
X109159800Y-63454100D02*
G75*
G03*
X111159800Y-63454100I1000000J0D01*
G01*
%TO.C,U36*%
X79976200Y-41660900D02*
X79976200Y-59560900D01*
X81626200Y-41660900D02*
X79976200Y-41660900D01*
X85276200Y-41660900D02*
X83626200Y-41660900D01*
X85276200Y-59560900D02*
X85276200Y-41660900D01*
X79976200Y-59560900D02*
X85276200Y-59560900D01*
X81626200Y-41660900D02*
G75*
G03*
X83626200Y-41660900I1000000J0D01*
G01*
%TO.C,R2*%
X122043600Y-129713100D02*
X122043600Y-132453100D01*
X122043600Y-132453100D02*
X128583600Y-132453100D01*
X128583600Y-132453100D02*
X128583600Y-129713100D01*
X129353600Y-131083100D02*
X128583600Y-131083100D01*
X128583600Y-129713100D02*
X122043600Y-129713100D01*
X121273600Y-131083100D02*
X122043600Y-131083100D01*
%TO.C,R8*%
X116145600Y-134766100D02*
X115375600Y-134766100D01*
X115375600Y-133396100D02*
X108835600Y-133396100D01*
X108835600Y-136136100D02*
X115375600Y-136136100D01*
X108065600Y-134766100D02*
X108835600Y-134766100D01*
X115375600Y-136136100D02*
X115375600Y-133396100D01*
X108835600Y-133396100D02*
X108835600Y-136136100D01*
%TO.C,R39*%
X225743600Y-107413700D02*
X225743600Y-100873700D01*
X224373600Y-108183700D02*
X224373600Y-107413700D01*
X225743600Y-100873700D02*
X223003600Y-100873700D01*
X223003600Y-100873700D02*
X223003600Y-107413700D01*
X224373600Y-100103700D02*
X224373600Y-100873700D01*
X223003600Y-107413700D02*
X225743600Y-107413700D01*
%TO.C,R22*%
X164795600Y-108183700D02*
X164795600Y-107413700D01*
X164795600Y-100103700D02*
X164795600Y-100873700D01*
X163425600Y-100873700D02*
X163425600Y-107413700D01*
X163425600Y-107413700D02*
X166165600Y-107413700D01*
X166165600Y-107413700D02*
X166165600Y-100873700D01*
X166165600Y-100873700D02*
X163425600Y-100873700D01*
%TO.C,R36*%
X209795600Y-107403700D02*
X212535600Y-107403700D01*
X212535600Y-100863700D02*
X209795600Y-100863700D01*
X211165600Y-108173700D02*
X211165600Y-107403700D01*
X212535600Y-107403700D02*
X212535600Y-100863700D01*
X209795600Y-100863700D02*
X209795600Y-107403700D01*
X211165600Y-100093700D02*
X211165600Y-100863700D01*
%TO.C,R15*%
X237910200Y-121463100D02*
X235170200Y-121463100D01*
X235170200Y-121463100D02*
X235170200Y-128003100D01*
X236540200Y-120693100D02*
X236540200Y-121463100D01*
X235170200Y-128003100D02*
X237910200Y-128003100D01*
X236540200Y-128773100D02*
X236540200Y-128003100D01*
X237910200Y-128003100D02*
X237910200Y-121463100D01*
%TO.C,C3*%
X143721600Y-120769100D02*
X138481600Y-120769100D01*
X138481600Y-120769100D02*
X138481600Y-120454100D01*
X143721600Y-118029100D02*
X138481600Y-118029100D01*
X143721600Y-120769100D02*
X143721600Y-120454100D01*
X138481600Y-118344100D02*
X138481600Y-118029100D01*
X143721600Y-118344100D02*
X143721600Y-118029100D01*
%TO.C,R5*%
X135291600Y-124579100D02*
X141831600Y-124579100D01*
X141831600Y-124579100D02*
X141831600Y-121839100D01*
X142601600Y-123209100D02*
X141831600Y-123209100D01*
X135291600Y-121839100D02*
X135291600Y-124579100D01*
X141831600Y-121839100D02*
X135291600Y-121839100D01*
X134521600Y-123209100D02*
X135291600Y-123209100D01*
%TO.C,R23*%
X183237600Y-100873700D02*
X183237600Y-107413700D01*
X184607600Y-108183700D02*
X184607600Y-107413700D01*
X184607600Y-100103700D02*
X184607600Y-100873700D01*
X185977600Y-107413700D02*
X185977600Y-100873700D01*
X185977600Y-100873700D02*
X183237600Y-100873700D01*
X183237600Y-107413700D02*
X185977600Y-107413700D01*
%TO.C,U49*%
X207443400Y-41427300D02*
X207443400Y-59327300D01*
X212743400Y-41427300D02*
X211093400Y-41427300D01*
X212743400Y-59327300D02*
X212743400Y-41427300D01*
X209093400Y-41427300D02*
X207443400Y-41427300D01*
X207443400Y-59327300D02*
X212743400Y-59327300D01*
X209093400Y-41427300D02*
G75*
G03*
X211093400Y-41427300I1000000J0D01*
G01*
%TO.C,R43*%
X235649600Y-100899100D02*
X232909600Y-100899100D01*
X232909600Y-107439100D02*
X235649600Y-107439100D01*
X235649600Y-107439100D02*
X235649600Y-100899100D01*
X234279600Y-108209100D02*
X234279600Y-107439100D01*
X232909600Y-100899100D02*
X232909600Y-107439100D01*
X234279600Y-100129100D02*
X234279600Y-100899100D01*
%TO.C,U16*%
X58514600Y-98247100D02*
X56864600Y-98247100D01*
X53214600Y-116147100D02*
X58514600Y-116147100D01*
X54864600Y-98247100D02*
X53214600Y-98247100D01*
X58514600Y-116147100D02*
X58514600Y-98247100D01*
X53214600Y-98247100D02*
X53214600Y-116147100D01*
X54864600Y-98247100D02*
G75*
G03*
X56864600Y-98247100I1000000J0D01*
G01*
%TO.C,U44*%
X149953200Y-41584700D02*
X149953200Y-59484700D01*
X149953200Y-59484700D02*
X155253200Y-59484700D01*
X155253200Y-59484700D02*
X155253200Y-41584700D01*
X155253200Y-41584700D02*
X153603200Y-41584700D01*
X151603200Y-41584700D02*
X149953200Y-41584700D01*
X151603200Y-41584700D02*
G75*
G03*
X153603200Y-41584700I1000000J0D01*
G01*
%TO.C,R32*%
X202629600Y-100873700D02*
X199889600Y-100873700D01*
X201259600Y-108183700D02*
X201259600Y-107413700D01*
X199889600Y-107413700D02*
X202629600Y-107413700D01*
X202629600Y-107413700D02*
X202629600Y-100873700D01*
X199889600Y-100873700D02*
X199889600Y-107413700D01*
X201259600Y-100103700D02*
X201259600Y-100873700D01*
%TO.C,U37*%
X99134600Y-59515100D02*
X99134600Y-41615100D01*
X93834600Y-41615100D02*
X93834600Y-59515100D01*
X95484600Y-41615100D02*
X93834600Y-41615100D01*
X99134600Y-41615100D02*
X97484600Y-41615100D01*
X93834600Y-59515100D02*
X99134600Y-59515100D01*
X95484600Y-41615100D02*
G75*
G03*
X97484600Y-41615100I1000000J0D01*
G01*
%TO.C,U20*%
X70569600Y-98252100D02*
X68919600Y-98252100D01*
X65269600Y-98252100D02*
X65269600Y-116152100D01*
X66919600Y-98252100D02*
X65269600Y-98252100D01*
X65269600Y-116152100D02*
X70569600Y-116152100D01*
X70569600Y-116152100D02*
X70569600Y-98252100D01*
X66919600Y-98252100D02*
G75*
G03*
X68919600Y-98252100I1000000J0D01*
G01*
%TO.C,U28*%
X112733600Y-59510100D02*
X112733600Y-41610100D01*
X109083600Y-41610100D02*
X107433600Y-41610100D01*
X107433600Y-59510100D02*
X112733600Y-59510100D01*
X107433600Y-41610100D02*
X107433600Y-59510100D01*
X112733600Y-41610100D02*
X111083600Y-41610100D01*
X109083600Y-41610100D02*
G75*
G03*
X111083600Y-41610100I1000000J0D01*
G01*
%TO.C,C7*%
X51414225Y-126433100D02*
X51914225Y-126433100D01*
X51664225Y-126183100D02*
X51664225Y-126683100D01*
X51823003Y-128968100D02*
G75*
G03*
X56614997Y-128968100I2395997J1060001D01*
G01*
X56614997Y-126848100D02*
G75*
G03*
X51823003Y-126848100I-2395997J-1060001D01*
G01*
%TO.C,D1*%
X156006600Y-120804700D02*
X156006600Y-120960700D01*
X156006600Y-123120700D02*
X156006600Y-123276700D01*
X159238935Y-120962092D02*
G75*
G03*
X156006600Y-120805184I-1672335J-1078609D01*
G01*
X156525639Y-123120700D02*
G75*
G03*
X158607730Y-123120537I1040961J1080000D01*
G01*
X158607730Y-120960863D02*
G75*
G03*
X156525639Y-120960700I-1041130J-1079837D01*
G01*
X156006600Y-123276216D02*
G75*
G03*
X159238935Y-123119308I1560000J1235517D01*
G01*
%TO.C,R17*%
X158191600Y-100103700D02*
X158191600Y-100873700D01*
X158191600Y-108183700D02*
X158191600Y-107413700D01*
X156821600Y-100873700D02*
X156821600Y-107413700D01*
X156821600Y-107413700D02*
X159561600Y-107413700D01*
X159561600Y-100873700D02*
X156821600Y-100873700D01*
X159561600Y-107413700D02*
X159561600Y-100873700D01*
%TO.C,R18*%
X153519600Y-107413700D02*
X156259600Y-107413700D01*
X156259600Y-100873700D02*
X153519600Y-100873700D01*
X156259600Y-107413700D02*
X156259600Y-100873700D01*
X154889600Y-100103700D02*
X154889600Y-100873700D01*
X154889600Y-108183700D02*
X154889600Y-107413700D01*
X153519600Y-100873700D02*
X153519600Y-107413700D01*
%TD*%
M02*
