%TF.GenerationSoftware,KiCad,Pcbnew,(6.0.1-0)*%
%TF.CreationDate,2023-01-05T00:44:51-08:00*%
%TF.ProjectId,DigitalClock,44696769-7461-46c4-936c-6f636b2e6b69,rev?*%
%TF.SameCoordinates,Original*%
%TF.FileFunction,Soldermask,Top*%
%TF.FilePolarity,Negative*%
%FSLAX46Y46*%
G04 Gerber Fmt 4.6, Leading zero omitted, Abs format (unit mm)*
G04 Created by KiCad (PCBNEW (6.0.1-0)) date 2023-01-05 00:44:51*
%MOMM*%
%LPD*%
G01*
G04 APERTURE LIST*
%ADD10R,1.050000X1.500000*%
%ADD11O,1.050000X1.500000*%
%ADD12R,1.600000X1.600000*%
%ADD13O,1.600000X1.600000*%
%ADD14R,1.524000X2.524000*%
%ADD15O,1.524000X2.524000*%
%ADD16C,1.600000*%
%ADD17R,1.905000X2.000000*%
%ADD18O,1.905000X2.000000*%
%ADD19C,2.000000*%
%ADD20R,1.800000X1.800000*%
%ADD21C,1.800000*%
%ADD22R,2.600000X2.600000*%
%ADD23C,2.600000*%
G04 APERTURE END LIST*
D10*
%TO.C,Q2*%
X63464600Y-121304100D03*
D11*
X64734600Y-121304100D03*
X66004600Y-121304100D03*
%TD*%
D12*
%TO.C,U5*%
X125054600Y-111642100D03*
D13*
X127594600Y-111642100D03*
X130134600Y-111642100D03*
X132674600Y-111642100D03*
X135214600Y-111642100D03*
X137754600Y-111642100D03*
X140294600Y-111642100D03*
X140294600Y-104022100D03*
X137754600Y-104022100D03*
X135214600Y-104022100D03*
X132674600Y-104022100D03*
X130134600Y-104022100D03*
X127594600Y-104022100D03*
X125054600Y-104022100D03*
%TD*%
D14*
%TO.C,U10*%
X205374400Y-137179100D03*
D15*
X207914400Y-137179100D03*
X210454400Y-137179100D03*
X212994400Y-137179100D03*
X215534400Y-137179100D03*
X215534400Y-121939100D03*
X212994400Y-121939100D03*
X210454400Y-121939100D03*
X207914400Y-121939100D03*
X205374400Y-121939100D03*
%TD*%
D12*
%TO.C,U51*%
X218145200Y-42706500D03*
D13*
X218145200Y-45246500D03*
X218145200Y-47786500D03*
X218145200Y-50326500D03*
X218145200Y-52866500D03*
X218145200Y-55406500D03*
X218145200Y-57946500D03*
X225765200Y-57946500D03*
X225765200Y-55406500D03*
X225765200Y-52866500D03*
X225765200Y-50326500D03*
X225765200Y-47786500D03*
X225765200Y-45246500D03*
X225765200Y-42706500D03*
%TD*%
D12*
%TO.C,U53*%
X229702200Y-42655700D03*
D13*
X229702200Y-45195700D03*
X229702200Y-47735700D03*
X229702200Y-50275700D03*
X229702200Y-52815700D03*
X229702200Y-55355700D03*
X229702200Y-57895700D03*
X237322200Y-57895700D03*
X237322200Y-55355700D03*
X237322200Y-52815700D03*
X237322200Y-50275700D03*
X237322200Y-47735700D03*
X237322200Y-45195700D03*
X237322200Y-42655700D03*
%TD*%
D12*
%TO.C,U33*%
X119735600Y-42940100D03*
D13*
X119735600Y-45480100D03*
X119735600Y-48020100D03*
X119735600Y-50560100D03*
X119735600Y-53100100D03*
X119735600Y-55640100D03*
X119735600Y-58180100D03*
X127355600Y-58180100D03*
X127355600Y-55640100D03*
X127355600Y-53100100D03*
X127355600Y-50560100D03*
X127355600Y-48020100D03*
X127355600Y-45480100D03*
X127355600Y-42940100D03*
%TD*%
D16*
%TO.C,R40*%
X221071600Y-99063700D03*
D13*
X221071600Y-109223700D03*
%TD*%
D16*
%TO.C,R30*%
X207863600Y-99063700D03*
D13*
X207863600Y-109223700D03*
%TD*%
D12*
%TO.C,U12*%
X237480000Y-88055500D03*
D13*
X234940000Y-88055500D03*
X232400000Y-88055500D03*
X229860000Y-88055500D03*
X227320000Y-88055500D03*
X224780000Y-88055500D03*
X222240000Y-88055500D03*
X219700000Y-88055500D03*
X219700000Y-95675500D03*
X222240000Y-95675500D03*
X224780000Y-95675500D03*
X227320000Y-95675500D03*
X229860000Y-95675500D03*
X232400000Y-95675500D03*
X234940000Y-95675500D03*
X237480000Y-95675500D03*
%TD*%
D12*
%TO.C,U21*%
X48143400Y-93481100D03*
D13*
X50683400Y-93481100D03*
X53223400Y-93481100D03*
X55763400Y-93481100D03*
X58303400Y-93481100D03*
X60843400Y-93481100D03*
X63383400Y-93481100D03*
X63383400Y-85861100D03*
X60843400Y-85861100D03*
X58303400Y-85861100D03*
X55763400Y-85861100D03*
X53223400Y-85861100D03*
X50683400Y-85861100D03*
X48143400Y-85861100D03*
%TD*%
D17*
%TO.C,U11*%
X56886000Y-136366300D03*
D18*
X54346000Y-136366300D03*
X51806000Y-136366300D03*
%TD*%
D19*
%TO.C,SW3*%
X166243600Y-131338300D03*
X166243600Y-137838300D03*
X170743600Y-131338300D03*
X170743600Y-137838300D03*
%TD*%
D12*
%TO.C,U25*%
X64236600Y-64657100D03*
D13*
X64236600Y-67197100D03*
X64236600Y-69737100D03*
X64236600Y-72277100D03*
X64236600Y-74817100D03*
X64236600Y-77357100D03*
X64236600Y-79897100D03*
X71856600Y-79897100D03*
X71856600Y-77357100D03*
X71856600Y-74817100D03*
X71856600Y-72277100D03*
X71856600Y-69737100D03*
X71856600Y-67197100D03*
X71856600Y-64657100D03*
%TD*%
D12*
%TO.C,U54*%
X107528600Y-127263100D03*
D13*
X110068600Y-127263100D03*
X112608600Y-127263100D03*
X115148600Y-127263100D03*
X117688600Y-127263100D03*
X120228600Y-127263100D03*
X122768600Y-127263100D03*
X122768600Y-119643100D03*
X120228600Y-119643100D03*
X117688600Y-119643100D03*
X115148600Y-119643100D03*
X112608600Y-119643100D03*
X110068600Y-119643100D03*
X107528600Y-119643100D03*
%TD*%
D12*
%TO.C,U18*%
X39217600Y-64657100D03*
D13*
X39217600Y-67197100D03*
X39217600Y-69737100D03*
X39217600Y-72277100D03*
X39217600Y-74817100D03*
X39217600Y-77357100D03*
X39217600Y-79897100D03*
X46837600Y-79897100D03*
X46837600Y-77357100D03*
X46837600Y-74817100D03*
X46837600Y-72277100D03*
X46837600Y-69737100D03*
X46837600Y-67197100D03*
X46837600Y-64657100D03*
%TD*%
D16*
%TO.C,R29*%
X187909600Y-99063700D03*
D13*
X187909600Y-109223700D03*
%TD*%
D12*
%TO.C,U35*%
X133604000Y-64834900D03*
D13*
X133604000Y-67374900D03*
X133604000Y-69914900D03*
X133604000Y-72454900D03*
X133604000Y-74994900D03*
X133604000Y-77534900D03*
X133604000Y-80074900D03*
X141224000Y-80074900D03*
X141224000Y-77534900D03*
X141224000Y-74994900D03*
X141224000Y-72454900D03*
X141224000Y-69914900D03*
X141224000Y-67374900D03*
X141224000Y-64834900D03*
%TD*%
D16*
%TO.C,R13*%
X148935600Y-132759500D03*
D13*
X148935600Y-122599500D03*
%TD*%
D19*
%TO.C,SW1*%
X166243600Y-127779900D03*
X166243600Y-121279900D03*
X170743600Y-121279900D03*
X170743600Y-127779900D03*
%TD*%
D12*
%TO.C,U41*%
X148818600Y-64682500D03*
D13*
X148818600Y-67222500D03*
X148818600Y-69762500D03*
X148818600Y-72302500D03*
X148818600Y-74842500D03*
X148818600Y-77382500D03*
X148818600Y-79922500D03*
X156438600Y-79922500D03*
X156438600Y-77382500D03*
X156438600Y-74842500D03*
X156438600Y-72302500D03*
X156438600Y-69762500D03*
X156438600Y-67222500D03*
X156438600Y-64682500D03*
%TD*%
D12*
%TO.C,U26*%
X92710000Y-64707900D03*
D13*
X92710000Y-67247900D03*
X92710000Y-69787900D03*
X92710000Y-72327900D03*
X92710000Y-74867900D03*
X92710000Y-77407900D03*
X92710000Y-79947900D03*
X100330000Y-79947900D03*
X100330000Y-77407900D03*
X100330000Y-74867900D03*
X100330000Y-72327900D03*
X100330000Y-69787900D03*
X100330000Y-67247900D03*
X100330000Y-64707900D03*
%TD*%
D12*
%TO.C,U38*%
X194665600Y-64687500D03*
D13*
X194665600Y-67227500D03*
X194665600Y-69767500D03*
X194665600Y-72307500D03*
X194665600Y-74847500D03*
X194665600Y-77387500D03*
X194665600Y-79927500D03*
X202285600Y-79927500D03*
X202285600Y-77387500D03*
X202285600Y-74847500D03*
X202285600Y-72307500D03*
X202285600Y-69767500D03*
X202285600Y-67227500D03*
X202285600Y-64687500D03*
%TD*%
D16*
%TO.C,R25*%
X178003600Y-99063700D03*
D13*
X178003600Y-109223700D03*
%TD*%
D14*
%TO.C,U14*%
X219750800Y-137179100D03*
D15*
X222290800Y-137179100D03*
X224830800Y-137179100D03*
X227370800Y-137179100D03*
X229910800Y-137179100D03*
X229910800Y-121939100D03*
X227370800Y-121939100D03*
X224830800Y-121939100D03*
X222290800Y-121939100D03*
X219750800Y-121939100D03*
%TD*%
D16*
%TO.C,R42*%
X237581600Y-99089100D03*
D13*
X237581600Y-109249100D03*
%TD*%
D12*
%TO.C,U8*%
X214452600Y-88040100D03*
D13*
X211912600Y-88040100D03*
X209372600Y-88040100D03*
X206832600Y-88040100D03*
X204292600Y-88040100D03*
X201752600Y-88040100D03*
X199212600Y-88040100D03*
X196672600Y-88040100D03*
X196672600Y-95660100D03*
X199212600Y-95660100D03*
X201752600Y-95660100D03*
X204292600Y-95660100D03*
X206832600Y-95660100D03*
X209372600Y-95660100D03*
X211912600Y-95660100D03*
X214452600Y-95660100D03*
%TD*%
D12*
%TO.C,U31*%
X78831600Y-111515100D03*
D13*
X81371600Y-111515100D03*
X83911600Y-111515100D03*
X86451600Y-111515100D03*
X88991600Y-111515100D03*
X91531600Y-111515100D03*
X94071600Y-111515100D03*
X94071600Y-103895100D03*
X91531600Y-103895100D03*
X88991600Y-103895100D03*
X86451600Y-103895100D03*
X83911600Y-103895100D03*
X81371600Y-103895100D03*
X78831600Y-103895100D03*
%TD*%
D16*
%TO.C,R3*%
X130393600Y-138449100D03*
D13*
X120233600Y-138449100D03*
%TD*%
D12*
%TO.C,U50*%
X171739400Y-42884300D03*
D13*
X171739400Y-45424300D03*
X171739400Y-47964300D03*
X171739400Y-50504300D03*
X171739400Y-53044300D03*
X171739400Y-55584300D03*
X171739400Y-58124300D03*
X179359400Y-58124300D03*
X179359400Y-55584300D03*
X179359400Y-53044300D03*
X179359400Y-50504300D03*
X179359400Y-47964300D03*
X179359400Y-45424300D03*
X179359400Y-42884300D03*
%TD*%
D10*
%TO.C,Q1*%
X63464600Y-137793100D03*
D11*
X64734600Y-137793100D03*
X66004600Y-137793100D03*
%TD*%
D12*
%TO.C,U17*%
X39217600Y-42940100D03*
D13*
X39217600Y-45480100D03*
X39217600Y-48020100D03*
X39217600Y-50560100D03*
X39217600Y-53100100D03*
X39217600Y-55640100D03*
X39217600Y-58180100D03*
X46837600Y-58180100D03*
X46837600Y-55640100D03*
X46837600Y-53100100D03*
X46837600Y-50560100D03*
X46837600Y-48020100D03*
X46837600Y-45480100D03*
X46837600Y-42940100D03*
%TD*%
D12*
%TO.C,U6*%
X189306600Y-87913100D03*
D13*
X186766600Y-87913100D03*
X184226600Y-87913100D03*
X181686600Y-87913100D03*
X179146600Y-87913100D03*
X176606600Y-87913100D03*
X174066600Y-87913100D03*
X171526600Y-87913100D03*
X171526600Y-95533100D03*
X174066600Y-95533100D03*
X176606600Y-95533100D03*
X179146600Y-95533100D03*
X181686600Y-95533100D03*
X184226600Y-95533100D03*
X186766600Y-95533100D03*
X189306600Y-95533100D03*
%TD*%
D16*
%TO.C,R20*%
X148285600Y-99063700D03*
D13*
X148285600Y-109223700D03*
%TD*%
D12*
%TO.C,U47*%
X160248600Y-64657100D03*
D13*
X160248600Y-67197100D03*
X160248600Y-69737100D03*
X160248600Y-72277100D03*
X160248600Y-74817100D03*
X160248600Y-77357100D03*
X160248600Y-79897100D03*
X167868600Y-79897100D03*
X167868600Y-77357100D03*
X167868600Y-74817100D03*
X167868600Y-72277100D03*
X167868600Y-69737100D03*
X167868600Y-67197100D03*
X167868600Y-64657100D03*
%TD*%
D20*
%TO.C,D2*%
X234350800Y-137077500D03*
D21*
X236890800Y-137077500D03*
%TD*%
D16*
%TO.C,R14*%
X63083600Y-126130100D03*
D13*
X73243600Y-126130100D03*
%TD*%
D19*
%TO.C,SW2*%
X160821600Y-127817100D03*
X154321600Y-127817100D03*
X160821600Y-132317100D03*
X154321600Y-132317100D03*
%TD*%
D12*
%TO.C,U4*%
X103083600Y-111515100D03*
D13*
X105623600Y-111515100D03*
X108163600Y-111515100D03*
X110703600Y-111515100D03*
X113243600Y-111515100D03*
X115783600Y-111515100D03*
X118323600Y-111515100D03*
X118323600Y-103895100D03*
X115783600Y-103895100D03*
X113243600Y-103895100D03*
X110703600Y-103895100D03*
X108163600Y-103895100D03*
X105623600Y-103895100D03*
X103083600Y-103895100D03*
%TD*%
D16*
%TO.C,R41*%
X217769600Y-99063700D03*
D13*
X217769600Y-109223700D03*
%TD*%
D16*
%TO.C,R12*%
X84419600Y-134258100D03*
D13*
X74259600Y-134258100D03*
%TD*%
D12*
%TO.C,U29*%
X133578600Y-42940100D03*
D13*
X133578600Y-45480100D03*
X133578600Y-48020100D03*
X133578600Y-50560100D03*
X133578600Y-53100100D03*
X133578600Y-55640100D03*
X133578600Y-58180100D03*
X141198600Y-58180100D03*
X141198600Y-55640100D03*
X141198600Y-53100100D03*
X141198600Y-50560100D03*
X141198600Y-48020100D03*
X141198600Y-45480100D03*
X141198600Y-42940100D03*
%TD*%
D16*
%TO.C,R19*%
X151587600Y-99063700D03*
D13*
X151587600Y-109223700D03*
%TD*%
D16*
%TO.C,R1*%
X130393600Y-134766100D03*
D13*
X120233600Y-134766100D03*
%TD*%
D16*
%TO.C,R37*%
X230977600Y-99063700D03*
D13*
X230977600Y-109223700D03*
%TD*%
D16*
%TO.C,C4*%
X143561600Y-134740700D03*
X138561600Y-134740700D03*
%TD*%
D12*
%TO.C,C6*%
X44882600Y-123717100D03*
D16*
X39882600Y-123717100D03*
%TD*%
D12*
%TO.C,U46*%
X229707600Y-64687500D03*
D13*
X229707600Y-67227500D03*
X229707600Y-69767500D03*
X229707600Y-72307500D03*
X229707600Y-74847500D03*
X229707600Y-77387500D03*
X229707600Y-79927500D03*
X237327600Y-79927500D03*
X237327600Y-77387500D03*
X237327600Y-74847500D03*
X237327600Y-72307500D03*
X237327600Y-69767500D03*
X237327600Y-67227500D03*
X237327600Y-64687500D03*
%TD*%
D12*
%TO.C,U39*%
X160223200Y-42914700D03*
D13*
X160223200Y-45454700D03*
X160223200Y-47994700D03*
X160223200Y-50534700D03*
X160223200Y-53074700D03*
X160223200Y-55614700D03*
X160223200Y-58154700D03*
X167843200Y-58154700D03*
X167843200Y-55614700D03*
X167843200Y-53074700D03*
X167843200Y-50534700D03*
X167843200Y-47994700D03*
X167843200Y-45454700D03*
X167843200Y-42914700D03*
%TD*%
D16*
%TO.C,R21*%
X168097600Y-99063700D03*
D13*
X168097600Y-109223700D03*
%TD*%
D16*
%TO.C,R4*%
X133441600Y-131083100D03*
D13*
X143601600Y-131083100D03*
%TD*%
D14*
%TO.C,U3*%
X176621600Y-137179100D03*
D15*
X179161600Y-137179100D03*
X181701600Y-137179100D03*
X184241600Y-137179100D03*
X186781600Y-137179100D03*
X186781600Y-121939100D03*
X184241600Y-121939100D03*
X181701600Y-121939100D03*
X179161600Y-121939100D03*
X176621600Y-121939100D03*
%TD*%
D12*
%TO.C,U24*%
X64119600Y-42940100D03*
D13*
X64119600Y-45480100D03*
X64119600Y-48020100D03*
X64119600Y-50560100D03*
X64119600Y-53100100D03*
X64119600Y-55640100D03*
X64119600Y-58180100D03*
X71739600Y-58180100D03*
X71739600Y-55640100D03*
X71739600Y-53100100D03*
X71739600Y-50560100D03*
X71739600Y-48020100D03*
X71739600Y-45480100D03*
X71739600Y-42940100D03*
%TD*%
D16*
%TO.C,R7*%
X107025600Y-131083100D03*
D13*
X117185600Y-131083100D03*
%TD*%
D12*
%TO.C,U27*%
X119837200Y-64834900D03*
D13*
X119837200Y-67374900D03*
X119837200Y-69914900D03*
X119837200Y-72454900D03*
X119837200Y-74994900D03*
X119837200Y-77534900D03*
X119837200Y-80074900D03*
X127457200Y-80074900D03*
X127457200Y-77534900D03*
X127457200Y-74994900D03*
X127457200Y-72454900D03*
X127457200Y-69914900D03*
X127457200Y-67374900D03*
X127457200Y-64834900D03*
%TD*%
D16*
%TO.C,R26*%
X174701600Y-99063700D03*
D13*
X174701600Y-109223700D03*
%TD*%
D12*
%TO.C,U43*%
X171668600Y-64687500D03*
D13*
X171668600Y-67227500D03*
X171668600Y-69767500D03*
X171668600Y-72307500D03*
X171668600Y-74847500D03*
X171668600Y-77387500D03*
X171668600Y-79927500D03*
X179288600Y-79927500D03*
X179288600Y-77387500D03*
X179288600Y-74847500D03*
X179288600Y-72307500D03*
X179288600Y-69767500D03*
X179288600Y-67227500D03*
X179288600Y-64687500D03*
%TD*%
D12*
%TO.C,U13*%
X103083600Y-99069100D03*
D13*
X105623600Y-99069100D03*
X108163600Y-99069100D03*
X110703600Y-99069100D03*
X113243600Y-99069100D03*
X115783600Y-99069100D03*
X118323600Y-99069100D03*
X118323600Y-91449100D03*
X115783600Y-91449100D03*
X113243600Y-91449100D03*
X110703600Y-91449100D03*
X108163600Y-91449100D03*
X105623600Y-91449100D03*
X103083600Y-91449100D03*
%TD*%
D12*
%TO.C,U2*%
X96367600Y-130839100D03*
D13*
X96367600Y-133379100D03*
X96367600Y-135919100D03*
X96367600Y-138459100D03*
X103987600Y-138459100D03*
X103987600Y-135919100D03*
X103987600Y-133379100D03*
X103987600Y-130839100D03*
%TD*%
D16*
%TO.C,R9*%
X107025600Y-138449100D03*
D13*
X117185600Y-138449100D03*
%TD*%
D16*
%TO.C,R27*%
X171399600Y-99063700D03*
D13*
X171399600Y-109223700D03*
%TD*%
D16*
%TO.C,R34*%
X194655600Y-99063700D03*
D13*
X194655600Y-109223700D03*
%TD*%
D14*
%TO.C,U7*%
X190998000Y-137179100D03*
D15*
X193538000Y-137179100D03*
X196078000Y-137179100D03*
X198618000Y-137179100D03*
X201158000Y-137179100D03*
X201158000Y-121939100D03*
X198618000Y-121939100D03*
X196078000Y-121939100D03*
X193538000Y-121939100D03*
X190998000Y-121939100D03*
%TD*%
D22*
%TO.C,J1*%
X39882600Y-135706100D03*
D23*
X44882600Y-135706100D03*
%TD*%
D12*
%TO.C,U23*%
X51663600Y-64657100D03*
D13*
X51663600Y-67197100D03*
X51663600Y-69737100D03*
X51663600Y-72277100D03*
X51663600Y-74817100D03*
X51663600Y-77357100D03*
X51663600Y-79897100D03*
X59283600Y-79897100D03*
X59283600Y-77357100D03*
X59283600Y-74817100D03*
X59283600Y-72277100D03*
X59283600Y-69737100D03*
X59283600Y-67197100D03*
X59283600Y-64657100D03*
%TD*%
D16*
%TO.C,R11*%
X63083600Y-129940100D03*
D13*
X73243600Y-129940100D03*
%TD*%
D16*
%TO.C,R6*%
X133441600Y-138449100D03*
D13*
X143601600Y-138449100D03*
%TD*%
D12*
%TO.C,U32*%
X78704600Y-99069100D03*
D13*
X81244600Y-99069100D03*
X83784600Y-99069100D03*
X86324600Y-99069100D03*
X88864600Y-99069100D03*
X91404600Y-99069100D03*
X93944600Y-99069100D03*
X93944600Y-91449100D03*
X91404600Y-91449100D03*
X88864600Y-91449100D03*
X86324600Y-91449100D03*
X83784600Y-91449100D03*
X81244600Y-91449100D03*
X78704600Y-91449100D03*
%TD*%
D12*
%TO.C,U19*%
X39344600Y-99582100D03*
D13*
X39344600Y-102122100D03*
X39344600Y-104662100D03*
X39344600Y-107202100D03*
X39344600Y-109742100D03*
X39344600Y-112282100D03*
X39344600Y-114822100D03*
X46964600Y-114822100D03*
X46964600Y-112282100D03*
X46964600Y-109742100D03*
X46964600Y-107202100D03*
X46964600Y-104662100D03*
X46964600Y-102122100D03*
X46964600Y-99582100D03*
%TD*%
D12*
%TO.C,U9*%
X77175600Y-127263100D03*
D13*
X79715600Y-127263100D03*
X82255600Y-127263100D03*
X84795600Y-127263100D03*
X87335600Y-127263100D03*
X89875600Y-127263100D03*
X92415600Y-127263100D03*
X92415600Y-119643100D03*
X89875600Y-119643100D03*
X87335600Y-119643100D03*
X84795600Y-119643100D03*
X82255600Y-119643100D03*
X79715600Y-119643100D03*
X77175600Y-119643100D03*
%TD*%
D16*
%TO.C,R16*%
X161493600Y-99063700D03*
D13*
X161493600Y-109223700D03*
%TD*%
D12*
%TO.C,U40*%
X218023600Y-64687500D03*
D13*
X218023600Y-67227500D03*
X218023600Y-69767500D03*
X218023600Y-72307500D03*
X218023600Y-74847500D03*
X218023600Y-77387500D03*
X218023600Y-79927500D03*
X225643600Y-79927500D03*
X225643600Y-77387500D03*
X225643600Y-74847500D03*
X225643600Y-72307500D03*
X225643600Y-69767500D03*
X225643600Y-67227500D03*
X225643600Y-64687500D03*
%TD*%
D16*
%TO.C,R28*%
X191211600Y-99063700D03*
D13*
X191211600Y-109223700D03*
%TD*%
D10*
%TO.C,Q3*%
X70068600Y-121304100D03*
D11*
X71338600Y-121304100D03*
X72608600Y-121304100D03*
%TD*%
D16*
%TO.C,R24*%
X181305600Y-99063700D03*
D13*
X181305600Y-109223700D03*
%TD*%
D16*
%TO.C,C2*%
X143561600Y-127095300D03*
X138561600Y-127095300D03*
%TD*%
D12*
%TO.C,U30*%
X78968600Y-64682500D03*
D13*
X78968600Y-67222500D03*
X78968600Y-69762500D03*
X78968600Y-72302500D03*
X78968600Y-74842500D03*
X78968600Y-77382500D03*
X78968600Y-79922500D03*
X86588600Y-79922500D03*
X86588600Y-77382500D03*
X86588600Y-74842500D03*
X86588600Y-72302500D03*
X86588600Y-69762500D03*
X86588600Y-67222500D03*
X86588600Y-64682500D03*
%TD*%
D12*
%TO.C,U52*%
X183301800Y-64763700D03*
D13*
X183301800Y-67303700D03*
X183301800Y-69843700D03*
X183301800Y-72383700D03*
X183301800Y-74923700D03*
X183301800Y-77463700D03*
X183301800Y-80003700D03*
X190921800Y-80003700D03*
X190921800Y-77463700D03*
X190921800Y-74923700D03*
X190921800Y-72383700D03*
X190921800Y-69843700D03*
X190921800Y-67303700D03*
X190921800Y-64763700D03*
%TD*%
D12*
%TO.C,C5*%
X90312400Y-133840900D03*
D16*
X90312400Y-138840900D03*
%TD*%
D12*
%TO.C,U22*%
X51546600Y-42940100D03*
D13*
X51546600Y-45480100D03*
X51546600Y-48020100D03*
X51546600Y-50560100D03*
X51546600Y-53100100D03*
X51546600Y-55640100D03*
X51546600Y-58180100D03*
X59166600Y-58180100D03*
X59166600Y-55640100D03*
X59166600Y-53100100D03*
X59166600Y-50560100D03*
X59166600Y-48020100D03*
X59166600Y-45480100D03*
X59166600Y-42940100D03*
%TD*%
D12*
%TO.C,U48*%
X183372600Y-42833500D03*
D13*
X183372600Y-45373500D03*
X183372600Y-47913500D03*
X183372600Y-50453500D03*
X183372600Y-52993500D03*
X183372600Y-55533500D03*
X183372600Y-58073500D03*
X190992600Y-58073500D03*
X190992600Y-55533500D03*
X190992600Y-52993500D03*
X190992600Y-50453500D03*
X190992600Y-47913500D03*
X190992600Y-45373500D03*
X190992600Y-42833500D03*
%TD*%
D12*
%TO.C,U42*%
X194751800Y-42833500D03*
D13*
X194751800Y-45373500D03*
X194751800Y-47913500D03*
X194751800Y-50453500D03*
X194751800Y-52993500D03*
X194751800Y-55533500D03*
X194751800Y-58073500D03*
X202371800Y-58073500D03*
X202371800Y-55533500D03*
X202371800Y-52993500D03*
X202371800Y-50453500D03*
X202371800Y-47913500D03*
X202371800Y-45373500D03*
X202371800Y-42833500D03*
%TD*%
D12*
%TO.C,U45*%
X206212600Y-64687500D03*
D13*
X206212600Y-67227500D03*
X206212600Y-69767500D03*
X206212600Y-72307500D03*
X206212600Y-74847500D03*
X206212600Y-77387500D03*
X206212600Y-79927500D03*
X213832600Y-79927500D03*
X213832600Y-77387500D03*
X213832600Y-74847500D03*
X213832600Y-72307500D03*
X213832600Y-69767500D03*
X213832600Y-67227500D03*
X213832600Y-64687500D03*
%TD*%
D12*
%TO.C,U15*%
X125054600Y-99069100D03*
D13*
X127594600Y-99069100D03*
X130134600Y-99069100D03*
X132674600Y-99069100D03*
X135214600Y-99069100D03*
X137754600Y-99069100D03*
X140294600Y-99069100D03*
X140294600Y-91449100D03*
X137754600Y-91449100D03*
X135214600Y-91449100D03*
X132674600Y-91449100D03*
X130134600Y-91449100D03*
X127594600Y-91449100D03*
X125054600Y-91449100D03*
%TD*%
D16*
%TO.C,R31*%
X204561600Y-99053700D03*
D13*
X204561600Y-109213700D03*
%TD*%
D16*
%TO.C,R33*%
X197957600Y-99063700D03*
D13*
X197957600Y-109223700D03*
%TD*%
D16*
%TO.C,R10*%
X74259600Y-138322100D03*
D13*
X84419600Y-138322100D03*
%TD*%
D16*
%TO.C,R38*%
X227675600Y-99063700D03*
D13*
X227675600Y-109223700D03*
%TD*%
D16*
%TO.C,C1*%
X70449600Y-138790100D03*
X70449600Y-133790100D03*
%TD*%
D12*
%TO.C,U1*%
X166065600Y-87938500D03*
D13*
X163525600Y-87938500D03*
X160985600Y-87938500D03*
X158445600Y-87938500D03*
X155905600Y-87938500D03*
X153365600Y-87938500D03*
X150825600Y-87938500D03*
X148285600Y-87938500D03*
X148285600Y-95558500D03*
X150825600Y-95558500D03*
X153365600Y-95558500D03*
X155905600Y-95558500D03*
X158445600Y-95558500D03*
X160985600Y-95558500D03*
X163525600Y-95558500D03*
X166065600Y-95558500D03*
%TD*%
D16*
%TO.C,R35*%
X214467600Y-99053700D03*
D13*
X214467600Y-109213700D03*
%TD*%
D12*
%TO.C,U34*%
X106349800Y-64784100D03*
D13*
X106349800Y-67324100D03*
X106349800Y-69864100D03*
X106349800Y-72404100D03*
X106349800Y-74944100D03*
X106349800Y-77484100D03*
X106349800Y-80024100D03*
X113969800Y-80024100D03*
X113969800Y-77484100D03*
X113969800Y-74944100D03*
X113969800Y-72404100D03*
X113969800Y-69864100D03*
X113969800Y-67324100D03*
X113969800Y-64784100D03*
%TD*%
D12*
%TO.C,U36*%
X78816200Y-42990900D03*
D13*
X78816200Y-45530900D03*
X78816200Y-48070900D03*
X78816200Y-50610900D03*
X78816200Y-53150900D03*
X78816200Y-55690900D03*
X78816200Y-58230900D03*
X86436200Y-58230900D03*
X86436200Y-55690900D03*
X86436200Y-53150900D03*
X86436200Y-50610900D03*
X86436200Y-48070900D03*
X86436200Y-45530900D03*
X86436200Y-42990900D03*
%TD*%
D16*
%TO.C,R2*%
X130393600Y-131083100D03*
D13*
X120233600Y-131083100D03*
%TD*%
D16*
%TO.C,R8*%
X117185600Y-134766100D03*
D13*
X107025600Y-134766100D03*
%TD*%
D16*
%TO.C,R39*%
X224373600Y-99063700D03*
D13*
X224373600Y-109223700D03*
%TD*%
D16*
%TO.C,R22*%
X164795600Y-99063700D03*
D13*
X164795600Y-109223700D03*
%TD*%
D16*
%TO.C,R36*%
X211165600Y-99053700D03*
D13*
X211165600Y-109213700D03*
%TD*%
D16*
%TO.C,R15*%
X236540200Y-129813100D03*
D13*
X236540200Y-119653100D03*
%TD*%
D16*
%TO.C,C3*%
X143601600Y-119399100D03*
X138601600Y-119399100D03*
%TD*%
%TO.C,R5*%
X133481600Y-123209100D03*
D13*
X143641600Y-123209100D03*
%TD*%
D16*
%TO.C,R23*%
X184607600Y-99063700D03*
D13*
X184607600Y-109223700D03*
%TD*%
D12*
%TO.C,U49*%
X206283400Y-42757300D03*
D13*
X206283400Y-45297300D03*
X206283400Y-47837300D03*
X206283400Y-50377300D03*
X206283400Y-52917300D03*
X206283400Y-55457300D03*
X206283400Y-57997300D03*
X213903400Y-57997300D03*
X213903400Y-55457300D03*
X213903400Y-52917300D03*
X213903400Y-50377300D03*
X213903400Y-47837300D03*
X213903400Y-45297300D03*
X213903400Y-42757300D03*
%TD*%
D16*
%TO.C,R43*%
X234279600Y-99089100D03*
D13*
X234279600Y-109249100D03*
%TD*%
D12*
%TO.C,U16*%
X52054600Y-99577100D03*
D13*
X52054600Y-102117100D03*
X52054600Y-104657100D03*
X52054600Y-107197100D03*
X52054600Y-109737100D03*
X52054600Y-112277100D03*
X52054600Y-114817100D03*
X59674600Y-114817100D03*
X59674600Y-112277100D03*
X59674600Y-109737100D03*
X59674600Y-107197100D03*
X59674600Y-104657100D03*
X59674600Y-102117100D03*
X59674600Y-99577100D03*
%TD*%
D12*
%TO.C,U44*%
X148793200Y-42914700D03*
D13*
X148793200Y-45454700D03*
X148793200Y-47994700D03*
X148793200Y-50534700D03*
X148793200Y-53074700D03*
X148793200Y-55614700D03*
X148793200Y-58154700D03*
X156413200Y-58154700D03*
X156413200Y-55614700D03*
X156413200Y-53074700D03*
X156413200Y-50534700D03*
X156413200Y-47994700D03*
X156413200Y-45454700D03*
X156413200Y-42914700D03*
%TD*%
D16*
%TO.C,R32*%
X201259600Y-99063700D03*
D13*
X201259600Y-109223700D03*
%TD*%
D12*
%TO.C,U37*%
X92674600Y-42945100D03*
D13*
X92674600Y-45485100D03*
X92674600Y-48025100D03*
X92674600Y-50565100D03*
X92674600Y-53105100D03*
X92674600Y-55645100D03*
X92674600Y-58185100D03*
X100294600Y-58185100D03*
X100294600Y-55645100D03*
X100294600Y-53105100D03*
X100294600Y-50565100D03*
X100294600Y-48025100D03*
X100294600Y-45485100D03*
X100294600Y-42945100D03*
%TD*%
D12*
%TO.C,U20*%
X64109600Y-99582100D03*
D13*
X64109600Y-102122100D03*
X64109600Y-104662100D03*
X64109600Y-107202100D03*
X64109600Y-109742100D03*
X64109600Y-112282100D03*
X64109600Y-114822100D03*
X71729600Y-114822100D03*
X71729600Y-112282100D03*
X71729600Y-109742100D03*
X71729600Y-107202100D03*
X71729600Y-104662100D03*
X71729600Y-102122100D03*
X71729600Y-99582100D03*
%TD*%
D12*
%TO.C,U28*%
X106273600Y-42940100D03*
D13*
X106273600Y-45480100D03*
X106273600Y-48020100D03*
X106273600Y-50560100D03*
X106273600Y-53100100D03*
X106273600Y-55640100D03*
X106273600Y-58180100D03*
X113893600Y-58180100D03*
X113893600Y-55640100D03*
X113893600Y-53100100D03*
X113893600Y-50560100D03*
X113893600Y-48020100D03*
X113893600Y-45480100D03*
X113893600Y-42940100D03*
%TD*%
D12*
%TO.C,C7*%
X51719000Y-127908100D03*
D16*
X56719000Y-127908100D03*
%TD*%
D20*
%TO.C,D1*%
X156296600Y-122040700D03*
D21*
X158836600Y-122040700D03*
%TD*%
D16*
%TO.C,R17*%
X158191600Y-99063700D03*
D13*
X158191600Y-109223700D03*
%TD*%
D16*
%TO.C,R18*%
X154889600Y-99063700D03*
D13*
X154889600Y-109223700D03*
%TD*%
M02*
