M48
; DRILL file {KiCad (6.0.1-0)} date Thursday, January 05, 2023 at 11:23:16 AM
; FORMAT={-:-/ absolute / inch / decimal}
; #@! TF.CreationDate,2023-01-05T11:23:16-08:00
; #@! TF.GenerationSoftware,Kicad,Pcbnew,(6.0.1-0)
; #@! TF.FileFunction,Plated,1,2,PTH
FMAT,2
INCH
; #@! TA.AperFunction,Plated,PTH,ViaDrill
T1C0.0060
; #@! TA.AperFunction,Plated,PTH,ViaDrill
T2C0.0120
; #@! TA.AperFunction,Plated,PTH,ViaDrill
T3C0.0157
; #@! TA.AperFunction,Plated,PTH,ComponentDrill
T4C0.0295
; #@! TA.AperFunction,Plated,PTH,ComponentDrill
T5C0.0315
; #@! TA.AperFunction,Plated,PTH,ComponentDrill
T6C0.0354
; #@! TA.AperFunction,Plated,PTH,ComponentDrill
T7C0.0433
; #@! TA.AperFunction,Plated,PTH,ComponentDrill
T8C0.0512
%
G90
G05
T1
X1.5696Y-3.5148
X1.6346Y-3.9948
X1.6376Y-2.7928
X1.6396Y-3.9138
X1.6446Y-4.0978
X1.6726Y-2.7418
X1.6856Y-3.4818
X1.7636Y-3.9658
X1.7856Y-3.0938
X1.9116Y-4.0698
X1.9136Y-2.9268
X1.9166Y-2.6958
X1.9206Y-2.5948
X1.9206Y-4.1468
X1.9215Y-3.8288
X1.9216Y-2.8878
X1.9216Y-3.8528
X1.9236Y-2.7488
X1.9706Y-2.9838
X2.0496Y-3.2648
X2.1146Y-2.9428
X2.1186Y-2.5708
X2.1246Y-4.1958
X2.1346Y-3.7788
X2.1566Y-2.3658
X2.1616Y-3.8288
X2.1806Y-4.0958
X2.1806Y-4.4038
X2.1896Y-3.5358
X2.2106Y-2.6958
X2.2166Y-4.0188
X2.2196Y-3.8288
X2.2316Y-3.7778
X2.2556Y-2.1198
X2.2556Y-2.1938
X2.2646Y-4.1968
X2.2746Y-3.2328
X2.2846Y-4.2688
X2.3236Y-3.2358
X2.3936Y-3.5208
X2.4036Y-4.0378
X2.4106Y-3.1668
X2.4156Y-2.6958
X2.4206Y-2.7968
X2.4246Y-4.3948
X2.4266Y-4.1288
X2.4266Y-4.2638
X2.4336Y-3.0938
X2.4366Y-2.9898
X2.4406Y-2.8528
X2.4506Y-3.0418
X2.4956Y-2.7958
X2.5236Y-3.6008
X2.5926Y-2.7958
X2.5966Y-3.9978
X2.6766Y-2.4028
X2.6786Y-3.9418
X2.7326Y-2.7968
X2.7326Y-3.0168
X2.7326Y-3.3258
X2.7506Y-2.8188
X2.7523Y-3.0146
X2.7536Y-3.3138
X2.7696Y-2.9728
X2.8076Y-3.7428
X2.8906Y-3.7738
X2.9516Y-4.1948
X2.9836Y-3.2818
X3.0076Y-3.6918
X3.0126Y-2.7678
X3.1406Y-3.3558
X3.1876Y-3.2668
X3.1906Y-1.7488
X3.2056Y-2.3878
X3.2146Y-5.0928
X3.2146Y-5.1288
X3.2456Y-2.4148
X3.2746Y-5.1868
X3.2986Y-1.8918
X3.2986Y-2.0408
X3.3326Y-5.0918
X3.3466Y-3.3158
X3.3576Y-5.0698
X3.3796Y-4.7998
X3.3986Y-3.6918
X3.4384Y-4.9006
X3.4516Y-2.7868
X3.4676Y-2.2058
X3.4906Y-1.6288
X3.5046Y-2.1698
X3.5066Y-2.6528
X3.5066Y-3.3158
X3.5116Y-5.0698
X3.5506Y-3.3558
X3.5666Y-2.4418
X3.5666Y-3.0458
X3.5786Y-3.0858
X3.5786Y-3.1558
X3.5786Y-3.4528
X3.5866Y-2.4678
X3.5996Y-3.2658
X3.6156Y-2.1418
X3.6456Y-3.2668
X3.7086Y-2.1658
X3.7136Y-3.0928
X3.7346Y-2.3548
X3.7416Y-2.7038
X3.7606Y-4.5198
X3.7646Y-4.5548
X3.7806Y-1.8908
X3.7816Y-2.3258
X3.8086Y-4.2408
X3.8116Y-2.0908
X3.8116Y-3.7528
X3.8546Y-2.5468
X3.8566Y-2.6478
X3.8656Y-2.4938
X3.8716Y-3.2678
X3.8726Y-3.3358
X3.8736Y-2.0268
X3.8996Y-3.6948
X3.9026Y-4.5708
X3.9186Y-3.8308
X3.9476Y-4.2738
X3.9706Y-3.8818
X4.0126Y-2.0358
X4.0216Y-2.5988
X4.0396Y-1.7918
X4.0596Y-2.5988
X4.0596Y-2.6788
X4.0606Y-2.4698
X4.0856Y-2.8968
X4.1106Y-2.1308
X4.1106Y-2.1978
X4.1346Y-4.4718
X4.1836Y-1.615
X4.2036Y-3.2818
X4.2526Y-2.4658
X4.2536Y-2.1618
X4.2976Y-3.8278
X4.3026Y-2.4978
X4.3026Y-3.6708
X4.3036Y-2.6938
X4.3116Y-3.5148
X4.3436Y-2.3868
X4.3666Y-3.7778
X4.3676Y-3.6708
X4.3786Y-3.8278
X4.3846Y-2.5888
X4.3936Y-2.1888
X4.3946Y-2.0918
X4.3976Y-2.8968
X4.4176Y-2.3198
X4.4186Y-3.7798
X4.4206Y-2.5518
X4.4286Y-2.3878
X4.4576Y-4.2408
X4.4596Y-2.3598
X4.4646Y-4.5978
X4.5076Y-3.6828
X4.5216Y-3.7888
X4.5488Y-2.6506
X4.5488Y-3.4908
X4.5516Y-4.2638
X4.5556Y-2.2208
X4.5556Y-2.4168
X4.5706Y-2.5948
X4.5836Y-4.5578
X4.5946Y-2.3598
X4.6226Y-3.3348
X4.6256Y-2.3868
X4.6476Y-2.4418
X4.6676Y-4.1778
X4.6686Y-4.2138
X4.6716Y-3.3448
X4.7146Y-1.5988
X4.7356Y-3.7528
X4.7836Y-3.9698
X4.7836Y-4.1708
X4.7886Y-2.4648
X4.7926Y-3.7268
X4.7956Y-3.2448
X4.8126Y-2.1908
X4.8306Y-1.6298
X4.8306Y-1.9918
X4.8306Y-3.2878
X4.9116Y-1.8358
X4.9126Y-2.0928
X4.9306Y-4.5978
X4.9396Y-2.1378
X4.9656Y-3.5478
X5.0746Y-2.9068
X5.0786Y-1.6918
X5.0846Y-1.8888
X5.1026Y-3.2618
X5.1046Y-1.7928
X5.1056Y-3.1528
X5.1286Y-2.6828
X5.1716Y-2.0358
X5.1736Y-3.6578
X5.2236Y-3.3268
X5.3216Y-3.3868
X5.3426Y-2.9538
X5.3486Y-1.8388
X5.3486Y-2.1928
X5.4076Y-2.2488
X5.4186Y-3.7278
X5.4216Y-2.9528
X5.4296Y-2.0008
X5.4298Y-1.7906
X5.4476Y-2.2488
X5.4556Y-1.9228
X5.4556Y-2.1488
X5.4766Y-2.0438
X5.4856Y-3.3063
X5.4886Y-2.4528
X5.4916Y-2.1008
X5.5236Y-3.2378
X5.6416Y-3.5148
X5.6426Y-3.5858
X5.6666Y-2.4608
X5.6916Y-2.8978
X5.6926Y-3.5688
X5.7196Y-3.6268
X5.7536Y-4.4938
X5.7706Y-2.1978
X5.7706Y-2.4218
X5.7986Y-2.4048
X5.896Y-5.381
X5.9236Y-2.3628
X5.9376Y-3.2388
X6.0376Y-3.2556
X6.0656Y-2.9918
X6.0756Y-3.3638
X6.0776Y-1.8878
X6.0926Y-3.3238
X6.2206Y-2.3358
X6.2276Y-2.2188
X6.2296Y-2.0388
X6.2356Y-2.9968
X6.2426Y-2.4408
X6.2436Y-2.5958
X6.2496Y-3.0268
X6.3676Y-3.3878
X6.3886Y-3.0958
X6.4106Y-2.5798
X6.4376Y-2.1448
X6.4716Y-3.1948
X6.4736Y-3.0478
X6.4846Y-2.7168
X6.4986Y-2.3328
X6.5026Y-1.7358
X6.5036Y-2.7448
X6.5036Y-3.3469
X6.5086Y-2.6228
X6.5376Y-2.3648
X6.6486Y-3.6436
X6.6696Y-2.3816
X6.6696Y-2.4208
X6.6716Y-3.6778
X6.6866Y-2.8688
X6.6876Y-1.9398
X6.6876Y-2.8458
X6.7045Y-2.1928
X6.7046Y-2.2658
X6.7616Y-1.5868
X6.8266Y-2.0868
X6.8266Y-2.4188
X6.8362Y-3.1828
X6.8526Y-1.6048
X6.8746Y-2.4418
X6.8746Y-3.0458
X6.8936Y-1.9888
X6.8956Y-1.6278
X6.9096Y-2.9468
X6.9096Y-3.2726
X6.9296Y-2.6008
X6.9296Y-3.3268
X6.9526Y-2.3816
X6.9676Y-1.6828
X6.9676Y-1.9368
X6.9726Y-3.1518
X6.9746Y-2.7778
X6.9796Y-2.5978
X6.9816Y-2.7468
X6.9936Y-3.1208
X6.9946Y-3.3298
X7.0006Y-2.3178
X7.0916Y-2.3418
X7.1186Y-1.6268
X7.1216Y-2.2348
X7.1276Y-2.1828
X7.1306Y-1.9408
X7.1366Y-1.7298
X7.1416Y-2.4438
X7.1486Y-3.2218
X7.1496Y-2.8028
X7.1546Y-2.3418
X7.1886Y-1.6268
X7.2856Y-2.8028
X7.2866Y-3.2198
X7.3046Y-2.2398
X7.3296Y-2.3218
X7.3306Y-2.1578
X7.3526Y-3.2726
X7.3536Y-2.5378
X7.3546Y-1.9838
X7.3646Y-2.5778
X7.3646Y-2.7048
X7.399Y-2.283
X7.4006Y-1.6848
X7.4046Y-3.3978
X7.4096Y-2.7998
X7.4196Y-2.0858
X7.4196Y-2.1868
X7.4386Y-1.8858
X7.4396Y-2.2078
X7.4526Y-3.0498
X7.4536Y-2.4008
X7.5166Y-3.2388
X7.5716Y-1.6268
X7.5726Y-2.7508
X7.5746Y-3.2188
X7.5776Y-3.0728
X7.5856Y-2.4228
X7.586Y-2.459
X7.5896Y-1.7868
X7.5896Y-2.0958
X7.5896Y-2.3818
X7.5896Y-2.9958
X7.6016Y-1.6928
X7.6026Y-3.1928
X7.6126Y-2.4238
X7.6396Y-1.6268
X7.6526Y-3.5278
X7.709Y-2.694
X7.7476Y-1.9888
X7.7926Y-2.0918
X7.7926Y-2.3828
X7.7936Y-2.4938
X7.8066Y-3.3628
X7.8236Y-1.7878
X7.8246Y-2.2858
X7.8426Y-3.2895
X7.8446Y-3.0478
X7.8456Y-2.7968
X7.8506Y-2.1288
X7.8636Y-2.2848
X7.8836Y-2.3648
X7.8866Y-3.0998
X7.8886Y-2.5458
X7.9076Y-2.4018
X7.9426Y-3.3068
X8.0206Y-1.7398
X8.0216Y-2.6198
X8.0386Y-2.6568
X8.0466Y-2.2408
X8.0476Y-1.8748
X8.0486Y-1.6448
X8.0536Y-3.2726
X8.0756Y-2.4658
X8.1856Y-2.4438
X8.1976Y-2.3818
X8.2216Y-1.9388
X8.2686Y-2.0818
X8.2686Y-3.0448
X8.2906Y-2.3838
X8.2946Y-2.5488
X8.2956Y-2.6468
X8.3136Y-2.3408
X8.3306Y-1.5928
X8.3306Y-1.6848
X8.331Y-2.129
X8.3406Y-3.1048
X8.3446Y-3.5688
X8.3576Y-2.3658
X8.3696Y-2.4028
X8.4426Y-3.5558
X8.4736Y-1.6208
X8.4916Y-1.8338
X8.5126Y-1.5934
X8.5126Y-1.7878
X8.5156Y-2.5468
X8.5156Y-2.6448
X8.5166Y-3.3288
X8.6436Y-3.3448
X8.6726Y-2.2328
X8.7016Y-2.6478
X8.7096Y-2.1918
X8.7496Y-3.5849
X8.7676Y-2.1318
X8.8026Y-2.5468
X8.8036Y-2.6488
X8.8096Y-3.3998
X8.8166Y-2.1528
X8.8496Y-3.6018
X8.8876Y-2.4238
X8.9616Y-2.5478
X8.9616Y-2.6468
X8.9806Y-2.2408
X9.135Y-2.647
X9.1396Y-2.2198
X9.1916Y-3.6538
X9.2476Y-3.6268
X9.2606Y-1.5938
X9.2646Y-2.6498
X9.2656Y-2.5468
X9.2746Y-3.2558
X9.3496Y-3.6518
X9.4026Y-3.6058
X9.4066Y-2.5968
T2
X1.463Y-2.682
X1.522Y-2.413
X1.709Y-2.762
X1.709Y-2.845
X1.722Y-3.569
X1.723Y-3.449
X1.885Y-2.415
X1.962Y-3.926
X1.984Y-3.856
X1.987Y-2.38
X2.002Y-3.794
X2.041Y-2.451
X2.089Y-3.785
X2.227Y-2.532
X2.241Y-3.95
X2.251Y-2.843
X2.252Y-2.745
X2.54Y-2.449
X2.625Y-2.37
X3.41Y-5.136
X3.594Y-5.125
X3.674Y-3.38
X3.752Y-3.355
X3.903Y-5.291
X3.948Y-1.6
X4.005Y-1.609
X4.036Y-3.281
X4.04Y-3.198
X4.051Y-1.585
X4.074Y-2.949
X4.27Y-2.959
X4.272Y-1.687
X4.348Y-1.581
X4.582Y-3.829
X4.784Y-3.829
X6.915Y-2.456
X7.323Y-1.679
X7.411Y-2.649
X7.486Y-2.4943
X7.582Y-2.847
X7.593Y-2.521
X7.598Y-2.567
X7.718Y-2.4957
X7.755Y-2.863
X7.755Y-2.941
X7.756Y-1.672
X7.767Y-2.777
X7.778Y-2.635
X7.888Y-2.636
X8.049Y-2.503
X8.297Y-2.843
X8.3Y-2.954
T3
X2.1666Y-1.9428
X8.5046Y-2.9008
T4
X2.4986Y-4.7758
X2.4986Y-5.4249
X2.5486Y-4.7758
X2.5486Y-5.4249
X2.5986Y-4.7758
X2.5986Y-5.4249
X2.7586Y-4.7758
X2.8086Y-4.7758
X2.8586Y-4.7758
T5
X1.544Y-1.6906
X1.544Y-1.7906
X1.544Y-1.8906
X1.544Y-1.9906
X1.544Y-2.0906
X1.544Y-2.1906
X1.544Y-2.2906
X1.544Y-2.5456
X1.544Y-2.6456
X1.544Y-2.7456
X1.544Y-2.8456
X1.544Y-2.9456
X1.544Y-3.0456
X1.544Y-3.1456
X1.549Y-3.9206
X1.549Y-4.0206
X1.549Y-4.1206
X1.549Y-4.2206
X1.549Y-4.3206
X1.549Y-4.4206
X1.549Y-4.5206
X1.5702Y-4.8708
X1.767Y-4.8708
X1.844Y-1.6906
X1.844Y-1.7906
X1.844Y-1.8906
X1.844Y-1.9906
X1.844Y-2.0906
X1.844Y-2.1906
X1.844Y-2.2906
X1.844Y-2.5456
X1.844Y-2.6456
X1.844Y-2.7456
X1.844Y-2.8456
X1.844Y-2.9456
X1.844Y-3.0456
X1.844Y-3.1456
X1.849Y-3.9206
X1.849Y-4.0206
X1.849Y-4.1206
X1.849Y-4.2206
X1.849Y-4.3206
X1.849Y-4.4206
X1.849Y-4.5206
X1.8954Y-3.3804
X1.8954Y-3.6804
X1.9954Y-3.3804
X1.9954Y-3.6804
X2.0294Y-1.6906
X2.0294Y-1.7906
X2.0294Y-1.8906
X2.0294Y-1.9906
X2.0294Y-2.0906
X2.0294Y-2.1906
X2.0294Y-2.2906
X2.034Y-2.5456
X2.034Y-2.6456
X2.034Y-2.7456
X2.034Y-2.8456
X2.034Y-2.9456
X2.034Y-3.0456
X2.034Y-3.1456
X2.0362Y-5.0358
X2.0494Y-3.9204
X2.0494Y-4.0204
X2.0494Y-4.1204
X2.0494Y-4.2204
X2.0494Y-4.3204
X2.0494Y-4.4204
X2.0494Y-4.5204
X2.0954Y-3.3804
X2.0954Y-3.6804
X2.1954Y-3.3804
X2.1954Y-3.6804
X2.233Y-5.0358
X2.2954Y-3.3804
X2.2954Y-3.6804
X2.3294Y-1.6906
X2.3294Y-1.7906
X2.3294Y-1.8906
X2.3294Y-1.9906
X2.3294Y-2.0906
X2.3294Y-2.1906
X2.3294Y-2.2906
X2.334Y-2.5456
X2.334Y-2.6456
X2.334Y-2.7456
X2.334Y-2.8456
X2.334Y-2.9456
X2.334Y-3.0456
X2.334Y-3.1456
X2.3494Y-3.9204
X2.3494Y-4.0204
X2.3494Y-4.1204
X2.3494Y-4.2204
X2.3494Y-4.3204
X2.3494Y-4.4204
X2.3494Y-4.5204
X2.3954Y-3.3804
X2.3954Y-3.6804
X2.4836Y-4.9658
X2.4836Y-5.1158
X2.4954Y-3.3804
X2.4954Y-3.6804
X2.524Y-3.9206
X2.524Y-4.0206
X2.524Y-4.1206
X2.524Y-4.2206
X2.524Y-4.3206
X2.524Y-4.4206
X2.524Y-4.5206
X2.5244Y-1.6906
X2.5244Y-1.7906
X2.5244Y-1.8906
X2.5244Y-1.9906
X2.5244Y-2.0906
X2.5244Y-2.1906
X2.5244Y-2.2906
X2.529Y-2.5456
X2.529Y-2.6456
X2.529Y-2.7456
X2.529Y-2.8456
X2.529Y-2.9456
X2.529Y-3.0456
X2.529Y-3.1456
X2.7736Y-5.2673
X2.7736Y-5.4642
X2.824Y-3.9206
X2.824Y-4.0206
X2.824Y-4.1206
X2.824Y-4.2206
X2.824Y-4.3206
X2.824Y-4.4206
X2.824Y-4.5206
X2.8244Y-1.6906
X2.8244Y-1.7906
X2.8244Y-1.8906
X2.8244Y-1.9906
X2.8244Y-2.0906
X2.8244Y-2.1906
X2.8244Y-2.2906
X2.829Y-2.5456
X2.829Y-2.6456
X2.829Y-2.7456
X2.829Y-2.8456
X2.829Y-2.9456
X2.829Y-3.0456
X2.829Y-3.1456
X2.8836Y-4.9658
X2.8836Y-5.1158
X2.9236Y-5.2858
X2.9236Y-5.4458
X3.0384Y-4.7104
X3.0384Y-5.0104
X3.0986Y-3.6004
X3.0986Y-3.9004
X3.103Y-1.6926
X3.103Y-1.7926
X3.103Y-1.8926
X3.103Y-1.9926
X3.103Y-2.0926
X3.103Y-2.1926
X3.103Y-2.2926
X3.1036Y-4.0904
X3.1036Y-4.3904
X3.109Y-2.5466
X3.109Y-2.6466
X3.109Y-2.7466
X3.109Y-2.8466
X3.109Y-2.9466
X3.109Y-3.0466
X3.109Y-3.1466
X3.1384Y-4.7104
X3.1384Y-5.0104
X3.1986Y-3.6004
X3.1986Y-3.9004
X3.2036Y-4.0904
X3.2036Y-4.3904
X3.2384Y-4.7104
X3.2384Y-5.0104
X3.2986Y-3.6004
X3.2986Y-3.9004
X3.3036Y-4.0904
X3.3036Y-4.3904
X3.3236Y-5.2858
X3.3236Y-5.4458
X3.3384Y-4.7104
X3.3384Y-5.0104
X3.3986Y-3.6004
X3.3986Y-3.9004
X3.403Y-1.6926
X3.403Y-1.7926
X3.403Y-1.8926
X3.403Y-1.9926
X3.403Y-2.0926
X3.403Y-2.1926
X3.403Y-2.2926
X3.4036Y-4.0904
X3.4036Y-4.3904
X3.409Y-2.5466
X3.409Y-2.6466
X3.409Y-2.7466
X3.409Y-2.8466
X3.409Y-2.9466
X3.409Y-3.0466
X3.409Y-3.1466
X3.4384Y-4.7104
X3.4384Y-5.0104
X3.4986Y-3.6004
X3.4986Y-3.9004
X3.5036Y-4.0904
X3.5036Y-4.3904
X3.5384Y-4.7104
X3.5384Y-5.0104
X3.5556Y-5.2693
X3.5556Y-5.4662
X3.5986Y-3.6004
X3.5986Y-3.9004
X3.6036Y-4.0904
X3.6036Y-4.3904
X3.6384Y-4.7104
X3.6384Y-5.0104
X3.6486Y-1.6908
X3.6486Y-1.7908
X3.6486Y-1.8908
X3.6486Y-1.9908
X3.6486Y-2.0908
X3.6486Y-2.1908
X3.6486Y-2.2908
X3.65Y-2.5476
X3.65Y-2.6476
X3.65Y-2.7476
X3.65Y-2.8476
X3.65Y-2.9476
X3.65Y-3.0476
X3.65Y-3.1476
X3.6986Y-3.6004
X3.6986Y-3.9004
X3.7036Y-4.0904
X3.7036Y-4.3904
X3.794Y-5.1511
X3.794Y-5.2511
X3.794Y-5.3511
X3.794Y-5.4511
X3.9486Y-1.6908
X3.9486Y-1.7908
X3.9486Y-1.8908
X3.9486Y-1.9908
X3.9486Y-2.0908
X3.9486Y-2.1908
X3.9486Y-2.2908
X3.95Y-2.5476
X3.95Y-2.6476
X3.95Y-2.7476
X3.95Y-2.8476
X3.95Y-2.9476
X3.95Y-3.0476
X3.95Y-3.1476
X4.0584Y-3.6004
X4.0584Y-3.9004
X4.0584Y-4.0904
X4.0584Y-4.3904
X4.094Y-5.1511
X4.094Y-5.2511
X4.094Y-5.3511
X4.094Y-5.4511
X4.1584Y-3.6004
X4.1584Y-3.9004
X4.1584Y-4.0904
X4.1584Y-4.3904
X4.184Y-1.6906
X4.184Y-1.7906
X4.184Y-1.8906
X4.184Y-1.9906
X4.184Y-2.0906
X4.184Y-2.1906
X4.184Y-2.2906
X4.187Y-2.5506
X4.187Y-2.6506
X4.187Y-2.7506
X4.187Y-2.8506
X4.187Y-2.9506
X4.187Y-3.0506
X4.187Y-3.1506
X4.2136Y-5.1608
X4.2136Y-5.3058
X4.2136Y-5.4508
X4.2334Y-4.7104
X4.2334Y-5.0104
X4.2584Y-3.6004
X4.2584Y-3.9004
X4.2584Y-4.0904
X4.2584Y-4.3904
X4.3334Y-4.7104
X4.3334Y-5.0104
X4.3584Y-3.6004
X4.3584Y-3.9004
X4.3584Y-4.0904
X4.3584Y-4.3904
X4.4334Y-4.7104
X4.4334Y-5.0104
X4.4584Y-3.6004
X4.4584Y-3.9004
X4.4584Y-4.0904
X4.4584Y-4.3904
X4.484Y-1.6906
X4.484Y-1.7906
X4.484Y-1.8906
X4.484Y-1.9906
X4.484Y-2.0906
X4.484Y-2.1906
X4.484Y-2.2906
X4.487Y-2.5506
X4.487Y-2.6506
X4.487Y-2.7506
X4.487Y-2.8506
X4.487Y-2.9506
X4.487Y-3.0506
X4.487Y-3.1506
X4.5334Y-4.7104
X4.5334Y-5.0104
X4.5584Y-3.6004
X4.5584Y-3.9004
X4.5584Y-4.0904
X4.5584Y-4.3904
X4.6136Y-5.1608
X4.6136Y-5.3058
X4.6136Y-5.4508
X4.6334Y-4.7104
X4.6334Y-5.0104
X4.6584Y-3.6004
X4.6584Y-3.9004
X4.6584Y-4.0904
X4.6584Y-4.3904
X4.714Y-1.6906
X4.714Y-1.7906
X4.714Y-1.8906
X4.714Y-1.9906
X4.714Y-2.0906
X4.714Y-2.1906
X4.714Y-2.2906
X4.718Y-2.5526
X4.718Y-2.6526
X4.718Y-2.7526
X4.718Y-2.8526
X4.718Y-2.9526
X4.718Y-3.0526
X4.718Y-3.1526
X4.7334Y-4.7104
X4.7334Y-5.0104
X4.7336Y-5.1608
X4.7336Y-5.3058
X4.7336Y-5.4508
X4.8334Y-4.7104
X4.8334Y-5.0104
X4.9234Y-3.6004
X4.9234Y-3.9004
X4.9234Y-4.0954
X4.9234Y-4.3954
X5.014Y-1.6906
X5.014Y-1.7906
X5.014Y-1.8906
X5.014Y-1.9906
X5.014Y-2.0906
X5.014Y-2.1906
X5.014Y-2.2906
X5.018Y-2.5526
X5.018Y-2.6526
X5.018Y-2.7526
X5.018Y-2.8526
X5.018Y-2.9526
X5.018Y-3.0526
X5.018Y-3.1526
X5.0234Y-3.6004
X5.0234Y-3.9004
X5.0234Y-4.0954
X5.0234Y-4.3954
X5.1234Y-3.6004
X5.1234Y-3.9004
X5.1234Y-4.0954
X5.1234Y-4.3954
X5.1336Y-5.1608
X5.1336Y-5.3058
X5.1336Y-5.4508
X5.2234Y-3.6004
X5.2234Y-3.9004
X5.2234Y-4.0954
X5.2234Y-4.3954
X5.2536Y-5.1608
X5.2536Y-5.4508
X5.2552Y-4.8508
X5.259Y-1.6906
X5.259Y-1.7906
X5.259Y-1.8906
X5.259Y-1.9906
X5.259Y-2.0906
X5.259Y-2.1906
X5.259Y-2.2906
X5.26Y-2.5526
X5.26Y-2.6526
X5.26Y-2.7526
X5.26Y-2.8526
X5.26Y-2.9526
X5.26Y-3.0526
X5.26Y-3.1526
X5.3234Y-3.6004
X5.3234Y-3.9004
X5.3234Y-4.0954
X5.3234Y-4.3954
X5.4234Y-3.6004
X5.4234Y-3.9004
X5.4234Y-4.0954
X5.4234Y-4.3954
X5.4552Y-5.0038
X5.4552Y-5.3048
X5.4568Y-4.7008
X5.5234Y-3.6004
X5.5234Y-3.9004
X5.5234Y-4.0954
X5.5234Y-4.3954
X5.559Y-1.6906
X5.559Y-1.7906
X5.559Y-1.8906
X5.559Y-1.9906
X5.559Y-2.0906
X5.559Y-2.1906
X5.559Y-2.2906
X5.56Y-2.5526
X5.56Y-2.6526
X5.56Y-2.7526
X5.56Y-2.8526
X5.56Y-2.9526
X5.56Y-3.0526
X5.56Y-3.1526
X5.652Y-5.0038
X5.652Y-5.3048
X5.6536Y-4.7008
X5.6536Y-5.1608
X5.6536Y-5.4508
X5.6552Y-4.8508
X5.838Y-3.4621
X5.838Y-3.7621
X5.838Y-3.9001
X5.838Y-4.3001
X5.858Y-1.6896
X5.858Y-1.7896
X5.858Y-1.8896
X5.858Y-1.9896
X5.858Y-2.0896
X5.858Y-2.1896
X5.858Y-2.2896
X5.859Y-2.5466
X5.859Y-2.6466
X5.859Y-2.7466
X5.859Y-2.8466
X5.859Y-2.9466
X5.859Y-3.0466
X5.859Y-3.1466
X5.8636Y-4.8268
X5.8636Y-5.2268
X5.938Y-3.4621
X5.938Y-3.7621
X5.968Y-3.9001
X5.968Y-4.3001
X6.038Y-3.4621
X6.038Y-3.7621
X6.098Y-3.9001
X6.098Y-4.3001
X6.138Y-3.4621
X6.138Y-3.7621
X6.158Y-1.6896
X6.158Y-1.7896
X6.158Y-1.8896
X6.158Y-1.9896
X6.158Y-2.0896
X6.158Y-2.1896
X6.158Y-2.2896
X6.159Y-2.5466
X6.159Y-2.6466
X6.159Y-2.7466
X6.159Y-2.8466
X6.159Y-2.9466
X6.159Y-3.0466
X6.159Y-3.1466
X6.228Y-3.9001
X6.228Y-4.3001
X6.238Y-3.4621
X6.238Y-3.7621
X6.308Y-1.6896
X6.308Y-1.7896
X6.308Y-1.8896
X6.308Y-1.9896
X6.308Y-2.0896
X6.308Y-2.1896
X6.308Y-2.2896
X6.309Y-2.5456
X6.309Y-2.6456
X6.309Y-2.7456
X6.309Y-2.8456
X6.309Y-2.9456
X6.309Y-3.0456
X6.309Y-3.1456
X6.338Y-3.4621
X6.338Y-3.7621
X6.358Y-3.9001
X6.358Y-4.3001
X6.438Y-3.4621
X6.438Y-3.7621
X6.488Y-3.9001
X6.488Y-4.3001
X6.538Y-3.4621
X6.538Y-3.7621
X6.608Y-1.6896
X6.608Y-1.7896
X6.608Y-1.8896
X6.608Y-1.9896
X6.608Y-2.0896
X6.608Y-2.1896
X6.608Y-2.2896
X6.609Y-2.5456
X6.609Y-2.6456
X6.609Y-2.7456
X6.609Y-2.8456
X6.609Y-2.9456
X6.609Y-3.0456
X6.609Y-3.1456
X6.618Y-3.9001
X6.618Y-4.3001
X6.748Y-3.9001
X6.748Y-4.3001
X6.753Y-3.4611
X6.753Y-3.7611
X6.7586Y-2.5468
X6.7586Y-2.6468
X6.7586Y-2.7468
X6.7586Y-2.8468
X6.7586Y-2.9468
X6.7586Y-3.0468
X6.7586Y-3.1468
X6.7614Y-1.6884
X6.7614Y-1.7884
X6.7614Y-1.8884
X6.7614Y-1.9884
X6.7614Y-2.0884
X6.7614Y-2.1884
X6.7614Y-2.2884
X6.853Y-3.4611
X6.853Y-3.7611
X6.878Y-3.9001
X6.878Y-4.3001
X6.953Y-3.4611
X6.953Y-3.7611
X6.9536Y-4.8008
X6.9536Y-5.4008
X7.008Y-3.9001
X7.008Y-4.3001
X7.053Y-3.4611
X7.053Y-3.7611
X7.0536Y-4.8008
X7.0536Y-5.4008
X7.0586Y-2.5468
X7.0586Y-2.6468
X7.0586Y-2.7468
X7.0586Y-2.8468
X7.0586Y-2.9468
X7.0586Y-3.0468
X7.0586Y-3.1468
X7.0614Y-1.6884
X7.0614Y-1.7884
X7.0614Y-1.8884
X7.0614Y-1.9884
X7.0614Y-2.0884
X7.0614Y-2.1884
X7.0614Y-2.2884
X7.138Y-3.9001
X7.138Y-4.3001
X7.153Y-3.4611
X7.153Y-3.7611
X7.1536Y-4.8008
X7.1536Y-5.4008
X7.2166Y-2.5498
X7.2166Y-2.6498
X7.2166Y-2.7498
X7.2166Y-2.8498
X7.2166Y-2.9498
X7.2166Y-3.0498
X7.2166Y-3.1498
X7.2194Y-1.6864
X7.2194Y-1.7864
X7.2194Y-1.8864
X7.2194Y-1.9864
X7.2194Y-2.0864
X7.2194Y-2.1864
X7.2194Y-2.2864
X7.253Y-3.4611
X7.253Y-3.7611
X7.2536Y-4.8008
X7.2536Y-5.4008
X7.268Y-3.9001
X7.268Y-4.3001
X7.353Y-3.4611
X7.353Y-3.7611
X7.3536Y-4.8008
X7.3536Y-5.4008
X7.398Y-3.9001
X7.398Y-4.3001
X7.453Y-3.4611
X7.453Y-3.7611
X7.5166Y-2.5498
X7.5166Y-2.6498
X7.5166Y-2.7498
X7.5166Y-2.8498
X7.5166Y-2.9498
X7.5166Y-3.0498
X7.5166Y-3.1498
X7.5194Y-1.6864
X7.5194Y-1.7864
X7.5194Y-1.8864
X7.5194Y-1.9864
X7.5194Y-2.0864
X7.5194Y-2.1864
X7.5194Y-2.2864
X7.5196Y-4.8008
X7.5196Y-5.4008
X7.528Y-3.9001
X7.528Y-4.3001
X7.6196Y-4.8008
X7.6196Y-5.4008
X7.6636Y-3.9001
X7.6636Y-4.3001
X7.664Y-2.5468
X7.664Y-2.6468
X7.664Y-2.7468
X7.664Y-2.8468
X7.664Y-2.9468
X7.664Y-3.0468
X7.664Y-3.1468
X7.6674Y-1.6864
X7.6674Y-1.7864
X7.6674Y-1.8864
X7.6674Y-1.9864
X7.6674Y-2.0864
X7.6674Y-2.1864
X7.6674Y-2.2864
X7.7196Y-4.8008
X7.7196Y-5.4008
X7.743Y-3.4661
X7.743Y-3.7661
X7.7936Y-3.9001
X7.7936Y-4.3001
X7.8196Y-4.8008
X7.8196Y-5.4008
X7.843Y-3.4661
X7.843Y-3.7661
X7.9196Y-4.8008
X7.9196Y-5.4008
X7.9236Y-3.9001
X7.9236Y-4.3001
X7.943Y-3.4661
X7.943Y-3.7661
X7.964Y-2.5468
X7.964Y-2.6468
X7.964Y-2.7468
X7.964Y-2.8468
X7.964Y-2.9468
X7.964Y-3.0468
X7.964Y-3.1468
X7.9674Y-1.6864
X7.9674Y-1.7864
X7.9674Y-1.8864
X7.9674Y-1.9864
X7.9674Y-2.0864
X7.9674Y-2.1864
X7.9674Y-2.2864
X8.043Y-3.4661
X8.043Y-3.7661
X8.0536Y-3.8998
X8.0536Y-4.2998
X8.0856Y-4.8008
X8.0856Y-5.4008
X8.1186Y-2.5468
X8.1186Y-2.6468
X8.1186Y-2.7468
X8.1186Y-2.8468
X8.1186Y-2.9468
X8.1186Y-3.0468
X8.1186Y-3.1468
X8.1214Y-1.6834
X8.1214Y-1.7834
X8.1214Y-1.8834
X8.1214Y-1.9834
X8.1214Y-2.0834
X8.1214Y-2.1834
X8.1214Y-2.2834
X8.143Y-3.4661
X8.143Y-3.7661
X8.1836Y-3.9001
X8.1836Y-4.3001
X8.1856Y-4.8008
X8.1856Y-5.4008
X8.243Y-3.4661
X8.243Y-3.7661
X8.2856Y-4.8008
X8.2856Y-5.4008
X8.3136Y-3.8998
X8.3136Y-4.2998
X8.343Y-3.4661
X8.343Y-3.7661
X8.3856Y-4.8008
X8.3856Y-5.4008
X8.4186Y-2.5468
X8.4186Y-2.6468
X8.4186Y-2.7468
X8.4186Y-2.8468
X8.4186Y-2.9468
X8.4186Y-3.0468
X8.4186Y-3.1468
X8.4214Y-1.6834
X8.4214Y-1.7834
X8.4214Y-1.8834
X8.4214Y-1.9834
X8.4214Y-2.0834
X8.4214Y-2.1834
X8.4214Y-2.2834
X8.443Y-3.4661
X8.443Y-3.7661
X8.4436Y-3.8998
X8.4436Y-4.2998
X8.4856Y-4.8008
X8.4856Y-5.4008
X8.5736Y-3.9001
X8.5736Y-4.3001
X8.5836Y-2.5468
X8.5836Y-2.6468
X8.5836Y-2.7468
X8.5836Y-2.8468
X8.5836Y-2.9468
X8.5836Y-3.0468
X8.5836Y-3.1468
X8.5884Y-1.6814
X8.5884Y-1.7814
X8.5884Y-1.8814
X8.5884Y-1.9814
X8.5884Y-2.0814
X8.5884Y-2.1814
X8.5884Y-2.2814
X8.6496Y-3.4668
X8.6496Y-3.7668
X8.6516Y-4.8008
X8.6516Y-5.4008
X8.7036Y-3.9001
X8.7036Y-4.3001
X8.7496Y-3.4668
X8.7496Y-3.7668
X8.7516Y-4.8008
X8.7516Y-5.4008
X8.8336Y-3.9001
X8.8336Y-4.3001
X8.8496Y-3.4668
X8.8496Y-3.7668
X8.8516Y-4.8008
X8.8516Y-5.4008
X8.8836Y-2.5468
X8.8836Y-2.6468
X8.8836Y-2.7468
X8.8836Y-2.8468
X8.8836Y-2.9468
X8.8836Y-3.0468
X8.8836Y-3.1468
X8.8884Y-1.6814
X8.8884Y-1.7814
X8.8884Y-1.8814
X8.8884Y-1.9814
X8.8884Y-2.0814
X8.8884Y-2.1814
X8.8884Y-2.2814
X8.9496Y-3.4668
X8.9496Y-3.7668
X8.9516Y-4.8008
X8.9516Y-5.4008
X8.9636Y-3.9001
X8.9636Y-4.3001
X9.0434Y-1.6794
X9.0434Y-1.7794
X9.0434Y-1.8794
X9.0434Y-1.9794
X9.0434Y-2.0794
X9.0434Y-2.1794
X9.0434Y-2.2794
X9.0436Y-2.5468
X9.0436Y-2.6468
X9.0436Y-2.7468
X9.0436Y-2.8468
X9.0436Y-2.9468
X9.0436Y-3.0468
X9.0436Y-3.1468
X9.0496Y-3.4668
X9.0496Y-3.7668
X9.0516Y-4.8008
X9.0516Y-5.4008
X9.0936Y-3.9001
X9.0936Y-4.3001
X9.1496Y-3.4668
X9.1496Y-3.7668
X9.2236Y-3.9011
X9.2236Y-4.3011
X9.2496Y-3.4668
X9.2496Y-3.7668
X9.3126Y-4.7108
X9.3126Y-5.1108
X9.3434Y-1.6794
X9.3434Y-1.7794
X9.3434Y-1.8794
X9.3434Y-1.9794
X9.3434Y-2.0794
X9.3434Y-2.1794
X9.3434Y-2.2794
X9.3436Y-2.5468
X9.3436Y-2.6468
X9.3436Y-2.7468
X9.3436Y-2.8468
X9.3436Y-2.9468
X9.3436Y-3.0468
X9.3436Y-3.1468
X9.3496Y-3.4668
X9.3496Y-3.7668
X9.3536Y-3.9011
X9.3536Y-4.3011
T6
X6.1534Y-4.8048
X6.2534Y-4.8048
X9.2264Y-5.3968
X9.3264Y-5.3968
T7
X2.0396Y-5.3688
X2.1396Y-5.3688
X2.2396Y-5.3688
X6.0757Y-5.0322
X6.0757Y-5.2093
X6.3316Y-5.0322
X6.3316Y-5.2093
X6.545Y-4.7748
X6.545Y-5.0307
X6.545Y-5.1708
X6.545Y-5.4267
X6.7222Y-4.7748
X6.7222Y-5.0307
X6.7222Y-5.1708
X6.7222Y-5.4267
T8
X1.5702Y-5.3428
X1.767Y-5.3428
T0
M30
